<svg width="14" height="18" viewBox="0 0 14 18" fill="none" xmlns="http://www.w3.org/2000/svg">
<path fill-rule="evenodd" clip-rule="evenodd" d="M7.83333 1.50008C7.83333 1.27907 7.74554 1.06711 7.58926 0.910826C7.43297 0.754545 7.22101 0.666748 7 0.666748C6.77899 0.666748 6.56702 0.754545 6.41074 0.910826C6.25446 1.06711 6.16667 1.27907 6.16667 1.50008V2.12508H5.7025C4.80919 2.12502 3.94944 2.46541 3.29827 3.07695C2.6471 3.68848 2.25346 4.52519 2.1975 5.41675L2.01333 8.36175C1.94311 9.48462 1.56608 10.5667 0.923333 11.4901C0.790527 11.681 0.70938 11.903 0.687785 12.1345C0.666189 12.366 0.70488 12.5992 0.800093 12.8114C0.895307 13.0235 1.0438 13.2074 1.23114 13.3452C1.41848 13.483 1.63828 13.5699 1.86917 13.5976L4.70833 13.9376V14.8334C4.70833 15.4412 4.94978 16.0241 5.37955 16.4539C5.80932 16.8836 6.39221 17.1251 7 17.1251C7.60779 17.1251 8.19068 16.8836 8.62045 16.4539C9.05022 16.0241 9.29167 15.4412 9.29167 14.8334V13.9376L12.1308 13.5967C12.3616 13.569 12.5812 13.4821 12.7685 13.3443C12.9557 13.2066 13.1041 13.0228 13.1993 12.8108C13.2945 12.5988 13.3332 12.3657 13.3117 12.1343C13.2902 11.9029 13.2093 11.681 13.0767 11.4901C12.4339 10.5667 12.0569 9.48463 11.9867 8.36175L11.8025 5.41758C11.7467 4.52588 11.3532 3.68896 10.702 3.07725C10.0508 2.46554 9.19094 2.12504 8.2975 2.12508H7.83333V1.50008ZM5.95833 14.8334C5.95833 15.1097 6.06808 15.3746 6.26343 15.57C6.45878 15.7653 6.72373 15.8751 7 15.8751C7.27627 15.8751 7.54122 15.7653 7.73657 15.57C7.93192 15.3746 8.04167 15.1097 8.04167 14.8334V14.2084H5.95833V14.8334Z" fill="#FFBD12"/>
</svg>
