<svg width="343" height="312" viewBox="0 0 343 312" fill="none" xmlns="http://www.w3.org/2000/svg">
<path opacity="0.5" d="M63.9522 289.142C127.789 319.619 231.288 319.619 295.125 289.142C358.962 258.665 358.954 209.255 295.125 178.754C231.296 148.253 127.789 148.269 63.9522 178.754C0.114939 209.239 0.122908 258.657 63.9522 289.142Z" fill="#EBEBEB"/>
<path d="M270.821 232.111C295.183 232.111 314.932 222.679 314.932 211.045C314.932 199.41 295.183 189.978 270.821 189.978C246.46 189.978 226.711 199.41 226.711 211.045C226.711 222.679 246.46 232.111 270.821 232.111Z" fill="#E0E0E0"/>
<path d="M204.113 294.902C192.328 300.534 173.223 300.534 161.438 294.902C149.653 289.27 149.653 280.155 161.438 274.523C173.223 268.891 192.328 268.931 204.113 274.523C215.899 280.115 215.93 289.278 204.113 294.902Z" fill="#E0E0E0"/>
<path d="M45.6127 223.036L52.0953 219.289C52.0953 219.289 55.516 204.007 50.4209 184.594C45.3257 165.181 30.6302 150.666 22.9675 153.71C15.3048 156.753 15.5041 162.497 19.7302 168.321C23.2386 173.114 34.617 184.778 40.087 198.215C43.3456 206.107 45.2152 214.504 45.6127 223.036Z" fill="#FFBD12"/>
<path opacity="0.1" d="M45.6127 223.036L52.0953 219.289C52.0953 219.289 55.516 204.007 50.4209 184.594C45.3257 165.181 30.6302 150.666 22.9675 153.71C15.3048 156.753 15.5041 162.497 19.7302 168.321C23.2386 173.114 34.617 184.778 40.087 198.215C43.3456 206.107 45.2152 214.504 45.6127 223.036Z" fill="black"/>
<path d="M49.0653 221.438H49.0095C48.9064 221.422 48.8135 221.366 48.7509 221.283C48.6883 221.199 48.6609 221.094 48.6746 220.991C53.1 189.036 33.3333 163.2 24.339 157.808C24.2868 157.785 24.2401 157.752 24.2019 157.71C24.1638 157.667 24.135 157.618 24.1177 157.563C24.1003 157.509 24.0946 157.452 24.1011 157.396C24.1076 157.339 24.1261 157.284 24.1553 157.236C24.1845 157.187 24.2238 157.145 24.2706 157.113C24.3173 157.08 24.3704 157.058 24.4263 157.048C24.4822 157.038 24.5396 157.04 24.5946 157.054C24.6497 157.068 24.7012 157.093 24.7456 157.129C33.8755 162.593 53.9452 188.772 49.464 221.102C49.4472 221.196 49.3981 221.281 49.3253 221.342C49.2525 221.404 49.1605 221.438 49.0653 221.438Z" fill="white"/>
<path d="M45.6127 223.036L35.9008 228.628C33.8724 227.612 31.6751 226.979 29.4182 226.758C25.2878 226.239 22.5369 222.245 22.9436 219.265C23.2147 217.252 23.8605 214.959 23.5496 212.922C23.2785 211.101 21.5163 209.463 19.8737 208.824C18.4758 208.386 17.0163 208.178 15.552 208.209C13.2157 208.097 10.7678 207.833 8.79827 206.611C6.82877 205.389 5.37756 202.944 6.01546 200.683C6.44443 199.513 7.14075 198.46 8.04874 197.608C8.9531 196.753 9.68649 195.734 10.2096 194.604C11.0708 192.351 9.54779 190.913 7.73777 189.867C1.35883 186.192 -1.5117 183.292 0.784723 180.512C3.08114 177.732 9.38832 176.517 15.855 179.921C22.3216 183.324 27.6879 179.673 31.9538 180.392C38.6358 181.51 39.0265 186.24 38.1972 190.346C37.3679 194.452 45.6367 196.202 47.6859 201.131C49.2248 204.71 50.4846 216.469 45.6127 223.036Z" fill="#FFBD12"/>
<path d="M42.3754 225.304C42.2724 225.305 42.1733 225.265 42.099 225.193C42.0247 225.122 41.9809 225.024 41.9767 224.921C41.1794 202.113 12.0037 182.221 5.1224 181.079C5.07054 181.071 5.02072 181.053 4.97581 181.026C4.93089 180.999 4.89176 180.963 4.86065 180.921C4.82954 180.879 4.80707 180.831 4.79451 180.78C4.78196 180.729 4.77958 180.676 4.78751 180.624C4.80697 180.52 4.86614 180.427 4.95248 180.366C5.03881 180.305 5.14552 180.28 5.24998 180.296C12.4981 181.494 41.9688 201.235 42.7741 224.889C42.7762 224.942 42.768 224.994 42.7499 225.043C42.7319 225.092 42.7043 225.138 42.6687 225.176C42.6332 225.215 42.5904 225.246 42.5428 225.268C42.4952 225.29 42.4437 225.302 42.3914 225.304H42.3754Z" fill="white"/>
<path d="M167.498 266.502C167.179 262.508 164.102 255.686 159.525 250.828C154.948 245.971 147.676 243.639 143.179 245.588C138.992 247.409 139.917 253.033 145.443 256.365C150.969 259.696 159.198 263.77 162.02 270.073L167.474 277.639L167.498 266.502Z" fill="#FFBD12"/>
<path opacity="0.1" d="M167.498 266.502C167.179 262.508 164.102 255.686 159.525 250.828C154.948 245.971 147.676 243.639 143.179 245.588C138.992 247.409 139.917 253.033 145.443 256.365C150.969 259.696 159.198 263.77 162.02 270.073L167.474 277.639L167.498 266.502Z" fill="black"/>
<path d="M167.498 273.82H167.578C167.649 273.81 167.717 273.786 167.779 273.75C167.84 273.714 167.894 273.666 167.937 273.609C167.98 273.551 168.011 273.486 168.029 273.417C168.047 273.348 168.051 273.276 168.041 273.205C166.055 258.402 151.041 248.104 145.068 246.97C144.998 246.956 144.926 246.956 144.856 246.97C144.786 246.984 144.719 247.012 144.66 247.053C144.601 247.093 144.55 247.144 144.51 247.204C144.471 247.264 144.444 247.331 144.431 247.401C144.417 247.472 144.417 247.544 144.431 247.614C144.445 247.684 144.473 247.751 144.513 247.811C144.553 247.87 144.604 247.921 144.664 247.96C144.724 248 144.791 248.027 144.861 248.04C150.443 249.103 165.066 259.288 166.956 273.349C166.975 273.479 167.04 273.599 167.14 273.685C167.239 273.772 167.367 273.819 167.498 273.82Z" fill="white"/>
<path d="M166.908 283.039C166.111 280.842 163.049 277.351 158.369 274.651C153.194 271.655 146.87 270.592 145.228 268.076C143.258 265.04 145.682 261.837 150.762 262.053C155.841 262.268 165.258 268.444 167.506 278.693L166.908 283.039Z" fill="#FFBD12"/>
<path d="M167.291 280.882H167.395C167.466 280.869 167.534 280.841 167.594 280.801C167.654 280.761 167.706 280.71 167.746 280.649C167.786 280.589 167.814 280.521 167.828 280.45C167.841 280.379 167.84 280.306 167.825 280.235C166.318 272.646 155.339 264.785 148.242 264.457C148.099 264.456 147.961 264.509 147.855 264.605C147.748 264.701 147.682 264.834 147.668 264.976C147.663 265.122 147.716 265.264 147.814 265.371C147.913 265.479 148.049 265.543 148.194 265.552C154.78 265.855 165.361 273.42 166.757 280.451C166.783 280.573 166.85 280.683 166.947 280.762C167.045 280.84 167.166 280.883 167.291 280.882Z" fill="white"/>
<path d="M38.6437 228.955C38.1835 228.646 37.8256 228.207 37.6154 227.693C37.4052 227.18 37.3524 226.615 37.4636 226.071L65.7383 100.697C66.0786 99.4842 66.8464 98.4368 67.8992 97.7487L236.144 0.4462C236.658 0.173642 237.23 0.0265278 237.812 0.0168112C238.393 0.00709453 238.969 0.13505 239.493 0.390279C239.946 0.701322 240.297 1.13935 240.503 1.6495C240.708 2.15965 240.759 2.71925 240.649 3.25823L212.366 128.633C212.025 129.847 211.254 130.895 210.197 131.581L41.9927 228.883C41.4795 229.158 40.9087 229.308 40.3268 229.321C39.7449 229.333 39.1683 229.208 38.6437 228.955Z" fill="#F0F0F0"/>
<path d="M68.9756 102.55L40.701 227.973C40.4618 229.043 41.0359 229.475 41.9927 228.923L210.237 131.621C211.294 130.935 212.065 129.887 212.406 128.673L240.649 3.25823C240.888 2.17976 240.314 1.75636 239.357 2.30758L71.1126 99.6101C70.0708 100.301 69.3122 101.345 68.9756 102.55Z" fill="#E6E6E6"/>
<path d="M242.698 2.2437C242.174 1.98969 241.598 1.8631 241.016 1.87421C240.434 1.88531 239.863 2.0338 239.349 2.30761L71.1046 99.6101C70.6165 99.9266 70.2241 100.371 69.9697 100.895C69.7154 101.418 69.6087 102.002 69.6613 102.582L91.8043 257.875C91.9123 258.463 92.1365 259.024 92.4637 259.525C92.791 260.026 93.2147 260.456 93.71 260.79C94.2319 261.046 94.8072 261.174 95.3882 261.163C95.9691 261.152 96.5391 261.002 97.0509 260.726L265.264 163.448C265.753 163.131 266.146 162.685 266.401 162.16C266.655 161.635 266.761 161.05 266.707 160.468L244.636 5.15958C244.524 4.56826 244.295 4.00541 243.962 3.5045C243.63 3.00359 243.2 2.57483 242.698 2.2437Z" fill="#F0F0F0"/>
<path d="M72.9306 104.459L95.0416 259.752C95.0459 259.983 95.1142 260.209 95.2389 260.404C95.3635 260.599 95.5396 260.756 95.7477 260.857C95.9558 260.958 96.1877 260.999 96.4177 260.976C96.6477 260.953 96.8669 260.867 97.0509 260.726L265.264 163.448C265.753 163.131 266.146 162.685 266.401 162.16C266.655 161.635 266.761 161.049 266.707 160.468L244.636 5.15953C244.633 4.92728 244.566 4.70041 244.441 4.5042C244.317 4.30799 244.141 4.15015 243.933 4.04827C243.725 3.94639 243.492 3.90447 243.262 3.92719C243.031 3.9499 242.811 4.03636 242.626 4.17692L74.3818 101.479C73.891 101.796 73.4961 102.241 73.2402 102.766C72.9844 103.291 72.8773 103.877 72.9306 104.459Z" fill="#FAFAFA"/>
<path d="M40.8525 227.27L83.9103 202.353L85.1622 211.38L65.4194 222.804C65.4194 222.804 60.1567 224.673 58.0676 225.201C55.9785 225.728 40.8525 227.27 40.8525 227.27Z" fill="#E0E0E0"/>
<path d="M85.1861 211.388L91.6448 256.764L65.4433 222.812L85.1861 211.388Z" fill="#E6E6E6"/>
<path d="M90.8713 258.274L67.3888 227.717C66.999 227.261 66.5062 226.906 65.9515 226.679C65.3968 226.453 64.7961 226.362 64.1994 226.415L42.2399 229.61C41.0032 229.743 39.7546 229.516 38.6437 228.955C37.7507 228.444 37.9022 227.853 38.9786 227.645L64.2153 222.78C64.807 222.691 65.4117 222.757 65.9706 222.971C66.5295 223.185 67.0235 223.54 67.4048 224.002L94.1405 260.111C94.7944 260.998 94.603 261.294 93.7099 260.774C92.6335 260.102 91.6745 259.257 90.8713 258.274Z" fill="#E0E0E0"/>
<path d="M240.689 2.64312C240.686 2.19299 240.572 1.75051 240.358 1.35481C240.144 0.9591 239.836 0.622349 239.461 0.374322C238.936 0.122789 238.36 -0.00242248 237.779 0.00867375C237.197 0.01977 236.626 0.166868 236.112 0.438233L67.8673 97.7407C67.3543 98.0628 66.9077 98.4804 66.5516 98.971C66.1564 99.4812 65.8664 100.065 65.6984 100.689L61.7116 118.4L64.9489 120.261L236.662 20.9612L240.649 3.25825C240.687 3.05552 240.703 2.84929 240.697 2.64312H240.689Z" fill="#FFBD12"/>
<path opacity="0.2" d="M240.649 3.25823C240.888 2.17976 240.314 1.75636 239.357 2.30758L71.1126 99.6101C70.0618 100.297 69.2944 101.341 68.9517 102.55L64.9649 120.261L236.662 20.9612L240.649 3.25823Z" fill="black"/>
<path opacity="0.1" d="M69.8208 100.84C69.4249 101.346 69.1372 101.928 68.9756 102.55L64.9888 120.261L61.7515 118.392L65.7383 100.681C65.9063 100.057 66.1963 99.4732 66.5915 98.963L69.8208 100.84Z" fill="black"/>
<path opacity="0.4" d="M240.689 2.63512C240.609 2.03597 240.091 1.83625 239.349 2.30759L71.1046 99.6021C70.5879 99.9228 70.1406 100.344 69.7889 100.84L66.5516 98.963C66.9077 98.4725 67.3543 98.0548 67.8673 97.7328L236.112 0.430238C236.627 0.158873 237.197 0.0117744 237.779 0.000678133C238.36 -0.0104181 238.936 0.114797 239.461 0.36633C239.836 0.614356 240.144 0.951107 240.358 1.34681C240.572 1.74252 240.686 2.18499 240.689 2.63512Z" fill="white"/>
<path d="M244.803 6.64548L244.636 5.15958C244.624 5.08688 244.608 5.01489 244.588 4.94388C244.591 4.92272 244.591 4.90114 244.588 4.87997C244.317 3.80497 243.661 2.86697 242.746 2.2437C242.222 1.98969 241.646 1.8631 241.064 1.87421C240.482 1.88531 239.911 2.0338 239.397 2.30761L71.1524 99.6101C70.6431 99.9261 70.2403 100.388 69.9962 100.936C69.7472 101.447 69.6476 102.017 69.7092 102.582L72.8987 124.83L76.136 126.708L247.769 27.4161L244.803 6.64548Z" fill="#FFBD12"/>
<path opacity="0.1" d="M76.1041 126.7L72.8668 124.822L69.6773 102.574C69.6157 102.009 69.7153 101.439 69.9644 100.928L73.2096 102.798C72.9548 103.306 72.8524 103.878 72.9146 104.443L76.1041 126.7Z" fill="black"/>
<path opacity="0.4" d="M244.54 4.87997C244.494 4.67872 244.399 4.4922 244.263 4.33759C244.126 4.18298 243.953 4.06525 243.759 3.99523C243.565 3.92521 243.357 3.90516 243.154 3.93692C242.95 3.96868 242.758 4.05123 242.594 4.17697L74.3499 101.479C73.8386 101.793 73.4352 102.256 73.1937 102.806L70.0122 100.936C70.2583 100.387 70.6604 99.9233 71.1684 99.6021L239.413 2.30761C239.927 2.0338 240.498 1.88531 241.08 1.87421C241.662 1.8631 242.238 1.98969 242.762 2.2437C243.655 2.87604 244.288 3.81351 244.54 4.87997Z" fill="white"/>
<path d="M120.765 234.02L118.755 219.872C118.752 219.688 118.699 219.508 118.601 219.352C118.503 219.196 118.365 219.07 118.2 218.988C118.036 218.905 117.852 218.87 117.668 218.885C117.485 218.9 117.309 218.965 117.161 219.073L102.497 227.557C102.102 227.811 101.785 228.169 101.58 228.592C101.376 229.015 101.293 229.486 101.341 229.954L103.342 244.134C103.342 244.319 103.394 244.501 103.491 244.659C103.588 244.817 103.728 244.944 103.893 245.027C104.059 245.11 104.244 245.145 104.428 245.128C104.613 245.112 104.789 245.044 104.937 244.933L119.601 236.449C120.003 236.195 120.326 235.832 120.532 235.402C120.738 234.973 120.818 234.494 120.765 234.02Z" fill="#FFBD12"/>
<path d="M143.442 220.919L141.424 206.779C141.424 206.593 141.373 206.411 141.276 206.254C141.178 206.096 141.039 205.968 140.873 205.886C140.708 205.803 140.523 205.767 140.338 205.784C140.154 205.801 139.978 205.869 139.83 205.98L125.166 214.456C124.772 214.71 124.455 215.068 124.251 215.491C124.047 215.914 123.963 216.385 124.01 216.852L126.027 231C126.027 231.186 126.079 231.368 126.176 231.525C126.273 231.683 126.413 231.811 126.578 231.894C126.744 231.977 126.929 232.012 127.113 231.995C127.298 231.978 127.474 231.911 127.622 231.799L142.286 223.315C142.681 223.063 142.999 222.705 143.203 222.281C143.408 221.858 143.49 221.386 143.442 220.919Z" fill="#EBEBEB"/>
<path d="M166.119 207.817L164.102 193.677C164.102 193.492 164.05 193.31 163.953 193.152C163.855 192.994 163.716 192.867 163.551 192.784C163.385 192.701 163.2 192.666 163.015 192.683C162.831 192.699 162.655 192.767 162.507 192.878L147.835 201.37C147.441 201.624 147.124 201.982 146.92 202.405C146.716 202.828 146.633 203.3 146.679 203.767L148.696 217.915C148.696 218.1 148.748 218.282 148.845 218.44C148.943 218.598 149.082 218.725 149.247 218.808C149.413 218.891 149.598 218.926 149.783 218.91C149.967 218.893 150.143 218.825 150.291 218.714L164.955 210.23C165.355 209.977 165.676 209.617 165.881 209.19C166.087 208.764 166.17 208.288 166.119 207.817Z" fill="#EBEBEB"/>
<path d="M188.82 194.724L186.803 180.576C186.803 180.39 186.751 180.208 186.654 180.051C186.556 179.893 186.417 179.765 186.252 179.683C186.086 179.6 185.901 179.564 185.716 179.581C185.532 179.598 185.356 179.666 185.208 179.777L170.481 188.277C170.085 188.529 169.767 188.887 169.563 189.311C169.359 189.734 169.276 190.206 169.324 190.673L171.342 204.813C171.342 204.999 171.393 205.181 171.491 205.338C171.588 205.496 171.727 205.624 171.893 205.707C172.058 205.79 172.244 205.825 172.428 205.808C172.612 205.791 172.788 205.724 172.936 205.612L187.6 197.136C188.009 196.889 188.34 196.532 188.556 196.106C188.772 195.679 188.863 195.2 188.82 194.724Z" fill="#EBEBEB"/>
<path d="M211.473 181.622L209.456 167.442C209.456 167.257 209.404 167.075 209.307 166.917C209.21 166.76 209.07 166.632 208.905 166.549C208.739 166.466 208.554 166.431 208.37 166.448C208.185 166.464 208.009 166.532 207.861 166.643L193.198 175.127C192.802 175.38 192.484 175.738 192.28 176.161C192.076 176.585 191.993 177.056 192.041 177.524L194.059 191.664C194.059 191.849 194.11 192.031 194.208 192.189C194.305 192.347 194.444 192.474 194.61 192.557C194.775 192.64 194.961 192.675 195.145 192.659C195.329 192.642 195.505 192.574 195.653 192.463L210.349 184.003C210.735 183.746 211.044 183.389 211.242 182.969C211.44 182.55 211.52 182.084 211.473 181.622Z" fill="#EBEBEB"/>
<path d="M234.15 168.521L232.133 154.373C232.133 154.187 232.081 154.005 231.984 153.848C231.887 153.69 231.748 153.562 231.582 153.48C231.416 153.397 231.231 153.361 231.047 153.378C230.862 153.395 230.686 153.463 230.538 153.574L215.875 162.058C215.479 162.31 215.161 162.668 214.957 163.092C214.753 163.515 214.67 163.987 214.718 164.454L216.728 178.626C216.728 178.812 216.779 178.994 216.877 179.151C216.974 179.309 217.113 179.437 217.279 179.52C217.444 179.603 217.63 179.638 217.814 179.621C217.998 179.604 218.174 179.537 218.323 179.425L232.986 170.941C233.387 170.687 233.708 170.326 233.914 169.898C234.12 169.47 234.202 168.993 234.15 168.521Z" fill="#EBEBEB"/>
<path d="M256.828 155.459L254.81 141.311C254.81 141.126 254.759 140.944 254.661 140.786C254.564 140.628 254.425 140.501 254.259 140.418C254.094 140.335 253.908 140.3 253.724 140.317C253.54 140.333 253.364 140.401 253.215 140.512L238.552 148.996C238.157 149.25 237.839 149.608 237.635 150.031C237.431 150.454 237.348 150.925 237.396 151.393L239.405 165.541C239.408 165.725 239.461 165.905 239.559 166.061C239.657 166.217 239.796 166.343 239.96 166.426C240.125 166.508 240.309 166.543 240.492 166.528C240.675 166.513 240.851 166.448 241 166.34L255.663 157.856C256.06 157.604 256.379 157.246 256.584 156.823C256.79 156.4 256.874 155.927 256.828 155.459Z" fill="#EBEBEB"/>
<path d="M116.826 206.339L114.808 192.207C114.805 192.023 114.752 191.843 114.654 191.687C114.556 191.531 114.418 191.405 114.253 191.323C114.089 191.24 113.905 191.205 113.721 191.22C113.538 191.235 113.362 191.3 113.214 191.408L98.55 199.892C98.1549 200.146 97.8376 200.504 97.6335 200.927C97.4294 201.35 97.3464 201.821 97.3938 202.289L99.4032 216.437C99.4061 216.621 99.4594 216.801 99.5573 216.957C99.6552 217.113 99.7939 217.239 99.9584 217.322C100.123 217.404 100.307 217.44 100.49 217.424C100.673 217.409 100.849 217.344 100.998 217.236L115.662 208.752C116.058 208.496 116.377 208.135 116.582 207.709C116.787 207.284 116.872 206.81 116.826 206.339Z" fill="#FFBD12"/>
<path d="M139.503 193.238L137.485 179.09C137.483 178.906 137.429 178.726 137.331 178.57C137.233 178.414 137.095 178.288 136.93 178.205C136.766 178.123 136.582 178.087 136.398 178.102C136.215 178.117 136.04 178.183 135.891 178.291L121.227 186.775C120.832 187.028 120.515 187.386 120.311 187.809C120.107 188.232 120.024 188.704 120.071 189.172L122.08 203.32C122.083 203.504 122.136 203.684 122.234 203.84C122.332 203.996 122.471 204.122 122.636 204.204C122.8 204.287 122.984 204.322 123.167 204.307C123.351 204.292 123.526 204.227 123.675 204.118L138.339 195.634C138.733 195.38 139.049 195.021 139.255 194.599C139.46 194.176 139.546 193.706 139.503 193.238Z" fill="#EBEBEB"/>
<path d="M162.18 180.136L160.163 165.988C160.16 165.804 160.106 165.624 160.009 165.468C159.911 165.312 159.772 165.186 159.607 165.104C159.443 165.021 159.259 164.986 159.076 165.001C158.892 165.016 158.717 165.081 158.568 165.189L143.904 173.673C143.509 173.927 143.192 174.285 142.988 174.708C142.784 175.131 142.701 175.603 142.748 176.07L144.757 190.218C144.76 190.402 144.814 190.582 144.912 190.738C145.009 190.894 145.148 191.02 145.313 191.103C145.477 191.185 145.661 191.221 145.844 191.206C146.028 191.19 146.203 191.125 146.352 191.017L161.016 182.533C161.41 182.278 161.727 181.92 161.932 181.497C162.137 181.075 162.223 180.604 162.18 180.136Z" fill="#EBEBEB"/>
<path d="M184.833 167.035L182.816 152.887C182.813 152.703 182.76 152.523 182.662 152.367C182.564 152.211 182.425 152.085 182.261 152.002C182.096 151.92 181.912 151.884 181.729 151.899C181.546 151.914 181.37 151.98 181.221 152.088L166.573 160.588C166.179 160.842 165.862 161.2 165.658 161.623C165.454 162.046 165.371 162.517 165.417 162.985L167.427 177.133C167.429 177.317 167.483 177.497 167.581 177.653C167.679 177.809 167.817 177.935 167.982 178.017C168.146 178.1 168.33 178.135 168.514 178.12C168.697 178.105 168.873 178.04 169.021 177.931L183.685 169.447C184.079 169.19 184.395 168.829 184.598 168.403C184.8 167.977 184.882 167.504 184.833 167.035Z" fill="#EBEBEB"/>
<path d="M207.534 153.933L205.517 139.793C205.517 139.608 205.465 139.426 205.368 139.268C205.271 139.111 205.131 138.983 204.966 138.9C204.8 138.817 204.615 138.782 204.431 138.799C204.246 138.815 204.07 138.883 203.922 138.994L189.251 147.47C188.856 147.724 188.539 148.083 188.335 148.506C188.131 148.928 188.048 149.4 188.094 149.867L190.104 164.015C190.107 164.199 190.16 164.379 190.258 164.535C190.356 164.691 190.494 164.817 190.659 164.9C190.823 164.982 191.007 165.018 191.191 165.003C191.374 164.987 191.55 164.922 191.698 164.814L206.362 156.314C206.756 156.062 207.073 155.707 207.279 155.287C207.486 154.868 207.574 154.4 207.534 153.933Z" fill="#EBEBEB"/>
<path d="M230.211 140.832L228.194 126.7C228.194 126.514 228.142 126.333 228.045 126.175C227.948 126.017 227.809 125.89 227.643 125.807C227.477 125.724 227.292 125.689 227.108 125.705C226.923 125.722 226.747 125.79 226.599 125.901L211.944 134.393C211.548 134.646 211.23 135.004 211.026 135.427C210.822 135.85 210.739 136.322 210.787 136.79L212.797 150.93C212.8 151.114 212.853 151.294 212.951 151.45C213.049 151.606 213.188 151.732 213.352 151.814C213.517 151.897 213.7 151.932 213.884 151.917C214.067 151.902 214.243 151.837 214.392 151.728L229.055 143.244C229.451 142.988 229.768 142.627 229.972 142.201C230.176 141.776 230.259 141.302 230.211 140.832Z" fill="#EBEBEB"/>
<path d="M252.888 127.738L250.871 113.59C250.871 113.405 250.82 113.223 250.722 113.065C250.625 112.908 250.486 112.78 250.32 112.697C250.155 112.614 249.969 112.579 249.785 112.596C249.601 112.612 249.424 112.68 249.276 112.791L234.605 121.275C234.211 121.53 233.896 121.888 233.693 122.311C233.49 122.734 233.408 123.205 233.457 123.672L235.466 137.812C235.469 137.996 235.522 138.176 235.62 138.332C235.718 138.488 235.857 138.614 236.021 138.697C236.186 138.779 236.37 138.815 236.553 138.8C236.736 138.784 236.912 138.719 237.061 138.611L251.724 130.135C252.118 129.879 252.434 129.521 252.639 129.099C252.844 128.677 252.931 128.206 252.888 127.738Z" fill="#EBEBEB"/>
<path d="M112.879 178.626L110.869 164.478C110.866 164.294 110.813 164.114 110.715 163.958C110.617 163.802 110.479 163.676 110.314 163.594C110.15 163.511 109.966 163.476 109.782 163.491C109.599 163.506 109.423 163.571 109.275 163.68L94.595 172.235C94.2019 172.491 93.8861 172.849 93.6823 173.272C93.4784 173.694 93.3942 174.165 93.4389 174.632L95.4562 188.772C95.4562 188.958 95.5077 189.139 95.605 189.297C95.7024 189.455 95.8416 189.582 96.0072 189.665C96.1727 189.748 96.3581 189.783 96.5424 189.767C96.7268 189.75 96.9029 189.682 97.0509 189.571L111.722 181.023C112.117 180.769 112.434 180.411 112.638 179.988C112.842 179.565 112.925 179.094 112.879 178.626Z" fill="#FFBD12"/>
<path d="M135.556 165.557L133.546 151.409C133.544 151.225 133.49 151.045 133.392 150.889C133.294 150.733 133.156 150.607 132.991 150.524C132.827 150.442 132.643 150.406 132.459 150.421C132.276 150.437 132.101 150.502 131.952 150.61L117.288 159.094C116.895 159.349 116.579 159.708 116.375 160.13C116.171 160.553 116.087 161.023 116.132 161.491L118.149 175.639C118.152 175.823 118.205 176.003 118.303 176.159C118.401 176.315 118.54 176.441 118.705 176.523C118.869 176.606 119.053 176.641 119.236 176.626C119.42 176.611 119.595 176.546 119.744 176.438L134.408 167.954C134.801 167.699 135.117 167.341 135.32 166.918C135.522 166.495 135.604 166.024 135.556 165.557Z" fill="#EBEBEB"/>
<path d="M158.233 152.455L156.224 138.307C156.221 138.123 156.167 137.943 156.07 137.787C155.972 137.631 155.833 137.505 155.668 137.423C155.504 137.34 155.32 137.305 155.137 137.32C154.953 137.335 154.778 137.4 154.629 137.509L139.965 145.993C139.573 146.248 139.257 146.607 139.054 147.029C138.85 147.452 138.765 147.922 138.809 148.389L140.826 162.537C140.829 162.721 140.883 162.901 140.98 163.057C141.078 163.213 141.217 163.339 141.382 163.422C141.546 163.504 141.73 163.54 141.913 163.525C142.097 163.51 142.272 163.444 142.421 163.336L157.085 154.852C157.478 154.598 157.794 154.239 157.997 153.816C158.199 153.393 158.281 152.922 158.233 152.455Z" fill="#EBEBEB"/>
<path d="M180.91 139.354L178.901 125.206C178.898 125.022 178.845 124.842 178.747 124.686C178.649 124.53 178.51 124.404 178.345 124.321C178.181 124.239 177.997 124.203 177.814 124.218C177.63 124.234 177.455 124.299 177.306 124.407L162.642 132.891C162.25 133.147 161.935 133.505 161.731 133.928C161.527 134.35 161.442 134.821 161.486 135.288L163.504 149.436C163.506 149.62 163.56 149.8 163.658 149.956C163.756 150.112 163.894 150.238 164.059 150.32C164.223 150.403 164.407 150.438 164.591 150.423C164.774 150.408 164.949 150.343 165.098 150.235L179.762 141.751C180.156 141.496 180.471 141.138 180.674 140.715C180.877 140.292 180.958 139.821 180.91 139.354Z" fill="#EBEBEB"/>
<path d="M203.587 126.252L201.578 112.104C201.575 111.92 201.522 111.74 201.424 111.584C201.326 111.428 201.187 111.302 201.023 111.22C200.858 111.137 200.674 111.102 200.491 111.117C200.308 111.132 200.132 111.197 199.983 111.306L185.32 119.79C184.927 120.045 184.612 120.404 184.408 120.826C184.204 121.249 184.12 121.719 184.163 122.186L186.181 136.334C186.184 136.518 186.237 136.698 186.335 136.854C186.433 137.01 186.571 137.136 186.736 137.219C186.9 137.301 187.084 137.337 187.268 137.322C187.451 137.307 187.627 137.241 187.775 137.133L202.439 128.649C202.833 128.395 203.148 128.036 203.351 127.613C203.554 127.19 203.635 126.719 203.587 126.252Z" fill="#EBEBEB"/>
<path d="M226.296 113.119L224.287 98.971C224.284 98.7868 224.231 98.6069 224.133 98.4509C224.035 98.2949 223.896 98.1688 223.732 98.0864C223.567 98.004 223.383 97.9684 223.2 97.9836C223.017 97.9987 222.841 98.0639 222.692 98.1721L207.957 106.728C207.564 106.984 207.249 107.342 207.045 107.765C206.841 108.187 206.757 108.658 206.801 109.125L208.818 123.273C208.821 123.457 208.874 123.637 208.972 123.793C209.07 123.949 209.209 124.075 209.373 124.157C209.538 124.24 209.722 124.275 209.905 124.26C210.088 124.245 210.264 124.18 210.413 124.072L225.108 115.516C225.51 115.267 225.834 114.911 226.044 114.487C226.254 114.064 226.341 113.59 226.296 113.119Z" fill="#EBEBEB"/>
<path d="M248.942 100.049L246.932 85.9095C246.929 85.7252 246.876 85.5453 246.778 85.3893C246.68 85.2334 246.541 85.1073 246.377 85.0249C246.212 84.9425 246.028 84.9069 245.845 84.922C245.662 84.9371 245.486 85.0024 245.337 85.1106L230.674 93.5866C230.281 93.8418 229.965 94.2003 229.761 94.6229C229.557 95.0455 229.473 95.516 229.518 95.9832L231.535 110.131C231.538 110.315 231.591 110.495 231.689 110.651C231.787 110.807 231.926 110.933 232.09 111.016C232.255 111.098 232.439 111.134 232.622 111.119C232.805 111.104 232.981 111.038 233.13 110.93L247.825 102.43C248.211 102.174 248.519 101.816 248.716 101.396C248.913 100.977 248.991 100.511 248.942 100.049Z" fill="#EBEBEB"/>
<path d="M108.94 150.97L106.922 136.829C106.922 136.644 106.871 136.462 106.773 136.305C106.676 136.147 106.537 136.019 106.371 135.936C106.206 135.853 106.02 135.818 105.836 135.835C105.652 135.852 105.476 135.919 105.328 136.031L90.664 144.507C90.2695 144.761 89.9528 145.119 89.7488 145.542C89.5447 145.965 89.4614 146.436 89.5078 146.903L91.5411 161.051C91.5411 161.237 91.5927 161.419 91.69 161.576C91.7873 161.734 91.9265 161.861 92.0921 161.944C92.2576 162.027 92.443 162.062 92.6273 162.046C92.8117 162.029 92.9878 161.961 93.1359 161.85L107.799 153.366C108.192 153.112 108.507 152.753 108.708 152.33C108.909 151.906 108.99 151.436 108.94 150.97Z" fill="#FFBD12"/>
<path d="M131.617 137.884L129.599 123.744C129.599 123.559 129.548 123.377 129.451 123.219C129.353 123.061 129.214 122.934 129.049 122.851C128.883 122.768 128.698 122.733 128.513 122.749C128.329 122.766 128.153 122.834 128.005 122.945L113.341 131.429C112.945 131.682 112.628 132.04 112.423 132.463C112.219 132.886 112.137 133.358 112.185 133.826L114.202 147.966C114.202 148.151 114.254 148.333 114.351 148.491C114.448 148.649 114.588 148.776 114.753 148.859C114.919 148.942 115.104 148.977 115.289 148.96C115.473 148.944 115.649 148.876 115.797 148.765L130.461 140.281C130.856 140.028 131.174 139.67 131.378 139.247C131.583 138.824 131.665 138.352 131.617 137.884Z" fill="#EBEBEB"/>
<path d="M154.294 124.775L152.277 110.627C152.277 110.441 152.225 110.259 152.128 110.102C152.03 109.944 151.891 109.816 151.726 109.733C151.56 109.65 151.375 109.615 151.19 109.632C151.006 109.649 150.83 109.716 150.682 109.828L136.018 118.312C135.623 118.564 135.305 118.922 135.101 119.346C134.896 119.769 134.814 120.241 134.862 120.708L136.879 134.848C136.879 135.034 136.931 135.216 137.028 135.373C137.126 135.531 137.265 135.659 137.43 135.741C137.596 135.824 137.781 135.86 137.966 135.843C138.15 135.826 138.326 135.758 138.474 135.647L153.138 127.171C153.532 126.917 153.849 126.559 154.053 126.136C154.257 125.713 154.34 125.242 154.294 124.775Z" fill="#EBEBEB"/>
<path d="M176.971 111.673L174.954 97.525C174.954 97.3396 174.902 97.1578 174.805 97.0001C174.708 96.8423 174.568 96.7148 174.403 96.6319C174.237 96.549 174.052 96.5138 173.868 96.5305C173.683 96.5471 173.507 96.6149 173.359 96.7262L158.695 105.21C158.3 105.463 157.982 105.821 157.778 106.244C157.573 106.667 157.491 107.139 157.539 107.607L159.549 121.755C159.551 121.939 159.605 122.119 159.703 122.275C159.801 122.431 159.939 122.557 160.104 122.639C160.268 122.722 160.452 122.757 160.636 122.742C160.819 122.727 160.994 122.662 161.143 122.554L175.807 114.07C176.203 113.817 176.521 113.459 176.727 113.036C176.932 112.613 177.017 112.141 176.971 111.673Z" fill="#EBEBEB"/>
<path d="M199.648 98.5716L197.631 84.4236C197.631 84.2381 197.579 84.0563 197.482 83.8986C197.385 83.7408 197.245 83.6133 197.08 83.5304C196.914 83.4475 196.729 83.4124 196.545 83.429C196.36 83.4457 196.184 83.5134 196.036 83.6247L181.373 92.1087C180.977 92.3613 180.659 92.7193 180.455 93.1426C180.251 93.5658 180.168 94.0377 180.216 94.5053L182.226 108.653C182.229 108.838 182.282 109.017 182.38 109.173C182.478 109.329 182.617 109.456 182.781 109.538C182.946 109.62 183.129 109.656 183.313 109.641C183.496 109.626 183.672 109.56 183.821 109.452L198.484 100.968C198.881 100.716 199.2 100.358 199.405 99.9351C199.611 99.512 199.695 99.0399 199.648 98.5716Z" fill="#EBEBEB"/>
<path d="M222.309 85.4701L220.292 71.3221C220.292 71.1366 220.241 70.9548 220.143 70.7971C220.046 70.6393 219.907 70.5118 219.741 70.4289C219.576 70.346 219.39 70.3109 219.206 70.3275C219.022 70.3442 218.845 70.4119 218.697 70.5232L204.034 79.0072C203.639 79.2605 203.321 79.6185 203.117 80.0416C202.913 80.4648 202.83 80.9363 202.878 81.4038L204.895 95.5438C204.898 95.7281 204.951 95.908 205.049 96.064C205.147 96.2199 205.286 96.346 205.45 96.4284C205.615 96.5108 205.799 96.5464 205.982 96.5313C206.165 96.5162 206.341 96.451 206.49 96.3427L221.153 87.8587C221.547 87.6061 221.863 87.2493 222.068 86.8277C222.272 86.4062 222.355 85.9363 222.309 85.4701Z" fill="#EBEBEB"/>
<path d="M245.003 72.3766L242.985 58.2286C242.985 58.0431 242.934 57.8613 242.836 57.7036C242.739 57.5458 242.6 57.4183 242.434 57.3354C242.269 57.2525 242.083 57.2174 241.899 57.234C241.715 57.2507 241.539 57.3184 241.39 57.4297L226.727 65.9137C226.332 66.167 226.015 66.525 225.81 66.9482C225.606 67.3713 225.523 67.8428 225.571 68.3103L227.58 82.4583C227.583 82.6426 227.636 82.8225 227.734 82.9785C227.832 83.1344 227.971 83.2605 228.135 83.3429C228.3 83.4253 228.484 83.4609 228.667 83.4458C228.85 83.4307 229.026 83.3654 229.175 83.2572L243.838 74.7732C244.235 74.521 244.554 74.1633 244.759 73.7401C244.965 73.317 245.049 72.8449 245.003 72.3766Z" fill="#EBEBEB"/>
<path d="M105.455 125.965L104.945 122.354C104.945 122.169 104.893 121.987 104.796 121.829C104.699 121.671 104.559 121.544 104.394 121.461C104.228 121.378 104.043 121.343 103.859 121.359C103.674 121.376 103.498 121.444 103.35 121.555L88.6786 130.055C88.2835 130.308 87.9662 130.666 87.7621 131.09C87.558 131.513 87.475 131.984 87.5224 132.452L88.0247 136.063C88.0276 136.247 88.0809 136.427 88.1788 136.583C88.2767 136.739 88.4155 136.865 88.58 136.947C88.7445 137.03 88.9284 137.065 89.1117 137.05C89.295 137.035 89.4706 136.97 89.6195 136.861L104.299 128.346C104.69 128.092 105.004 127.736 105.207 127.316C105.411 126.897 105.497 126.43 105.455 125.965Z" fill="#E6E6E6"/>
<path d="M128.132 112.863L127.622 109.252C127.622 109.067 127.57 108.885 127.473 108.728C127.376 108.57 127.237 108.442 127.071 108.359C126.905 108.276 126.72 108.241 126.536 108.258C126.351 108.275 126.175 108.342 126.027 108.454L111.356 116.954C110.961 117.207 110.643 117.565 110.439 117.988C110.235 118.411 110.152 118.883 110.2 119.35L110.702 122.961C110.705 123.145 110.758 123.325 110.856 123.481C110.954 123.637 111.093 123.763 111.257 123.846C111.422 123.928 111.606 123.964 111.789 123.949C111.972 123.933 112.148 123.868 112.297 123.76L126.968 115.276C127.365 115.02 127.684 114.66 127.89 114.234C128.095 113.808 128.179 113.334 128.132 112.863Z" fill="#E6E6E6"/>
<path d="M150.809 99.7619L150.299 96.151C150.296 95.9667 150.243 95.7868 150.145 95.6309C150.047 95.4749 149.908 95.3488 149.744 95.2664C149.579 95.184 149.395 95.1484 149.212 95.1635C149.029 95.1786 148.853 95.2439 148.704 95.3521L134.033 103.852C133.638 104.105 133.32 104.463 133.116 104.887C132.912 105.31 132.829 105.781 132.877 106.249L133.379 109.86C133.379 110.045 133.431 110.227 133.528 110.385C133.625 110.542 133.764 110.67 133.93 110.753C134.096 110.836 134.281 110.871 134.465 110.854C134.65 110.838 134.826 110.77 134.974 110.658L149.645 102.174C150.043 101.919 150.362 101.558 150.567 101.133C150.772 100.707 150.856 100.232 150.809 99.7619Z" fill="#E6E6E6"/>
<path d="M173.487 86.6684L172.976 83.0495C172.973 82.8653 172.92 82.6853 172.822 82.5294C172.724 82.3734 172.586 82.2473 172.421 82.1649C172.257 82.0825 172.073 82.0469 171.889 82.062C171.706 82.0772 171.53 82.1424 171.382 82.2506L156.71 90.7506C156.315 91.0039 155.998 91.362 155.794 91.7851C155.589 92.2082 155.506 92.6797 155.554 93.1472L156.056 96.7581C156.056 96.9436 156.108 97.1254 156.205 97.2831C156.302 97.4409 156.442 97.5684 156.607 97.6513C156.773 97.7342 156.958 97.7693 157.142 97.7527C157.327 97.736 157.503 97.6683 157.651 97.557L172.322 89.081C172.718 88.8242 173.036 88.4634 173.242 88.038C173.447 87.6125 173.532 87.1388 173.487 86.6684Z" fill="#E6E6E6"/>
<path d="M196.164 73.5669L195.653 69.948C195.651 69.7638 195.597 69.5839 195.499 69.4279C195.401 69.2719 195.263 69.1458 195.098 69.0634C194.934 68.981 194.75 68.9454 194.566 68.9606C194.383 68.9757 194.208 69.0409 194.059 69.1491L179.387 77.6491C178.993 77.903 178.676 78.2612 178.472 78.6842C178.268 79.1071 178.184 79.5783 178.231 80.0458L178.733 83.6566C178.733 83.8421 178.785 84.0239 178.882 84.1816C178.979 84.3394 179.119 84.4669 179.284 84.5498C179.45 84.6327 179.635 84.6678 179.819 84.6512C180.004 84.6345 180.18 84.5668 180.328 84.4555L195 75.9795C195.396 75.7227 195.713 75.3619 195.919 74.9365C196.124 74.511 196.209 74.0373 196.164 73.5669Z" fill="#E6E6E6"/>
<path d="M218.841 60.4654L218.331 56.8545C218.331 56.6691 218.279 56.4873 218.182 56.3295C218.084 56.1718 217.945 56.0443 217.78 55.9614C217.614 55.8784 217.429 55.8433 217.244 55.86C217.06 55.8766 216.884 55.9444 216.736 56.0556L202.064 64.5476C201.67 64.8016 201.353 65.1598 201.149 65.5827C200.945 66.0056 200.862 66.4768 200.908 66.9443L201.41 70.5631C201.413 70.7474 201.467 70.9273 201.564 71.0833C201.662 71.2393 201.801 71.3653 201.966 71.4477C202.13 71.5301 202.314 71.5657 202.497 71.5506C202.681 71.5355 202.856 71.4703 203.005 71.362L217.677 62.878C218.073 62.6219 218.392 62.2612 218.597 61.8356C218.802 61.41 218.887 60.9359 218.841 60.4654Z" fill="#E6E6E6"/>
<path d="M241.51 47.3639L241.008 43.753C241.008 43.5676 240.956 43.3858 240.859 43.228C240.762 43.0703 240.622 42.9428 240.457 42.8598C240.291 42.7769 240.106 42.7418 239.921 42.7585C239.737 42.7751 239.561 42.8429 239.413 42.9541L224.749 51.4382C224.354 51.6907 224.036 52.0487 223.832 52.472C223.627 52.8953 223.545 53.3671 223.593 53.8348L224.096 57.4457C224.098 57.6299 224.152 57.8098 224.25 57.9658C224.348 58.1218 224.486 58.2478 224.651 58.3303C224.815 58.4127 224.999 58.4482 225.182 58.4331C225.366 58.418 225.541 58.3528 225.69 58.2445L240.362 49.7605C240.755 49.5056 241.07 49.147 241.273 48.7241C241.475 48.3012 241.557 47.8306 241.51 47.3639Z" fill="#E6E6E6"/>
<path opacity="0.2" d="M88.3516 104.635C88.2795 103.579 88.497 102.524 88.9805 101.584C89.4639 100.643 90.195 99.8528 91.0946 99.2985C92.8807 98.268 94.5472 98.979 94.8263 100.896C94.9003 101.953 94.6828 103.01 94.1976 103.951C93.7124 104.892 92.9782 105.682 92.0753 106.233C90.2972 107.263 88.6307 106.552 88.3516 104.635Z" fill="black"/>
<path opacity="0.2" d="M111.053 91.5495C110.979 90.4937 111.195 89.4378 111.679 88.4969C112.163 87.5559 112.895 86.7659 113.796 86.213C115.582 85.1745 117.248 85.8855 117.527 87.8108C117.601 88.8663 117.383 89.9217 116.898 90.8615C116.413 91.8013 115.679 92.5893 114.776 93.1392C112.99 94.1378 111.324 93.4268 111.053 91.5495Z" fill="black"/>
<path opacity="0.2" d="M133.706 78.4081C133.632 77.3523 133.849 76.2964 134.332 75.3554C134.816 74.4145 135.548 73.6245 136.449 73.0716C138.235 72.0331 139.909 72.7441 140.181 74.6694C140.254 75.724 140.037 76.7785 139.553 77.7181C139.07 78.6577 138.338 79.4462 137.438 79.9978C135.651 81.0284 133.977 80.3174 133.706 78.4081Z" fill="black"/>
<path opacity="0.2" d="M179.044 52.1811C178.97 51.1253 179.187 50.0694 179.671 49.1285C180.154 48.1875 180.886 47.3976 181.787 46.8446C183.573 45.8141 185.24 46.5251 185.511 48.4424C185.588 49.4987 185.373 50.5559 184.889 51.4975C184.405 52.4391 183.671 53.2286 182.768 53.7788C180.982 54.8014 179.315 54.0984 179.044 52.1811Z" fill="black"/>
<path opacity="0.2" d="M201.737 39.0637C201.662 38.0076 201.878 36.9511 202.361 36.0098C202.845 35.0685 203.578 34.2788 204.48 33.7272C206.266 32.6887 207.933 33.3997 208.212 35.325C208.286 36.3817 208.068 37.4384 207.583 38.3796C207.098 39.3208 206.364 40.1102 205.461 40.6614C203.675 41.684 202.008 40.973 201.737 39.0637Z" fill="black"/>
<path opacity="0.2" d="M224.391 25.9542C224.317 24.8984 224.533 23.8425 225.017 22.9016C225.501 21.9606 226.233 21.1706 227.133 20.6177C228.92 19.5792 230.594 20.2902 230.865 22.2155C230.939 23.2701 230.721 24.3246 230.238 25.2642C229.754 26.2038 229.022 26.9923 228.122 27.5439C226.296 28.5745 224.702 27.8635 224.391 25.9542Z" fill="black"/>
<path d="M86.0074 83.0495C83.6153 81.6515 81.271 81.4517 79.4849 82.4823C77.6988 83.5128 76.7101 85.6219 76.7101 88.4259C76.7256 89.7375 76.9188 91.0409 77.2842 92.3004L78.7035 91.5016C78.4487 90.5014 78.3148 89.4741 78.3048 88.4419C78.3048 86.237 79.0065 84.6153 80.2823 83.8803C80.8057 83.5875 81.3972 83.4386 81.9966 83.4489C83.1275 83.503 84.2257 83.8468 85.1861 84.4475C89.4281 86.908 92.8807 92.8996 92.8807 97.8046C92.883 98.1543 92.8644 98.5038 92.8249 98.8512C92.8053 99.5468 92.6218 100.228 92.2892 100.839C91.9566 101.45 91.4844 101.973 90.9112 102.366C90.1802 102.762 89.3368 102.897 88.5191 102.75C88.3581 103.266 88.2906 103.807 88.3198 104.347C88.6178 104.395 88.919 104.419 89.2208 104.419C90.0989 104.43 90.9638 104.204 91.7245 103.764C92.4364 103.317 93.0398 102.716 93.4908 102.006C93.9419 101.296 94.2292 100.494 94.3319 99.658C94.4393 99.0515 94.4927 98.4366 94.4914 97.8206C94.4993 92.3484 90.6879 85.7577 86.0074 83.0495Z" fill="#F5F5F5"/>
<path d="M108.7 69.932C106.308 68.534 103.964 68.3343 102.178 69.3648C100.392 70.3954 99.4032 72.5044 99.4032 75.3084C99.4187 76.62 99.6118 77.9234 99.9773 79.183L101.397 78.3841C101.142 77.3839 101.008 76.3566 100.998 75.3244C100.998 73.1195 101.7 71.4978 102.975 70.7629C103.499 70.47 104.09 70.3212 104.69 70.3315C105.821 70.3855 106.919 70.7294 107.879 71.3301C112.121 73.7906 115.574 79.7821 115.574 84.6872C115.576 85.0368 115.557 85.3863 115.518 85.7337C115.498 86.4293 115.315 87.1104 114.982 87.7214C114.65 88.3323 114.177 88.8557 113.604 89.2487C112.873 89.6443 112.03 89.7795 111.212 89.6322C111.051 90.1486 110.984 90.6897 111.013 91.23C111.311 91.2774 111.612 91.3014 111.914 91.3019C112.792 91.3128 113.657 91.0865 114.418 90.6468C115.129 90.1995 115.733 89.5989 116.184 88.8885C116.635 88.1782 116.922 87.3761 117.025 86.5406C117.132 85.9341 117.186 85.3192 117.184 84.7032C117.192 79.2549 113.381 72.6402 108.7 69.932Z" fill="#F5F5F5"/>
<path d="M131.354 56.8226C128.962 55.4246 126.617 55.2248 124.831 56.2554C123.045 57.2859 122.056 59.3949 122.056 62.199C122.072 63.5106 122.265 64.814 122.63 66.0735L124.05 65.2746C123.795 64.2744 123.661 63.2472 123.651 62.215C123.651 60.0101 124.353 58.3884 125.629 57.6534C126.152 57.3606 126.743 57.2117 127.343 57.222C128.474 57.2761 129.572 57.6199 130.532 58.2206C134.774 60.6811 138.227 66.6727 138.227 71.5777C138.229 71.9274 138.211 72.2768 138.171 72.6242C138.152 73.3199 137.968 74.001 137.635 74.6119C137.303 75.2228 136.831 75.7462 136.257 76.1393C135.526 76.5349 134.683 76.67 133.865 76.5227C133.704 77.0392 133.637 77.5803 133.666 78.1205C133.964 78.1679 134.265 78.1919 134.567 78.1924C135.445 78.2033 136.31 77.9771 137.071 77.5373C137.783 77.09 138.386 76.4894 138.837 75.7791C139.288 75.0688 139.575 74.2667 139.678 73.4311C139.786 72.8246 139.839 72.2097 139.838 71.5937C139.846 66.1454 136.034 59.5308 131.354 56.8226Z" fill="#F5F5F5"/>
<path d="M176.7 30.6356C174.308 29.2376 171.964 29.0378 170.178 30.0684C168.391 31.0989 167.403 33.2079 167.403 36.012C167.418 37.3236 167.611 38.627 167.977 39.8865L169.396 39.0876C169.141 38.0874 169.007 37.0602 168.997 36.028C168.997 33.8231 169.699 32.2014 170.975 31.4664C171.498 31.1736 172.09 31.0247 172.689 31.035C173.82 31.0891 174.918 31.4329 175.879 32.0336C180.121 34.4941 183.573 40.4857 183.573 45.3907C183.576 45.7404 183.557 46.0899 183.517 46.4373C183.498 47.1329 183.314 47.814 182.982 48.4249C182.649 49.0358 182.177 49.5592 181.604 49.9523C180.873 50.3478 180.029 50.483 179.212 50.3357C179.051 50.8522 178.983 51.3933 179.012 51.9335C179.31 51.9809 179.612 52.005 179.913 52.0054C180.792 52.0163 181.656 51.7901 182.417 51.3503C183.129 50.903 183.732 50.3024 184.183 49.5921C184.634 48.8818 184.922 48.0797 185.024 47.2441C185.132 46.6376 185.185 46.0227 185.184 45.4067C185.192 39.9584 181.381 33.3438 176.7 30.6356Z" fill="#F5F5F5"/>
<path d="M199.393 17.5101C197.001 16.1121 194.657 15.9124 192.871 16.9429C191.084 17.9734 190.096 20.0825 190.096 22.8865C190.111 24.1981 190.304 25.5015 190.67 26.761L192.089 25.9622C191.834 24.962 191.701 23.9347 191.69 22.9025C191.69 20.6976 192.392 19.0759 193.668 18.3409C194.191 18.0481 194.783 17.8992 195.382 17.9095C196.513 17.9636 197.611 18.3074 198.572 18.9081C202.814 21.3686 206.266 27.3602 206.266 32.2652C206.269 32.6149 206.25 32.9644 206.211 33.3118C206.191 34.0074 206.007 34.6885 205.675 35.2994C205.342 35.9104 204.87 36.4337 204.297 36.8268C203.566 37.2224 202.722 37.3576 201.905 37.2103C201.744 37.7267 201.676 38.2678 201.705 38.808C202.003 38.8554 202.305 38.8795 202.606 38.8799C203.485 38.8909 204.35 38.6646 205.11 38.2248C205.822 37.7775 206.425 37.1769 206.877 36.4666C207.328 35.7563 207.615 34.9542 207.718 34.1186C207.825 33.5121 207.878 32.8972 207.877 32.2812C207.885 26.8409 204.074 20.2183 199.393 17.5101Z" fill="#F5F5F5"/>
<path d="M222.046 4.40066C219.654 3.00263 217.31 2.80291 215.524 3.83346C213.738 4.864 212.741 6.97302 212.741 9.77706C212.757 11.0886 212.95 12.392 213.315 13.6516L214.734 12.8527C214.48 11.8525 214.346 10.8253 214.336 9.79304C214.336 7.58815 215.037 5.96644 216.313 5.23148C216.837 4.93863 217.428 4.7898 218.028 4.80009C219.158 4.85414 220.257 5.19796 221.217 5.79868C225.459 8.2592 228.912 14.2507 228.912 19.1558C228.914 19.5055 228.895 19.8549 228.856 20.2023C228.836 20.898 228.653 21.5791 228.32 22.19C227.988 22.8009 227.515 23.3243 226.942 23.7174C226.211 24.1129 225.368 24.2481 224.55 24.1008C224.389 24.6172 224.322 25.1583 224.351 25.6986C224.649 25.746 224.95 25.77 225.252 25.7705C226.13 25.7814 226.995 25.5551 227.755 25.1154C228.467 24.6681 229.071 24.0675 229.522 23.3572C229.973 22.6469 230.26 21.8447 230.363 21.0092C230.47 20.4027 230.524 19.7878 230.522 19.1718C230.538 13.7235 226.727 7.10883 222.046 4.40066Z" fill="#F5F5F5"/>
<path d="M245.608 212.179L240.25 221.502C239.898 222.085 239.791 222.783 239.954 223.445C240.116 224.106 240.534 224.676 241.115 225.029C241.697 225.382 242.394 225.489 243.055 225.326C243.715 225.163 244.284 224.745 244.636 224.162L250.026 214.783C250.544 213.889 249.986 212.587 248.774 211.884C247.562 211.18 246.127 211.308 245.608 212.179Z" fill="#455A64"/>
<path d="M288.252 195.762L297.557 201.131C297.843 201.308 298.161 201.427 298.494 201.48C298.826 201.532 299.165 201.519 299.492 201.439C299.819 201.359 300.127 201.215 300.397 201.015C300.668 200.814 300.896 200.562 301.069 200.273C301.241 199.984 301.354 199.663 301.402 199.329C301.449 198.995 301.43 198.656 301.345 198.329C301.26 198.003 301.111 197.697 300.907 197.429C300.703 197.162 300.448 196.937 300.156 196.769L290.795 191.408C289.902 190.889 288.603 191.448 287.901 192.663C287.199 193.877 287.359 195.243 288.252 195.762Z" fill="#455A64"/>
<path d="M298.562 153.734H298.514L275.845 140.624H275.781C270.805 137.788 263.948 138.228 256.381 142.589C241.175 151.377 228.848 172.779 228.848 190.37C228.848 199.157 231.918 205.301 236.869 208.193H236.909L259.578 221.31H259.634C264.61 224.162 271.475 223.707 279.05 219.353C294.248 210.565 306.575 189.164 306.575 171.58C306.575 162.793 303.513 156.626 298.562 153.734Z" fill="#FFBD12"/>
<path opacity="0.1" d="M259.212 221.047L236.885 208.153H236.837C231.886 205.253 228.824 199.086 228.824 190.33C228.824 182.485 231.28 173.889 235.338 165.996L258.008 179.106C253.941 186.999 251.493 195.595 251.493 203.439C251.509 211.987 254.443 218.075 259.212 221.047Z" fill="black"/>
<path opacity="0.4" d="M298.516 198.74C309.268 180.082 309.268 159.916 298.517 153.697C287.766 147.478 270.335 157.562 259.583 176.22C248.831 194.877 248.831 215.044 259.582 221.263C270.333 227.481 287.764 217.398 298.516 198.74Z" fill="white"/>
<path d="M266.747 217.508C258.039 217.508 257.099 207.649 257.099 203.407C257.099 187.893 268.429 168.257 281.817 160.476C285.23 158.503 288.515 157.464 291.322 157.464C300.029 157.464 300.97 167.322 300.97 171.564C300.97 187.079 289.639 206.715 276.251 214.496C272.831 216.469 269.545 217.508 266.747 217.508Z" fill="#FAFAFA"/>
<path d="M272.942 205.461C272.9 205.468 272.857 205.468 272.815 205.461C272.715 205.424 272.634 205.351 272.587 205.255C272.541 205.16 272.534 205.05 272.567 204.949L278.667 187.494C278.702 187.393 278.776 187.311 278.871 187.264C278.967 187.218 279.077 187.211 279.178 187.246C279.278 187.281 279.361 187.355 279.407 187.451C279.453 187.547 279.46 187.657 279.425 187.758L273.341 205.189C273.314 205.272 273.261 205.344 273.188 205.394C273.116 205.443 273.029 205.466 272.942 205.461Z" fill="#FFBD12"/>
<path d="M288.188 192.759C288.026 192.761 287.865 192.729 287.717 192.663L277.854 188.389V170.462C277.854 170.144 277.98 169.839 278.204 169.615C278.429 169.39 278.733 169.264 279.05 169.264C279.367 169.264 279.672 169.39 279.896 169.615C280.12 169.839 280.246 170.144 280.246 170.462V186.815L288.666 190.466C288.916 190.577 289.12 190.771 289.244 191.015C289.369 191.258 289.406 191.537 289.35 191.805C289.294 192.073 289.148 192.314 288.937 192.488C288.726 192.661 288.461 192.757 288.188 192.759Z" fill="#37474F"/>
<path d="M279.05 183.739C280.836 182.701 282.287 183.54 282.287 185.609C282.221 186.729 281.894 187.819 281.331 188.79C280.769 189.761 279.988 190.587 279.05 191.201C277.256 192.239 275.805 191.4 275.805 189.323C275.873 188.203 276.203 187.115 276.766 186.145C277.33 185.176 278.112 184.352 279.05 183.739Z" fill="#FFBD12"/>
<path d="M252.705 170.877C248.798 177.644 241.438 180.712 235.905 177.508C232.658 175.628 230.291 172.532 229.323 168.903C228.354 165.274 228.865 161.408 230.742 158.155C232.618 154.903 235.708 152.531 239.33 151.561C242.953 150.591 246.812 151.102 250.058 152.983C255.576 156.258 256.596 164.103 252.705 170.877Z" fill="#455A64"/>
<path d="M235.905 177.508C241.438 180.704 248.798 177.644 252.705 170.877C253.578 169.361 254.225 167.724 254.627 166.02C254.403 166.316 247.897 174.624 239.812 172.283C231.583 169.887 230.036 163.552 230.746 158.151C229.815 159.762 229.211 161.54 228.967 163.384C228.723 165.228 228.843 167.103 229.323 168.901C229.802 170.698 230.63 172.383 231.759 173.86C232.888 175.337 234.297 176.577 235.905 177.508Z" fill="#37474F"/>
<path d="M233.632 156.777L229.438 154.381C229.152 154.203 228.833 154.085 228.501 154.032C228.169 153.979 227.83 153.993 227.503 154.073C227.176 154.152 226.868 154.297 226.598 154.497C226.327 154.697 226.099 154.949 225.926 155.238C225.754 155.528 225.64 155.849 225.593 156.182C225.546 156.516 225.565 156.856 225.65 157.182C225.735 157.508 225.883 157.814 226.088 158.082C226.292 158.35 226.547 158.574 226.838 158.743L231.08 161.203C231.982 161.722 233.281 161.163 233.983 159.949C234.685 158.735 234.525 157.297 233.632 156.777Z" fill="#FFBD12"/>
<path d="M296.194 136.51L298.586 132.316C298.763 132.029 298.881 131.71 298.934 131.377C298.987 131.045 298.973 130.705 298.893 130.377C298.813 130.05 298.67 129.741 298.47 129.47C298.27 129.199 298.018 128.97 297.73 128.798C297.441 128.625 297.12 128.511 296.787 128.464C296.454 128.416 296.115 128.436 295.79 128.521C295.464 128.606 295.159 128.755 294.891 128.959C294.624 129.164 294.4 129.419 294.232 129.712L291.776 133.962C291.258 134.856 291.776 136.159 293.028 136.862C294.28 137.565 295.667 137.413 296.194 136.51Z" fill="#FFBD12"/>
<path d="M275.932 138.244C276.862 136.631 278.099 135.217 279.574 134.083C281.048 132.949 282.732 132.117 284.527 131.635C286.323 131.153 288.195 131.03 290.038 131.273C291.881 131.516 293.659 132.12 295.269 133.051C296.879 133.982 298.29 135.222 299.421 136.699C300.553 138.176 301.383 139.863 301.865 141.662C302.346 143.461 302.469 145.337 302.226 147.183C301.984 149.03 301.381 150.811 300.451 152.423L275.932 138.244Z" fill="#455A64"/>
<path d="M297.342 134.561C298.139 136.23 300.308 143.3 297.342 145.058C294.375 146.815 280.677 140.984 280.677 140.984L300.451 152.424C302.098 149.551 302.689 146.192 302.121 142.929C301.553 139.665 299.862 136.705 297.342 134.561Z" fill="#37474F"/>
<path d="M207.853 175.04C193.74 156.034 189.099 153.917 186.444 153.27L191.1 166.052L200.78 178.491" fill="#FFA8A7"/>
<path d="M185.064 153.063C185.064 153.063 188.062 152.152 192.4 156.41C196.738 160.668 201.969 166.875 201.969 166.875C201.969 166.875 200.557 171.948 196.148 173.522L189.769 166.875L185.064 153.063Z" fill="#FFBD12"/>
<path opacity="0.1" d="M185.064 153.063C185.064 153.063 188.062 152.152 192.4 156.41C196.738 160.668 201.969 166.875 201.969 166.875C201.969 166.875 200.557 171.948 196.148 173.522L189.769 166.875L185.064 153.063Z" fill="black"/>
<path d="M187.812 142.547C192.167 141.517 194.864 137.146 193.836 132.783C192.808 128.42 188.445 125.718 184.091 126.748C179.736 127.778 177.039 132.149 178.067 136.512C179.095 140.875 183.458 143.577 187.812 142.547Z" fill="#263238"/>
<path d="M166.557 281.777H172.267V271.991H166.557V281.777Z" fill="#FFA8A7"/>
<path d="M185.168 274.667L190.869 274.866L191.156 264.505L185.447 264.305L185.168 274.667Z" fill="#FFA8A7"/>
<path d="M166.924 194.396V233.948C166.789 235.546 165.633 238.238 165.33 244.925C164.947 253.129 166.199 275.705 166.199 275.705C166.199 275.705 168.87 278.366 172.649 275.705C172.649 275.705 177.713 243.479 178.741 235.354C179.634 228.26 181.133 208.992 181.133 208.992L184.546 238.015C184.546 238.015 183.613 243.343 183.414 247.098C183.214 250.852 185.056 270.928 185.056 270.928C185.981 271.507 187.042 271.833 188.131 271.873C189.221 271.914 190.303 271.668 191.268 271.16C191.268 271.16 195.175 241.082 195.765 237.687C196.355 234.292 193.62 194.388 193.62 194.388L166.924 194.396Z" fill="#37474F"/>
<path d="M172.41 154.892C171.611 155.003 170.823 155.187 170.058 155.443C168.463 156.058 167.769 157.992 167.395 159.693C167.081 161.12 166.923 162.578 166.924 164.039V194.396C170.911 198.758 184.881 200.787 193.62 194.396C193.62 194.396 193.453 167.586 192.823 163.176C191.683 155.523 188.039 152.791 184.355 153.079L175.544 154.341L172.41 154.892Z" fill="#FFBD12"/>
<path d="M171.948 140.408C171.948 140.408 173.263 146.584 173.79 147.598C174.137 148.221 174.707 148.689 175.384 148.908L175.289 144.555L171.948 140.408Z" fill="#263238"/>
<path d="M173.598 131.549C173.139 131.497 172.673 131.549 172.237 131.703C171.8 131.856 171.404 132.107 171.079 132.436C170.002 133.546 170.608 137.013 171.948 140.424L174.427 140.704L173.598 131.549Z" fill="#263238"/>
<path d="M175.169 140.688C174.667 140.992 173.965 140.033 173.351 139.394C172.737 138.755 170.744 137.876 169.747 139.977C168.75 142.078 170.624 144.954 172.195 145.449C174.906 146.296 175.313 144.555 175.313 144.555L175.52 154.349C176.118 155.662 177.032 156.807 178.18 157.679C179.328 158.552 180.674 159.126 182.098 159.35C186.882 159.997 185.91 156.034 184.331 154.085V151.105C185.538 151.3 186.762 151.364 187.983 151.297C189.976 150.986 191.228 149.412 191.834 147.255C192.807 143.78 193.174 140.984 192.352 134.153C191.443 126.676 182.784 126.596 178.071 129.552C173.359 132.508 175.169 140.688 175.169 140.688Z" fill="#FFA8A7"/>
<path d="M175.169 141.527C174.914 141.527 173.965 139.929 173.351 139.394C172.498 138.595 173.598 131.549 173.598 131.549C173.37 130.941 173.324 130.279 173.465 129.644C173.607 129.01 173.93 128.431 174.396 127.978C175.56 126.684 177.521 126.548 180.862 126.021C182.616 125.741 185.28 125.222 187.034 124.926C189.123 124.535 190.853 124.127 192.328 125.406C192.91 125.906 193.322 126.576 193.506 127.322C193.69 128.068 193.638 128.853 193.357 129.568C193.205 129.895 193.003 130.197 192.759 130.463C192.336 130.934 192.265 131.573 191.667 131.765C191.667 131.765 190.399 132.915 187.225 133.299C184.303 133.517 181.366 133.461 178.454 133.131C177.529 133.003 177.282 133.299 176.788 135.735C176.365 137.884 176.006 141.511 175.169 141.527Z" fill="#263238"/>
<path d="M173.606 132.1L170.608 130.502C170.703 130.3 170.838 130.119 171.005 129.97C171.172 129.822 171.367 129.709 171.579 129.639C171.791 129.569 172.015 129.542 172.237 129.562C172.46 129.581 172.676 129.646 172.873 129.752C173.27 129.976 173.567 130.344 173.704 130.78C173.84 131.217 173.805 131.689 173.606 132.1Z" fill="#263238"/>
<path d="M184.323 151.105C184.323 151.105 179.881 150.211 178.327 149.38C177.412 148.905 176.661 148.164 176.174 147.255C176.411 148.164 176.825 149.016 177.394 149.763C178.534 151.217 184.323 152.296 184.323 152.296V151.105Z" fill="#F28F8F"/>
<path d="M183.541 140.393C183.535 140.568 183.477 140.738 183.376 140.881C183.274 141.023 183.132 141.133 182.969 141.196C182.805 141.259 182.626 141.272 182.455 141.234C182.284 141.196 182.128 141.108 182.006 140.982C181.885 140.856 181.803 140.696 181.771 140.524C181.739 140.351 181.758 140.173 181.827 140.011C181.895 139.85 182.01 139.712 182.156 139.615C182.302 139.518 182.473 139.466 182.648 139.466C182.768 139.467 182.886 139.492 182.996 139.539C183.106 139.586 183.206 139.655 183.289 139.741C183.372 139.828 183.437 139.93 183.481 140.042C183.524 140.153 183.545 140.273 183.541 140.393Z" fill="#263238"/>
<path d="M182.593 137.029L180.687 138.076C180.553 137.814 180.525 137.51 180.608 137.228C180.691 136.945 180.879 136.706 181.133 136.558C181.259 136.49 181.398 136.448 181.541 136.434C181.683 136.421 181.827 136.437 181.963 136.481C182.1 136.525 182.226 136.596 182.334 136.691C182.442 136.785 182.53 136.9 182.593 137.029Z" fill="#263238"/>
<path d="M183.924 145.745L185.957 146.544C185.914 146.681 185.843 146.807 185.749 146.915C185.655 147.024 185.54 147.112 185.411 147.175C185.282 147.238 185.142 147.273 184.999 147.28C184.855 147.287 184.712 147.265 184.578 147.215C184.438 147.163 184.309 147.083 184.2 146.98C184.091 146.878 184.004 146.754 183.943 146.618C183.882 146.481 183.849 146.333 183.846 146.183C183.842 146.033 183.869 145.884 183.924 145.745Z" fill="#F28F8F"/>
<path d="M191.483 137.772L189.745 136.43C189.826 136.312 189.931 136.211 190.053 136.135C190.175 136.059 190.311 136.008 190.452 135.986C190.594 135.965 190.739 135.972 190.878 136.009C191.017 136.045 191.147 136.11 191.26 136.198C191.492 136.382 191.645 136.647 191.686 136.94C191.728 137.234 191.655 137.531 191.483 137.772Z" fill="#263238"/>
<path d="M190.949 140.145C190.951 140.264 190.93 140.383 190.886 140.493C190.842 140.604 190.777 140.705 190.694 140.791C190.611 140.876 190.511 140.944 190.402 140.991C190.293 141.038 190.175 141.063 190.056 141.064C189.871 141.07 189.689 141.021 189.533 140.923C189.376 140.824 189.253 140.681 189.178 140.512C189.103 140.343 189.081 140.156 189.114 139.973C189.146 139.791 189.233 139.623 189.361 139.491C189.49 139.358 189.656 139.267 189.836 139.23C190.017 139.192 190.205 139.21 190.376 139.28C190.547 139.351 190.692 139.471 190.794 139.625C190.897 139.779 190.95 139.96 190.949 140.145Z" fill="#263238"/>
<path d="M186.125 138.475L186.42 143.844L189.219 142.893L186.125 138.475Z" fill="#F28F8F"/>
<path d="M172.259 278.957V278.158C172.809 278.39 174.077 283.247 176.341 285.348C178.143 286.993 180.599 288.887 181.221 290.724C181.843 292.562 177.8 293.688 176.118 293.384C174.164 293.041 170.776 291.659 169.93 290.381C169.085 289.102 168.678 287.185 167.985 286.282C167.291 285.38 165.704 284.301 165.329 283.215C165.216 282.202 165.328 281.176 165.656 280.211C165.92 279.204 166.207 278.094 166.549 278.19C166.549 278.31 166.549 278.813 166.549 278.813C167.365 279.448 168.371 279.789 169.404 279.78C170.241 279.764 172.267 279.596 172.259 278.957Z" fill="#263238"/>
<path d="M190.925 273.101C191.228 273.101 191.467 273.532 192.121 274.243C193.1 275.223 194.234 276.033 195.478 276.64C197.615 277.718 201.769 279.364 203.651 280.211C204.823 280.746 204.767 282.168 203.555 282.975C202.343 283.782 199.409 284.365 195.893 283.574C193.971 283.151 191.475 281.369 189.896 281.465C188.318 281.561 185.359 281.545 184.195 280.738C183.031 279.931 183.494 278.214 183.82 276.744C184.179 275.146 184.698 272.662 185.232 272.749V273.261C185.926 274.299 189.418 274.723 190.925 273.964V273.101Z" fill="#263238"/>
<path d="M181.133 208.984C184.093 208.068 186.816 206.511 189.107 204.422C189.107 204.422 187.576 207.298 183.015 209.974L183.111 225.56L181.133 208.984Z" fill="#263238"/>
<path d="M170.313 208.744C169.372 207.945 168.782 206.915 167.363 205.868C166.335 205.231 165.473 204.358 164.851 203.32C164.054 201.977 163.256 197.504 163.017 193.254C162.875 188.508 163.541 183.772 164.987 179.25C166.924 173.889 170.855 166.699 172.163 163.664C173.471 160.628 172.769 159.102 171.597 157.56C170.225 155.755 167.682 155.747 165.282 159.861C162.084 165.58 159.533 171.638 157.675 177.923C156.422 182.626 155.956 187.504 156.295 192.359C156.558 196.857 157.539 200.292 158.799 204.614C159.15 205.788 159.11 206.747 159.509 209.071C159.613 210.043 159.86 210.993 160.242 211.891C160.783 212.971 161.473 213.969 162.292 214.855C163.329 215.981 164.647 216.808 166.111 217.252C166.915 217.492 167.765 217.539 168.591 217.388C169.421 217.238 170.17 216.796 170.704 216.141C170.815 216.011 170.892 215.854 170.927 215.686C170.924 215.388 170.807 215.102 170.6 214.887C169.467 213.558 168.403 212.171 167.411 210.733C166.677 209.495 166.326 208.512 166.613 208.568C166.9 208.624 167.275 209.367 168.344 210.038C169.412 210.709 170.736 210.685 171.047 210.086C171.358 209.487 171.278 209.559 170.313 208.744Z" fill="#FFA8A7"/>
<path d="M170.704 155.259C168.423 155.395 166.35 155.907 164.07 160.436C161.789 164.966 158.209 173.45 158.209 173.45C159.073 174.999 160.339 176.286 161.873 177.173C163.408 178.061 165.153 178.516 166.924 178.491C166.924 178.491 172.171 167.514 173.024 164.622C173.877 161.73 174.467 157.057 170.704 155.259Z" fill="#FFBD12"/>
<path opacity="0.1" d="M170.704 155.259C168.423 155.395 166.35 155.907 164.07 160.436C161.789 164.966 158.209 173.45 158.209 173.45C159.073 174.999 160.339 176.286 161.873 177.173C163.408 178.061 165.153 178.516 166.924 178.491C166.924 178.491 172.171 167.514 173.024 164.622C173.877 161.73 174.467 157.057 170.704 155.259Z" fill="black"/>
<path d="M200.78 178.491C200.262 180.009 195.287 184.634 191.627 186.104C190.76 186.403 189.828 186.459 188.932 186.264C188.074 185.903 187.151 185.723 186.221 185.736C185.152 185.832 184.068 186.04 182.991 186.168C182.767 186.175 182.547 186.229 182.345 186.328C181.691 186.687 182.066 187.238 182.585 187.438C183.42 187.74 184.275 187.983 185.144 188.165V188.397C182.917 189.177 180.594 189.644 178.239 189.787C177.82 189.791 177.415 189.931 177.083 190.186C176.947 190.338 176.853 190.521 176.807 190.72C176.761 190.918 176.765 191.125 176.82 191.321C176.931 191.709 177.121 192.071 177.378 192.383C178.339 193.84 179.834 194.859 181.54 195.219C183.264 195.351 184.997 195.134 186.635 194.58C187.427 194.356 188.209 194.109 188.979 193.837C191.236 193.005 193.434 192.02 195.558 190.889C200.106 188.498 204.324 185.525 208.108 182.046C210.405 179.801 209.839 177.644 207.909 175.04" fill="#FFA8A7"/>
<path d="M191.092 186.248C191.092 186.248 191.89 185.952 192.799 187.414C193.708 188.876 194.282 191.544 193.142 192.071C193.534 192.094 193.926 192.014 194.278 191.839C194.631 191.664 194.932 191.4 195.151 191.073C195.385 190.031 195.321 188.945 194.965 187.939C194.61 186.932 193.978 186.047 193.142 185.385C192.374 185.401 191.641 185.71 191.092 186.248Z" fill="#37474F"/>
<path d="M195.311 186.783C195.481 187.072 195.562 187.406 195.543 187.741C195.524 188.076 195.406 188.398 195.204 188.666C195.001 188.934 194.724 189.136 194.407 189.246C194.091 189.355 193.748 189.368 193.424 189.282C193.1 189.197 192.808 189.016 192.587 188.764C192.365 188.512 192.223 188.2 192.18 187.867C192.136 187.534 192.191 187.195 192.34 186.894C192.489 186.593 192.723 186.343 193.014 186.176C193.399 185.952 193.857 185.89 194.288 186.004C194.718 186.118 195.086 186.398 195.311 186.783Z" fill="#FFBD12"/>
<path d="M194.92 187.007C195.044 187.22 195.102 187.466 195.087 187.712C195.071 187.959 194.983 188.195 194.833 188.391C194.683 188.587 194.479 188.735 194.245 188.814C194.012 188.894 193.76 188.902 193.522 188.838C193.284 188.774 193.07 188.64 192.908 188.454C192.746 188.268 192.643 188.038 192.611 187.793C192.58 187.548 192.622 187.299 192.732 187.078C192.842 186.857 193.015 186.674 193.229 186.551C193.37 186.47 193.526 186.417 193.687 186.396C193.848 186.374 194.012 186.385 194.169 186.427C194.326 186.47 194.473 186.543 194.602 186.642C194.731 186.741 194.839 186.865 194.92 187.007Z" fill="#FAFAFA"/>
</svg>
