<svg width="343" height="312" viewBox="0 0 343 312" fill="none" xmlns="http://www.w3.org/2000/svg">
<path d="M50.2333 291.2C117.211 318.933 225.792 318.933 292.77 291.2C359.747 263.468 359.74 218.448 292.77 190.701C225.8 162.955 117.211 162.969 50.2333 190.701C-16.7444 218.434 -16.7444 263.468 50.2333 291.2Z" fill="#F5F5F5"/>
<path d="M287.399 253.434C309.465 253.434 327.353 245.679 327.353 236.112C327.353 226.545 309.465 218.79 287.399 218.79C265.333 218.79 247.446 226.545 247.446 236.112C247.446 245.679 265.333 253.434 287.399 253.434Z" fill="#E0E0E0"/>
<path d="M53.2508 262.472C75.3166 262.472 93.2045 254.717 93.2045 245.15C93.2045 235.583 75.3166 227.828 53.2508 227.828C31.185 227.828 13.2971 235.583 13.2971 245.15C13.2971 254.717 31.185 262.472 53.2508 262.472Z" fill="#E0E0E0"/>
<path d="M29.5099 241.481H36.8347V230.075H29.5099V241.481Z" fill="#B16668"/>
<path d="M59.4576 232.848L66.7824 233.076L67.1498 221.008L59.4576 220.781V232.848Z" fill="#B16668"/>
<path d="M31.6988 149.195C31.6988 155.552 32.0662 192.415 32.0662 192.415C31.8942 194.243 29.9633 197.499 29.807 204.091C29.5881 213.648 29.1973 235.785 29.1973 235.785C30.4624 236.349 31.848 236.654 33.2566 236.678C34.6652 236.703 36.0626 236.446 37.3506 235.927C37.3506 235.927 45.1131 204.447 46.4264 195.004C47.5677 186.741 49.5532 164.306 49.5532 164.306L55.1504 192.223C54.2906 195.695 53.9722 199.259 54.2045 202.811C54.5484 207.185 59.0042 229.122 59.0042 229.122C60.2807 229.777 61.6997 230.17 63.1612 230.272C64.6227 230.374 66.091 230.183 67.4624 229.712C67.4624 229.712 67.9002 195.295 67.9784 191.313C68.08 186.734 65.8834 147.346 65.8834 147.346L31.6988 149.195Z" fill="#37474F"/>
<path d="M36.8346 238.195V237.243C37.2255 237.243 37.4678 237.591 37.6164 238.444C37.7203 239.079 37.8612 239.708 38.0385 240.329C38.3665 241.495 38.7951 242.637 39.3205 243.742C40.3524 246.06 41.2201 246.928 43.5965 249.637C44.4069 250.389 45.1665 251.184 45.8713 252.019C46.3091 252.73 46.4654 254.728 45.715 255.183C42.9477 256.862 38.7499 256.911 35.7793 256.115C34.6724 255.835 33.6776 255.271 32.9137 254.491C32.1499 253.71 31.6493 252.746 31.472 251.713C31.3626 251.095 31.4017 250.469 31.3235 249.85C31.0665 248.445 30.4388 247.118 29.4943 245.982C28.94 245.32 28.4681 244.605 28.0872 243.849C27.4696 242.476 27.9621 240.94 28.353 239.582C28.6969 238.402 29.0643 237.107 29.5021 237.221V237.932C30.5471 238.677 31.841 239.073 33.1684 239.056C34.2471 239.134 36.8425 238.935 36.8346 238.195Z" fill="#263238"/>
<path d="M66.8605 231.021C67.2357 231.021 67.5484 231.525 68.4239 232.35C69.6771 233.508 71.1326 234.469 72.7312 235.195C75.475 236.446 80.8064 238.366 83.2141 239.355C84.7228 239.973 84.6524 241.63 83.0968 242.569C81.5412 243.507 77.7733 244.19 73.2628 243.28C70.8003 242.782 67.5953 240.713 65.5706 240.827C63.546 240.94 59.7468 240.912 58.2537 239.973C56.7607 239.035 57.3548 237.029 57.7769 235.308C58.2381 233.424 58.8166 230.494 59.4967 230.622V231.269C60.38 232.485 64.9218 232.976 66.8605 232.087V231.021Z" fill="#263238"/>
<path d="M49.5142 164.306C53.2871 163.227 56.7554 161.412 59.6765 158.987C59.6765 158.987 57.7066 162.336 51.8593 165.458L54.6891 190.289L49.5142 164.306Z" fill="#263238"/>
<path d="M61.154 133.977C56.3698 119.485 57.3157 107.212 56.4167 103.457L68.6819 119.037C69.2011 124.172 70.0388 129.277 71.1912 134.326C72.6062 139.865 74.537 146.77 76.8509 151.065C77.2707 151.822 77.9794 152.413 78.8443 152.729C81.1894 153.589 82.2369 154.677 84.0896 155.922C85.5436 156.903 86.6458 157.031 86.5599 157.429C86.3992 157.877 86.0592 158.254 85.6074 158.485C85.1556 158.715 84.6249 158.783 84.1209 158.674C83.0023 158.46 81.9158 158.126 80.8846 157.678C81.9247 159.284 83.2447 160.725 84.7932 161.945C88.3422 164.754 88.8503 166.738 82.9561 167.712C79.2586 168.33 75.9207 166.716 71.7072 159.733C70.1112 157.192 68.7187 154.549 67.5406 151.826C64.7264 144.715 62.6001 138.365 61.154 133.977Z" fill="#B16668"/>
<path d="M55.424 99.8519C59.2309 100.463 62.9988 101.274 65.3362 104.602C67.6735 107.93 71.0505 123.638 71.0505 123.638C71.0505 123.638 66.1413 126.774 60.5129 126.639L55.424 99.8519Z" fill="#FFBD12"/>
<path opacity="0.1" d="M55.424 99.8519C59.2309 100.463 62.9988 101.274 65.3362 104.602C67.6735 107.93 71.0505 123.638 71.0505 123.638C71.0505 123.638 66.1413 126.774 60.5129 126.639L55.424 99.8519Z" fill="black"/>
<path d="M29.1894 105.69C26.6332 107.347 13.1485 135.051 12.6326 136.978C11.9369 139.602 12.2574 142.539 13.6723 143.492C15.0872 144.445 18.2063 143.079 19.8401 141.629C22.9669 138.784 33.911 118.063 33.911 118.063L29.1894 105.69Z" fill="#9A4A4D"/>
<path d="M42.5959 99.9159C36.3421 101.281 28.5249 103.564 25.7342 108.769C22.9435 113.974 18.6987 122.429 18.6987 122.429C21.5912 124.996 25.1194 126.894 28.9862 127.962L32.113 122.984L31.6518 149.294C36.6939 152.637 55.2129 154.457 65.8286 147.403C65.8286 147.403 64.5309 115.859 64.5309 110.945C64.5309 106.031 61.5291 100.136 53.2507 99.6955L42.5959 99.9159Z" fill="#FFBD12"/>
<path opacity="0.1" d="M32.16 122.92C32.16 122.92 35.2869 118.006 35.9513 116.819L32.0427 128.907L32.16 122.92Z" fill="black"/>
<path d="M54.4468 87.1447C60.0032 87.1447 64.5075 83.0473 64.5075 77.9929C64.5075 72.9385 60.0032 68.8411 54.4468 68.8411C48.8904 68.8411 44.386 72.9385 44.386 77.9929C44.386 83.0473 48.8904 87.1447 54.4468 87.1447Z" fill="#263238"/>
<path d="M37.0457 84.4994C37.0457 84.4994 38.6795 91.4681 39.3362 92.613C39.77 93.3197 40.4868 93.847 41.3374 94.0849L41.2279 89.1855L37.0457 84.4994Z" fill="#263238"/>
<path d="M39.0938 74.5156C38.5232 74.4564 37.9452 74.5158 37.4035 74.6895C36.8618 74.8632 36.3706 75.1466 35.9669 75.5183C34.6302 76.7627 35.3807 80.6737 37.0457 84.4994L40.1179 84.8194L39.0938 74.5156Z" fill="#263238"/>
<path d="M41.0403 84.8265C40.4228 85.1607 39.5472 84.0799 38.789 83.3617C38.0307 82.6434 35.5448 81.6479 34.3097 84.0159C33.0746 86.3838 35.4041 89.6264 37.3584 90.1882C40.7198 91.1481 41.267 89.1855 41.267 89.1855L41.5094 100.563C45.6916 105.441 57.3001 105.029 52.4534 99.9373V96.5738C53.9517 96.7948 55.4721 96.8663 56.9874 96.7871C59.4655 96.4387 61.0211 94.6538 61.7715 92.229C62.9754 88.318 63.4366 85.1181 62.4125 77.4596C61.2947 69.026 50.507 68.9264 44.6831 72.2757C38.8593 75.6249 41.0403 84.8265 41.0403 84.8265Z" fill="#B16668"/>
<path d="M41.0403 85.7652C40.7276 85.7652 39.555 83.9945 38.7889 83.3616C37.7258 82.4799 39.0938 74.5156 39.0938 74.5156C38.7339 73.819 38.6116 73.0403 38.7426 72.2799C38.8735 71.5195 39.2518 70.8122 39.8286 70.2491C41.2826 68.7913 43.3151 67.0065 49.9128 67.7176C54.6031 68.2295 59.7468 69.5593 63.8899 67.7176C64.275 68.9462 64.2471 70.2516 63.8096 71.4657C63.3722 72.6798 62.5452 73.7469 61.4353 74.5299C61.4353 74.5299 59.9344 75.4045 55.9633 75.8454C52.3167 76.0942 48.6525 76.03 45.0192 75.6534C43.8779 75.5112 43.6356 76.5209 43.018 79.2729C42.5333 81.655 42.08 85.7509 41.0403 85.7652Z" fill="#263238"/>
<path d="M39.1016 75.1343L35.3806 73.3139C35.5001 73.0868 35.6688 72.884 35.8766 72.7177C36.0844 72.5513 36.3269 72.4248 36.5897 72.3458C36.8525 72.2668 37.1301 72.2369 37.4059 72.2578C37.6817 72.2787 37.95 72.3501 38.1948 72.4677C38.6942 72.7205 39.0673 73.1388 39.2362 73.6355C39.4051 74.1322 39.3569 74.6691 39.1016 75.1343Z" fill="#263238"/>
<path d="M52.4143 96.5667C52.4143 96.5667 46.8953 95.5569 44.9645 94.6254C43.8285 94.0863 42.897 93.2489 42.291 92.2219C42.5827 93.2526 43.0984 94.2197 43.8075 95.0663C45.2225 96.7089 52.4065 97.9107 52.4065 97.9107L52.4143 96.5667Z" fill="#9A4A4D"/>
<path d="M51.0776 83.5608C51.0818 83.833 50.9674 84.0957 50.7595 84.2916C50.5515 84.4874 50.2668 84.6005 49.9676 84.6061C49.6717 84.595 49.3922 84.4798 49.188 84.2847C48.9838 84.0897 48.8709 83.8301 48.8732 83.5608C48.869 83.2885 48.9833 83.0258 49.1913 82.8299C49.3993 82.6341 49.6839 82.521 49.9832 82.5154C50.279 82.5265 50.5586 82.6417 50.7628 82.8368C50.967 83.0318 51.0799 83.2914 51.0776 83.5608Z" fill="#263238"/>
<path d="M49.9128 79.7635L47.5677 80.9582C47.3973 80.6625 47.3591 80.3184 47.4611 79.9977C47.563 79.677 47.7973 79.4046 48.1149 79.2373C48.2703 79.1617 48.4408 79.1153 48.6163 79.1009C48.7919 79.0865 48.9688 79.1044 49.1365 79.1535C49.3043 79.2026 49.4595 79.2819 49.5929 79.3867C49.7262 79.4915 49.835 79.6197 49.9128 79.7635Z" fill="#263238"/>
<path d="M51.914 90.5224L54.4468 91.3828C54.3924 91.5378 54.3041 91.681 54.1871 91.804C54.07 91.927 53.9268 92.0271 53.766 92.0982C53.6052 92.1694 53.4302 92.2101 53.2516 92.2179C53.073 92.2257 52.8946 92.2005 52.727 92.1437C52.3865 92.0225 52.1112 91.7855 51.9594 91.4829C51.8077 91.1802 51.7914 90.8357 51.914 90.5224Z" fill="#9A4A4D"/>
<path d="M60.9585 80.6026L58.801 79.0951C58.9011 78.9612 59.0305 78.8474 59.1811 78.7609C59.3316 78.6745 59.5002 78.6171 59.6761 78.5924C59.8521 78.5677 60.0318 78.5763 60.204 78.6175C60.3762 78.6587 60.5372 78.7317 60.6771 78.832C60.964 79.0384 61.153 79.337 61.2053 79.6663C61.2577 79.9956 61.1694 80.3307 60.9585 80.6026Z" fill="#263238"/>
<path d="M60.294 83.2834C60.2849 83.4811 60.212 83.672 60.0846 83.8323C59.9572 83.9927 59.7808 84.1154 59.5773 84.1854C59.3738 84.2553 59.1523 84.2693 58.9401 84.2256C58.728 84.182 58.5346 84.0826 58.384 83.9399C58.2334 83.7971 58.1323 83.6172 58.0931 83.4226C58.0539 83.228 58.0785 83.0272 58.1637 82.8451C58.2489 82.6631 58.3911 82.5078 58.5725 82.3987C58.7538 82.2895 58.9665 82.2312 59.184 82.231C59.3329 82.2338 59.4797 82.2632 59.616 82.3176C59.7524 82.372 59.8756 82.4503 59.9787 82.548C60.0818 82.6458 60.1627 82.761 60.2168 82.8872C60.2709 83.0134 60.2972 83.148 60.294 83.2834Z" fill="#263238"/>
<path d="M54.6578 82.3234L55.0174 88.382L58.4961 87.3011L54.6578 82.3234Z" fill="#9A4A4D"/>
<path d="M25.1948 153.867C25.0912 153.867 24.9917 153.829 24.9184 153.763C24.8451 153.696 24.804 153.605 24.804 153.511V41.6702C24.804 41.5759 24.8451 41.4854 24.9184 41.4187C24.9917 41.3521 25.0912 41.3146 25.1948 41.3146C25.2985 41.3146 25.3979 41.3521 25.4712 41.4187C25.5445 41.4854 25.5857 41.5759 25.5857 41.6702V153.511C25.5857 153.605 25.5445 153.696 25.4712 153.763C25.3979 153.829 25.2985 153.867 25.1948 153.867Z" fill="#37474F"/>
<path d="M28.1653 51.405C28.1653 50.2602 25.5622 47.1385 25.0385 47.1385C24.5147 47.1385 22.193 50.2033 22.193 51.405C22.2167 51.6433 22.3096 51.8715 22.462 52.0664C22.6145 52.2613 22.8211 52.4159 23.0607 52.5143C23.7107 52.8159 24.43 52.9731 25.1596 52.9731C25.8893 52.9731 26.6085 52.8159 27.2585 52.5143C27.4996 52.4168 27.7078 52.2627 27.8617 52.0677C28.0156 51.8727 28.1096 51.644 28.1341 51.405H28.1653Z" fill="#FFBD12"/>
<path opacity="0.1" d="M28.1653 51.405C28.1653 50.2602 25.5622 47.1385 25.0385 47.1385C24.5147 47.1385 22.193 50.2033 22.193 51.405C22.2167 51.6433 22.3096 51.8715 22.462 52.0664C22.6145 52.2613 22.8211 52.4159 23.0607 52.5143C23.7107 52.8159 24.43 52.9731 25.1596 52.9731C25.8893 52.9731 26.6085 52.8159 27.2585 52.5143C27.4996 52.4168 27.7078 52.2627 27.8617 52.0677C28.0156 51.8727 28.1096 51.644 28.1341 51.405H28.1653Z" fill="black"/>
<path d="M42.4787 26.5878C42.4787 35.3343 34.9273 46.3847 25.062 48.4753C15.1185 45.951 7.65308 35.3343 7.65308 26.5878C7.65308 17.8414 13.8443 9.66379 25.0698 9.66379C36.2953 9.66379 42.4787 17.8343 42.4787 26.5878Z" fill="#FFBD12"/>
<path opacity="0.05" d="M8.29405 21.7879C7.86324 23.3577 7.64793 24.9699 7.65304 26.5878C7.65304 35.3343 15.1419 45.9509 25.0698 48.4753C33.27 46.7331 39.8677 38.8044 41.8611 31.1531C41.8611 31.1531 39.2658 39.5511 27.8449 40.2266C16.4239 40.9022 7.20746 29.0269 8.29405 21.7879Z" fill="black"/>
<path d="M14.0632 143.662C11.9838 143.122 9.84968 137.462 10.006 133.835C10.1624 130.209 15.525 114.522 16.2598 111.507C17.0962 108.179 17.0415 105.647 17.7841 103.919C18.8785 101.367 22.4745 99.9657 22.4745 99.9657C22.4745 99.9657 27.1648 97.9249 28.8533 97.6191C30.5418 97.3133 31.1984 98.3302 31.0108 99.1337C30.8232 99.9373 30.2291 101.978 30.0728 103.087C29.9614 104.507 29.5048 105.887 28.736 107.126C27.8527 108.414 24.249 111.493 24.1082 113.206C23.9675 114.92 22.9279 124.221 22.3337 130.984C21.8413 136.516 21.2315 138.806 19.9104 140.271C18.5893 141.735 15.6813 144.075 14.0632 143.662Z" fill="#B16668"/>
<path d="M307.536 223.675H300.11V235.237H307.536V223.675Z" fill="#FFA8A7"/>
<path d="M281.794 223.063L274.376 223.291L274.008 211.06L281.794 210.825V223.063Z" fill="#FFA8A7"/>
<path d="M305.136 137.64C305.136 144.089 306.247 182.823 306.247 182.823C306.418 184.678 308.381 187.978 308.537 194.662C308.756 204.354 307.833 229.456 307.833 229.456C306.552 230.028 305.148 230.338 303.72 230.364C302.293 230.39 300.876 230.131 299.571 229.605C299.571 229.605 293.02 195.039 291.691 185.446C290.534 177.077 288.564 154.329 288.564 154.329L284.554 181.692C285.413 185.212 285.723 188.824 285.476 192.422C285.124 196.86 282.271 219.302 282.271 219.302C280.973 219.968 279.53 220.366 278.044 220.468C276.558 220.57 275.065 220.373 273.672 219.892C273.672 219.892 269.92 185.759 269.834 181.692C269.74 177.048 272.304 129.668 272.304 129.668L305.136 137.64Z" fill="#FFBD12"/>
<path d="M276.041 124.321C280.825 109.821 279.879 97.548 280.778 93.7934L268.513 109.373C267.993 114.511 267.156 119.618 266.003 124.669C264.589 130.209 262.658 137.113 260.344 141.408C259.924 142.163 259.215 142.752 258.35 143.065C256.005 143.926 254.958 145.014 253.105 146.265C251.651 147.239 250.549 147.367 250.635 147.765C250.802 148.208 251.144 148.578 251.595 148.803C252.047 149.028 252.574 149.092 253.074 148.981C254.192 148.767 255.278 148.433 256.31 147.986C255.269 149.59 253.949 151.031 252.402 152.253C248.853 155.054 248.344 157.038 254.239 158.012C257.936 158.631 261.274 157.017 265.488 150.034C267.091 147.488 268.491 144.841 269.678 142.112C272.468 135.016 274.595 128.701 276.041 124.321Z" fill="#FFA8A7"/>
<path d="M281.763 90.1882C277.956 90.7997 274.196 91.6104 271.859 94.9383C269.521 98.2662 266.144 113.974 266.144 113.974C266.144 113.974 271.053 117.11 276.682 116.975L281.763 90.1882Z" fill="#E0E0E0"/>
<path d="M307.998 96.0334C310.554 97.6831 324.038 125.387 324.554 127.322C325.242 129.945 324.93 132.889 323.515 133.835C322.1 134.781 318.981 133.423 317.347 131.972C314.22 129.128 303.237 108.414 303.237 108.414L307.998 96.0334Z" fill="#F28F8F"/>
<path d="M294.724 90.1811C300.939 91.5464 308.795 93.829 311.578 99.0342C314.361 104.239 318.613 112.687 318.613 112.687C315.719 115.255 312.188 117.153 308.318 118.22L305.191 113.242L305.652 139.517C300.61 142.859 282.091 144.672 271.476 137.625C271.476 137.625 272.781 106.074 272.781 101.167C272.781 96.2609 275.775 90.3588 284.061 89.918L294.724 90.1811Z" fill="#F0F0F0"/>
<path d="M305.136 113.221C305.136 113.221 302.01 108.3 301.345 107.119L305.254 119.208L305.136 113.221Z" fill="#E0E0E0"/>
<path d="M300.11 231.902V230.935C299.399 231.22 297.765 236.944 294.802 239.39C292.457 241.331 289.268 243.578 288.455 245.74C287.642 247.902 292.902 249.239 295.091 248.883C297.632 248.478 302.041 246.849 303.143 245.328C304.245 243.806 304.769 241.594 305.668 240.492C306.567 239.39 308.639 238.146 309.123 236.866C309.389 236.155 309.076 234.626 308.701 233.31C308.326 231.995 307.982 230.8 307.536 230.914V231.625C306.478 232.379 305.167 232.78 303.823 232.763C302.737 232.891 300.102 232.656 300.11 231.902Z" fill="#263238"/>
<path d="M274.298 221.207C273.915 221.207 273.602 221.719 272.734 222.551C271.466 223.716 269.992 224.678 268.372 225.396C265.589 226.661 260.188 228.61 257.741 229.613C256.177 230.238 256.287 231.916 257.866 232.869C259.445 233.822 263.252 234.519 267.833 233.58C270.326 233.068 273.578 230.978 275.65 231.084C277.722 231.191 281.552 231.177 283.068 230.224C284.585 229.271 283.983 227.237 283.553 225.495C283.084 223.59 282.498 220.617 281.802 220.752V221.406C280.911 222.637 276.33 223.134 274.344 222.231L274.298 221.207Z" fill="#263238"/>
<path opacity="0.1" d="M288.58 154.329C284.741 153.24 281.212 151.4 278.237 148.939C278.237 148.939 280.239 152.338 286.164 155.495L284.898 179.324L288.58 154.329Z" fill="black"/>
<path d="M297.053 65.0723C297.611 65.012 298.176 65.0684 298.706 65.2373C299.236 65.4061 299.716 65.6829 300.11 66.0465C301.423 67.2696 301.15 69.5309 300.11 74.7219L296.053 75.1485L297.053 65.0723Z" fill="#263238"/>
<path d="M273.406 63.5505C272.533 63.5541 271.668 63.3944 270.866 63.0812C269.623 62.427 269.302 63.7141 269.975 64.8305C270.425 65.6291 271.092 66.3097 271.913 66.8076C272.734 67.3054 273.681 67.604 274.665 67.6749C274.665 67.5185 275.83 64.8305 275.83 64.8305L273.406 63.5505Z" fill="#263238"/>
<path d="M295.154 75.1272C295.756 75.4543 296.616 74.4161 297.358 73.705C298.101 72.9939 300.524 72.0268 301.728 74.345C302.932 76.6631 300.165 79.8488 298.523 80.887C296.569 82.1243 295.154 81.1573 295.154 81.1573L294.724 90.1882C294.724 90.1882 292.566 94.9809 286.735 95.6992C280.903 96.4174 282.107 92.0512 284.022 89.9037V86.6185C284.022 86.6185 281.013 87.1589 279.59 86.8247C278.558 86.5288 277.624 86.0051 276.869 85.3002C276.115 84.5954 275.564 83.7314 275.267 82.7857C273.664 77.9676 273.329 72.8741 274.29 67.9167C275.775 59.7177 285.937 59.5826 291.628 62.8395C297.319 66.0963 295.154 75.1272 295.154 75.1272Z" fill="#FFA8A7"/>
<path d="M295.154 76.0516C295.451 76.0516 296.608 74.3165 297.358 73.6979C298.398 72.8375 297.053 65.051 297.053 65.051C297.053 65.051 298.109 62.0999 296.053 60.1373C293.997 58.1747 290.018 58.5089 287.11 58.4165C283.538 58.4376 279.999 57.7914 276.713 56.5178C272.586 54.8823 272.273 54.6903 271.757 56.3401C271.241 57.9898 271.053 61.7728 273.524 64.3043L275.572 65.0154C275.572 65.0154 276.682 65.9043 280.536 66.3309C284.091 66.5759 287.664 66.514 291.206 66.1461C292.324 66.011 292.566 66.9923 293.168 69.7015C293.692 72.0268 294.13 76.0303 295.154 76.0516Z" fill="#263238"/>
<path d="M297.046 65.6554L300.688 63.8777C300.572 63.6551 300.408 63.4563 300.205 63.2931C300.002 63.1299 299.765 63.0057 299.508 62.9279C299.251 62.8502 298.979 62.8206 298.709 62.8408C298.439 62.8611 298.176 62.9307 297.937 63.0457C297.447 63.2926 297.082 63.7018 296.916 64.1879C296.75 64.674 296.796 65.1997 297.046 65.6554Z" fill="#263238"/>
<path d="M284.03 86.6114C284.03 86.6114 289.432 85.6229 291.316 84.7127C292.428 84.1867 293.338 83.3659 293.927 82.359C293.642 83.365 293.137 84.3083 292.441 85.1323C291.066 86.7394 284.03 87.9198 284.03 87.9198V86.6114Z" fill="#F28F8F"/>
<path d="M285.32 73.7334C285.328 73.9272 285.398 74.1147 285.522 74.2725C285.646 74.4303 285.818 74.5515 286.017 74.6209C286.216 74.6903 286.433 74.7048 286.641 74.6628C286.85 74.6207 287.039 74.5239 287.188 74.3843C287.336 74.2448 287.435 74.0687 287.474 73.878C287.513 73.6873 287.489 73.4904 287.406 73.3119C287.323 73.1333 287.184 72.981 287.006 72.8739C286.828 72.7668 286.62 72.7096 286.406 72.7095C286.261 72.7113 286.117 72.7393 285.984 72.7919C285.85 72.8444 285.73 72.9205 285.629 73.0157C285.528 73.1108 285.448 73.2233 285.395 73.3465C285.342 73.4696 285.317 73.6012 285.32 73.7334Z" fill="#263238"/>
<path d="M286.664 69.6589L289.01 70.8251C289.176 70.5363 289.213 70.1999 289.112 69.8869C289.012 69.5738 288.782 69.3085 288.47 69.1469C288.316 69.0665 288.146 69.0159 287.969 68.9983C287.793 68.9807 287.614 68.9964 287.444 69.0444C287.275 69.0925 287.118 69.1719 286.984 69.2776C286.85 69.3833 286.741 69.5131 286.664 69.6589Z" fill="#263238"/>
<path d="M285.406 80.5742L282.936 81.4275C282.989 81.5787 283.076 81.7185 283.19 81.8386C283.304 81.9586 283.444 82.0564 283.601 82.1262C283.758 82.1959 283.929 82.2361 284.103 82.2443C284.278 82.2526 284.452 82.2287 284.616 82.1741C284.952 82.0548 285.223 81.8202 285.371 81.521C285.518 81.2218 285.531 80.8818 285.406 80.5742Z" fill="#F28F8F"/>
<path d="M275.173 71.0668L277.284 69.5878C277.185 69.4556 277.056 69.3435 276.907 69.2585C276.758 69.1736 276.591 69.1177 276.417 69.0943C276.243 69.0709 276.066 69.0806 275.896 69.1227C275.726 69.1648 275.568 69.2384 275.431 69.3389C275.154 69.5429 274.974 69.8353 274.926 70.1564C274.878 70.4774 274.966 70.803 275.173 71.0668Z" fill="#263238"/>
<path d="M276.385 73.4561C276.392 73.6502 276.463 73.838 276.587 73.9959C276.711 74.1539 276.884 74.275 277.084 74.3442C277.283 74.4133 277.501 74.4275 277.709 74.3848C277.917 74.3422 278.107 74.2447 278.255 74.1044C278.403 73.9642 278.502 73.7874 278.54 73.5963C278.578 73.4051 278.553 73.208 278.469 73.0296C278.384 72.8512 278.244 72.6994 278.065 72.5931C277.886 72.4868 277.677 72.4308 277.464 72.4321C277.172 72.4396 276.895 72.5512 276.693 72.7428C276.491 72.9345 276.381 73.1907 276.385 73.4561Z" fill="#263238"/>
<path d="M282.302 72.6881L281.943 78.6044L278.55 77.552L282.302 72.6881Z" fill="#F28F8F"/>
<path d="M312 144.203C311.896 144.203 311.797 144.165 311.724 144.099C311.65 144.032 311.609 143.942 311.609 143.847V32.0064C311.609 31.9121 311.65 31.8217 311.724 31.755C311.797 31.6883 311.896 31.6508 312 31.6508C312.104 31.6508 312.203 31.6883 312.276 31.755C312.35 31.8217 312.391 31.9121 312.391 32.0064V143.847C312.391 143.942 312.35 144.032 312.276 144.099C312.203 144.165 312.104 144.203 312 144.203Z" fill="#37474F"/>
<path d="M309.045 41.7413C309.045 40.6035 311.648 37.4747 312.172 37.4747C312.696 37.4747 315.017 40.5395 315.017 41.7413C314.994 41.9797 314.902 42.2082 314.749 42.4033C314.597 42.5983 314.39 42.7527 314.15 42.8506C313.5 43.1521 312.78 43.3093 312.051 43.3093C311.321 43.3093 310.602 43.1521 309.952 42.8506C309.704 42.7584 309.488 42.6063 309.329 42.4108C309.169 42.2153 309.071 41.9838 309.045 41.7413Z" fill="#FFBD12"/>
<path opacity="0.1" d="M309.045 41.7413C309.045 40.6035 311.648 37.4747 312.172 37.4747C312.696 37.4747 315.017 40.5395 315.017 41.7413C314.994 41.9797 314.902 42.2082 314.749 42.4033C314.597 42.5983 314.39 42.7527 314.15 42.8506C313.5 43.1521 312.78 43.3093 312.051 43.3093C311.321 43.3093 310.602 43.1521 309.952 42.8506C309.704 42.7584 309.488 42.6063 309.329 42.4108C309.169 42.2153 309.071 41.9838 309.045 41.7413Z" fill="black"/>
<path d="M294.708 16.9241C294.708 25.6705 302.252 36.7209 312.125 38.8116C322.053 36.2872 329.542 25.6705 329.542 16.9241C329.542 8.17759 323.351 0 312.125 0C300.9 0 294.708 8.1847 294.708 16.9241Z" fill="#FFBD12"/>
<path opacity="0.05" d="M328.791 21.4964C328.791 21.4964 326.243 29.8873 314.775 30.5629C303.768 31.21 294.818 20.2164 295.154 12.9348C294.856 14.2472 294.706 15.5839 294.708 16.9241C294.708 25.6705 302.252 36.7209 312.125 38.8116C320.356 36.7209 326.899 29.0696 328.909 21.532L328.791 21.4964Z" fill="black"/>
<path d="M323.116 133.999C325.195 133.458 327.329 127.805 327.173 124.171C327.017 120.538 321.654 104.865 320.919 101.843C320.083 98.5151 320.138 95.9836 319.395 94.2556C318.301 91.7099 314.705 90.3091 314.705 90.3091C314.705 90.3091 310.014 88.2611 308.326 87.9553C306.637 87.6496 305.981 88.6664 306.168 89.47C306.356 90.2735 306.95 92.3143 307.106 93.4236C307.217 94.8436 307.673 96.2233 308.443 97.4627C309.326 98.7498 312.93 101.829 313.071 103.543C313.212 105.256 314.251 114.565 314.845 121.32C315.338 126.852 315.948 129.142 317.269 130.607C318.59 132.072 321.553 134.418 323.116 133.999Z" fill="#FFA8A7"/>
<path d="M121.253 237.847C143.318 237.847 161.206 230.092 161.206 220.525C161.206 210.958 143.318 203.202 121.253 203.202C99.1867 203.202 81.2988 210.958 81.2988 220.525C81.2988 230.092 99.1867 237.847 121.253 237.847Z" fill="#E0E0E0"/>
<path d="M206.147 243.116C228.213 243.116 246.101 235.361 246.101 225.794C246.101 216.227 228.213 208.472 206.147 208.472C184.081 208.472 166.194 216.227 166.194 225.794C166.194 235.361 184.081 243.116 206.147 243.116Z" fill="#E0E0E0"/>
<path d="M131.305 77.6587C133.377 77.3885 135.128 77.6587 138.747 82.1528C141.984 86.1776 148.433 92.933 148.433 92.933C148.433 92.933 154.265 79.0311 154.093 77.1609C153.921 75.2907 152.631 74.1388 151.786 70.6971C150.942 67.2554 150.7 66.6011 150.067 65.5985C149.433 64.5959 151.63 64.3541 152.513 65.5985C153.397 66.8429 153.506 68.5993 154.124 68.2864C154.741 67.9736 155.163 64.1905 154.64 61.4742C154.116 58.7578 155.476 58.1462 156.094 59.0138C156.452 59.4988 156.704 60.042 156.836 60.6137C157.475 60.495 158.138 60.5324 158.756 60.7223C159.374 60.9122 159.925 61.2477 160.354 61.6946C161.918 63.2448 163.215 65.6269 163.207 69.6589C163.2 73.6908 161.151 75.8454 160.862 77.6658C160.573 79.4862 156.954 96.3605 154.39 102.063C152.779 105.619 150.551 106.7 147.831 104.616C144.165 101.807 134.104 90.5579 134.104 90.5579L131.305 77.6587Z" fill="#FFA8A7"/>
<path d="M131.305 77.6587C133.174 77.1538 135.214 77.552 137.106 79.6142C138.998 81.6763 145.924 89.6548 145.924 89.6548C145.924 89.6548 145.72 93.7365 139.928 97.5195L133.322 91.0486L131.305 77.6587Z" fill="#FFBD12"/>
<path d="M141.093 209.325L141.03 208.379C141.523 209.467 143.743 214.16 146.799 216.4C149.222 218.185 152.513 220.226 153.452 222.31C154.39 224.393 149.277 225.51 147.104 225.275C144.579 225.012 141.257 223.895 139.365 222.025C138.036 220.71 137.145 219.117 136.191 218.079C135.237 217.04 133.119 215.945 132.556 214.701C132.251 214.025 132.462 212.489 132.744 211.195C133.025 209.901 133.447 208.578 133.893 208.664C133.874 208.943 133.838 209.22 133.783 209.496C134.87 210.184 136.184 210.511 137.504 210.42C138.575 210.399 141.155 210.065 141.093 209.325Z" fill="#263238"/>
<path d="M148.996 217.958C148.214 217.417 147.487 216.891 146.799 216.386C144.665 214.815 142.937 212.048 141.921 210.157V210.121C141.143 208.59 140.805 206.905 140.936 205.222L141.03 202.982L133.213 203.124L133.783 209.481V209.645H133.823C134.268 211.003 137.856 214.495 139.92 216.756C141.296 218.285 143.829 220.198 146.776 220.39C149.574 220.631 150.903 219.764 148.996 217.958Z" fill="#FFA8A7"/>
<path d="M97.4492 210.136C97.0739 209.937 96.4564 211.096 95.8075 211.977C95.1111 213.074 94.7798 214.332 94.8538 215.597C95.0268 217.022 94.945 218.462 94.6115 219.863C94.1738 222.224 93.4155 224.934 96.0264 227.109C98.27 228.973 103.273 229.84 104.868 228.532C105.192 228.292 105.449 227.986 105.619 227.639C105.789 227.292 105.866 226.913 105.845 226.533C105.525 225.503 105.085 224.506 104.532 223.561C103.915 222.489 103.362 221.388 102.874 220.262L97.4492 210.136Z" fill="#263238"/>
<path d="M104.5 206.139C104.156 205.876 103.414 214.608 103.203 216.685C102.992 218.761 103.39 219.849 103.765 222.061C103.952 222.583 103.91 223.151 103.648 223.646C103.45 223.876 103.195 224.06 102.905 224.183C102.614 224.307 102.296 224.366 101.975 224.358C100.318 224.358 99.0048 223.803 97.6133 222.374C96.9254 221.663 96.8785 219.778 96.9176 219.095C97.0309 217.951 97.0544 216.801 96.9879 215.654C96.8629 214.438 96.472 213.008 96.644 212.098C96.791 211.393 97.0546 210.712 97.4257 210.079C98.0589 208.763 98.481 205.165 98.481 205.165L104.5 206.139Z" fill="#FFA8A7"/>
<path d="M107.776 113.562C103.719 118.305 102.984 123.197 103.867 137.028C104.75 150.859 103.468 162.158 103.242 162.933C103.015 163.708 100.443 171.345 99.2315 176.487C97.8166 182.51 97.6212 207.305 97.6212 207.305C97.6212 207.305 100.506 208.728 104.962 207.761C104.962 207.761 115.718 169.013 116.859 165.891C118.001 162.77 126.639 130.571 126.639 130.571L125.536 112.033L107.776 113.562Z" fill="#37474F"/>
<path d="M138.802 129.505C138.185 123.105 136.676 112.019 136.676 112.019L118.696 111.059C115.78 115.19 117.047 122.059 117.844 128.267L128.132 164.903C127.921 166.659 126.146 170.378 128.132 179.836C130.344 190.374 133.056 204.305 133.056 204.305C133.056 204.305 137.278 205.869 141.155 204.383C141.155 204.383 142.64 171.018 141.694 161.909C140.655 152.018 139.224 133.885 138.802 129.505Z" fill="#37474F"/>
<path d="M123.496 145.049L126.427 131.609C129.026 130.768 131.493 129.623 133.768 128.203C132.315 129.874 130.582 131.326 128.632 132.505L123.496 145.049Z" fill="#263238"/>
<path d="M108.862 81.015C106.845 82.0746 103.508 83.0417 102.116 86.6114C100.216 91.589 95.1744 104.517 93.2357 109.16H102.554L109.003 97.1427C113.99 93.2459 113.318 82.4159 108.862 81.015Z" fill="#FFA8A7"/>
<path d="M135.503 101.63C135.949 105.363 137.606 119.172 137.606 119.172C124.043 125.75 107.228 121.391 104.657 118.682C107.002 111.699 109.495 107.724 111.411 105.882L109.003 97.1427C109.003 97.1427 114.686 90.9917 108.862 81.015L116.421 78.7538L126.771 77.936L131.305 77.6587C132.924 79.0382 135.472 83.9803 137.129 87.8273C138.192 90.3091 139.342 94.277 135.503 101.63Z" fill="#F5F5F5"/>
<path d="M108.862 81.015C104.406 81.8115 102.405 83.8025 100.623 88.2255C98.6999 93.0112 96.3939 98.1809 96.3939 98.1809C97.6422 99.8219 99.3844 101.101 101.411 101.864C103.439 102.627 105.665 102.842 107.823 102.483L110.707 95.1658C110.707 95.1658 114.577 88.7091 108.862 81.015Z" fill="#FFBD12"/>
<path d="M110.23 101.537C110.348 101.964 113.521 105.804 115.077 106.686C116.633 107.567 112.325 108.819 111.716 111.059C110.488 115.56 118.157 121.341 127.686 122.166C116.906 123.773 106.642 120.744 104.68 118.682C107.025 111.699 109.519 107.724 111.434 105.882L110.23 101.537Z" fill="#E6E6E6"/>
<path d="M138.747 76.784H124.262C121.934 76.785 119.628 76.3684 117.476 75.5583C115.325 74.7481 113.37 73.5602 111.723 72.0624C110.077 70.5646 108.771 68.7864 107.88 66.8293C106.99 64.8722 106.532 62.7746 106.533 60.6564C106.533 56.7713 108.229 53.0454 111.249 50.2983C114.269 47.5512 118.365 46.0078 122.636 46.0078C124.752 46.0069 126.846 46.3851 128.801 47.1208C130.756 47.8566 132.532 48.9354 134.028 50.2958C135.524 51.6561 136.711 53.2713 137.521 55.049C138.331 56.8267 138.747 58.7321 138.747 60.6564V76.784Z" fill="#263238"/>
<path d="M132.994 52.3864C134.698 53.3037 136.801 57.1934 136.59 65.3567C136.41 72.2686 133.948 73.9823 132.681 74.473C131.415 74.9636 129.054 74.665 126.74 74.3094V78.4622C126.596 79.3397 126.076 80.1297 125.294 80.6595C123.402 81.7333 121.167 81.3279 119.908 80.9155C117.133 80.0053 116.586 78.7822 116.586 78.7822L116.633 69.2322C116.633 69.2322 115.272 70.4411 112.951 68.5993C111.043 67.0776 110.402 64.5176 111.888 63.1381C112.274 62.8111 112.741 62.5724 113.249 62.4417C113.757 62.311 114.292 62.2922 114.81 62.3866C115.328 62.4811 115.813 62.6862 116.227 62.985C116.64 63.2838 116.969 63.6678 117.188 64.1052C117.188 64.1052 118.548 64.2048 119.908 61.9008C119.908 61.9008 119.861 55.6574 121.393 54.8468C126.279 52.2726 129.734 52.3864 132.994 52.3864Z" fill="#FFA8A7"/>
<path d="M126.764 63.1808C126.773 63.2963 126.757 63.4123 126.717 63.5222C126.677 63.6321 126.613 63.7337 126.53 63.821C126.446 63.9083 126.344 63.9797 126.23 64.0309C126.116 64.0821 125.992 64.1122 125.865 64.1194C125.667 64.1363 125.468 64.0989 125.294 64.0121C125.12 63.9253 124.979 63.7931 124.888 63.6324C124.798 63.4718 124.762 63.2901 124.786 63.1109C124.81 62.9317 124.893 62.7632 125.023 62.6271C125.154 62.4909 125.326 62.3935 125.518 62.3473C125.71 62.3011 125.912 62.3082 126.1 62.3678C126.287 62.4274 126.45 62.5367 126.569 62.6817C126.687 62.8266 126.755 63.0004 126.764 63.1808Z" fill="#263238"/>
<g style="mix-blend-mode:multiply" opacity="0.5">
<path d="M128.358 69.4811L130.578 70.1211C130.537 70.2556 130.467 70.3812 130.371 70.4903C130.275 70.5994 130.157 70.6899 130.022 70.7563C129.887 70.8227 129.738 70.8636 129.585 70.8767C129.433 70.8897 129.278 70.8746 129.132 70.8322C128.838 70.7394 128.594 70.5478 128.45 70.2966C128.306 70.0454 128.273 69.7536 128.358 69.4811Z" fill="#F28F8F"/>
</g>
<path d="M135.409 60.4715L133.479 59.2555C133.559 59.1364 133.665 59.0335 133.79 58.9532C133.916 58.873 134.058 58.8171 134.208 58.7891C134.359 58.7611 134.514 58.7615 134.664 58.7904C134.814 58.8192 134.956 58.8759 135.081 58.9569C135.34 59.1223 135.518 59.3721 135.579 59.6542C135.641 59.9364 135.58 60.2292 135.409 60.4715Z" fill="#263238"/>
<path d="M125.435 60.0946L123.238 60.8626C123.175 60.7353 123.141 60.5976 123.139 60.458C123.137 60.3183 123.167 60.1798 123.226 60.0511C123.286 59.9223 123.374 59.8061 123.485 59.7096C123.596 59.6131 123.727 59.5384 123.871 59.4902C124.167 59.3899 124.495 59.3967 124.785 59.5091C125.076 59.6215 125.309 59.8311 125.435 60.0946Z" fill="#263238"/>
<path d="M134.886 62.9888C134.889 63.1605 134.836 63.3292 134.734 63.4738C134.632 63.6184 134.486 63.7325 134.313 63.8019C134.14 63.8714 133.949 63.893 133.763 63.8642C133.577 63.8354 133.404 63.7574 133.266 63.6399C133.129 63.5224 133.032 63.3707 132.989 63.2036C132.945 63.0365 132.957 62.8614 133.022 62.7002C133.087 62.539 133.203 62.3988 133.355 62.2972C133.507 62.1955 133.689 62.1368 133.877 62.1284C134.136 62.1226 134.387 62.2096 134.575 62.3706C134.764 62.5316 134.876 62.7536 134.886 62.9888Z" fill="#263238"/>
<g style="mix-blend-mode:multiply" opacity="0.5">
<path d="M130.297 62.491L130.446 67.7247L133.479 66.8714L130.297 62.491Z" fill="#F28F8F"/>
</g>
<g style="mix-blend-mode:multiply" opacity="0.5">
<path d="M126.771 74.3165C124.325 74.025 119.29 72.7166 118.509 70.9033C118.821 71.8209 119.439 72.6282 120.275 73.2143C121.776 74.3876 126.771 75.7031 126.771 75.7031V74.3165Z" fill="#F28F8F"/>
</g>
<path d="M120.307 46.7901L119.939 42.9502C120.216 42.9123 120.498 42.9263 120.768 42.9913C121.038 43.0563 121.291 43.171 121.511 43.3282C121.73 43.4854 121.912 43.6818 122.045 43.9054C122.178 44.129 122.26 44.3751 122.284 44.6283C122.326 45.1514 122.144 45.6689 121.775 46.0721C121.406 46.4752 120.88 46.7326 120.307 46.7901Z" fill="#263238"/>
<path d="M120.08 47.174L116.664 44.8985C116.817 44.6866 117.015 44.5053 117.248 44.3654C117.48 44.2255 117.741 44.1301 118.016 44.0848C118.29 44.0396 118.571 44.0456 118.843 44.1023C119.114 44.1591 119.37 44.2654 119.595 44.415C120.05 44.7304 120.354 45.1928 120.444 45.7064C120.534 46.2199 120.404 46.7454 120.08 47.174Z" fill="#263238"/>
<path d="M117.219 64.091V67.7247C117.94 67.7247 118.632 67.464 119.142 66.9999C119.653 66.5358 119.939 65.9064 119.939 65.2501V61.8866L117.219 64.091Z" fill="#263238"/>
<path d="M128.1 46.8683C131.687 46.8683 135.127 48.1644 137.663 50.4714C140.199 52.7785 141.624 55.9075 141.624 59.1702V60.7631H135.011C133.522 60.7636 132.083 60.2733 130.96 59.383C129.838 58.4927 129.108 57.2626 128.906 55.9205L128.663 60.7631C127.439 60.7638 126.259 60.3473 125.356 59.5956C124.453 58.844 123.893 57.8118 123.785 56.7027L123.707 55.9063C123.591 57.228 122.932 58.4616 121.862 59.3616C120.792 60.2615 119.388 60.7619 117.93 60.7631H117.336L116.664 52.0735L128.1 46.8683Z" fill="#263238"/>
<path d="M220.023 218.896V217.958C219.608 219.074 217.678 223.881 214.793 226.285C212.487 228.197 209.321 230.409 208.539 232.542C207.758 234.676 212.917 235.507 215.075 235.159C217.576 234.761 220.82 233.467 222.579 231.497C223.822 230.11 224.611 228.468 225.495 227.38C226.378 226.292 228.418 225.069 228.895 223.824C229.161 223.113 228.848 221.613 228.481 220.333C228.114 219.053 227.777 217.865 227.332 217.972V218.683C226.291 219.43 224.999 219.827 223.673 219.807C222.61 219.835 220.015 219.643 220.023 218.896Z" fill="#263238"/>
<path d="M212.706 227.956C213.425 227.373 214.144 226.811 214.793 226.263C216.826 224.585 218.366 221.734 219.257 219.785C219.765 218.676 220.03 217.488 220.038 216.287V212.496H227.347V218.669V218.832H227.308C226.957 220.212 223.603 223.895 221.696 226.292C220.421 227.899 217.99 229.94 215.09 230.295C212.323 230.644 210.924 229.854 212.706 227.956Z" fill="#B16668"/>
<path d="M191.498 212.34V211.387C191.091 212.504 189.153 217.311 186.276 219.714C183.97 221.627 180.804 223.838 180.022 225.972C179.241 228.105 184.4 228.937 186.557 228.589C189.059 228.183 192.295 226.896 194.062 224.926C195.297 223.54 196.087 221.897 196.978 220.809C197.869 219.721 199.901 218.498 200.378 217.254C200.644 216.543 200.331 215.042 199.964 213.762C199.62 212.589 199.253 211.295 198.815 211.401V212.113C197.774 212.859 196.482 213.256 195.156 213.236C194.085 213.279 191.49 213.087 191.498 212.34Z" fill="#263238"/>
<path d="M184.189 221.399C184.9 220.816 185.619 220.255 186.276 219.707C188.301 218.029 189.848 215.177 190.732 213.229C191.244 212.121 191.51 210.932 191.514 209.73V205.94H198.823V212.105V212.269H198.784C198.432 213.648 195.078 217.325 193.171 219.728C191.889 221.335 189.465 223.376 186.565 223.732C183.806 224.087 182.406 223.298 184.189 221.399Z" fill="#B16668"/>
<path d="M225.878 115.56C231.545 126.824 225.675 166.496 225.675 166.496C225.847 168.323 228.137 171.921 228.997 179.964C230.005 189.464 227.433 213.328 227.433 213.328C226.319 213.917 225.064 214.249 223.777 214.296C222.489 214.343 221.209 214.104 220.046 213.599C220.046 213.599 213.05 177.624 211.744 168.181C210.595 159.939 208.406 141.807 208.406 141.807L202.153 168.117C203.06 170.776 203.719 173.499 204.123 176.259C204.717 181.82 198.799 207.697 198.799 207.697C198.799 207.697 196.274 208.536 191.482 207.896C191.482 207.896 189.395 173.55 188.84 166.858C187.91 155.609 191.185 120.523 193.46 113.868L225.878 115.56Z" fill="#37474F"/>
<path d="M208.406 141.799L206.562 131.339C206.562 131.339 198.744 129.867 195.25 126.852C195.25 126.852 198.948 131.041 204.451 132.413L206.523 140.448L202.911 164.832L208.406 141.799Z" fill="#263238"/>
<path d="M204.592 76.1014C202.829 75.8369 201.021 76.0257 199.37 76.6464C197.72 77.2671 196.293 78.295 195.25 79.6142C192.788 82.5937 183.313 107.66 183.313 107.66H191.842L203.513 86.654L204.592 76.1014Z" fill="#B16668"/>
<path d="M215.88 76.4071C223.15 76.8622 223.658 80.0551 225.471 83.5181C226.814 86.211 226.937 89.2761 225.815 92.0512L220.758 105.377C220.758 105.377 223.103 110.589 225.878 115.517C213.167 121.967 197.298 118.575 193.476 113.868C193.319 112.872 194.257 105.064 194.906 99.9657C192.663 94.8529 192.076 91.6175 193.022 88.2398C194.773 81.975 201.574 75.8667 204.592 76.0872L215.88 76.4071Z" fill="#F5F5F5"/>
<path d="M212.628 116.783C213.626 116.575 214.568 116.187 215.399 115.643C216.229 115.098 216.932 114.408 217.465 113.613C217.999 112.818 218.351 111.934 218.503 111.013C218.655 110.092 218.603 109.152 218.35 108.25C218.318 108.126 218.273 108.004 218.217 107.887C218.043 107.403 217.695 106.985 217.228 106.703C216.762 106.42 216.204 106.289 215.645 106.33C216.461 105.84 217.162 105.208 217.707 104.469C218.252 103.73 218.63 102.901 218.819 102.028L220.382 94.9809C220.382 94.9809 217.513 86.7038 217.803 83.8665L225.096 84.2505L226.042 84.8478C226.817 87.2057 226.743 89.7272 225.831 92.0441L220.773 105.37C220.773 105.37 223.118 110.582 225.894 115.51C221.759 117.533 217.195 118.726 212.51 119.008C207.825 119.29 203.129 118.655 198.737 117.146C203.351 117.823 208.064 117.7 212.628 116.783Z" fill="#E6E6E6"/>
<path d="M242.638 109.452C242.638 109.452 235.423 96.5382 230.654 86.654C227.215 79.5431 226.441 77.9076 220.961 77.1325L219.03 76.8622C216.435 84.6203 218.248 88.1402 221.641 93.4521L233.515 113.932C236.204 113.427 242.693 110.191 242.638 109.452Z" fill="#B16668"/>
<path d="M212.862 70.9246H207.711C204.076 70.9246 200.591 69.6113 198.021 67.2735C195.451 64.9358 194.007 61.7651 194.007 58.4591V56.3685C194.007 53.0436 195.459 49.8548 198.044 47.5038C200.628 45.1527 204.134 43.8319 207.789 43.8319H212.745C216.4 43.8319 219.906 45.1527 222.49 47.5038C225.075 49.8548 226.527 53.0436 226.527 56.3685L226.527 58.4591C226.527 61.7651 225.083 64.9358 222.513 67.2735C219.943 69.6113 216.458 70.9246 212.823 70.9246H212.862Z" fill="#263238"/>
<path d="M199.385 49.8122C197.666 50.7366 195.539 54.669 195.75 62.9106C195.93 69.8935 198.416 71.6144 199.659 72.1121C200.902 72.6099 203.317 72.3041 205.663 71.9557V76.144C205.663 76.144 202.418 79.5644 202.63 81.4844C202.841 83.4043 207.32 83.8594 210.329 81.9821C212.295 80.6972 213.981 79.0913 215.301 77.2462V67.1202C215.301 67.1202 216.865 69.0402 219.468 67.4758C222.071 65.9114 222.157 62.0501 220.656 60.6564C219.155 59.2626 215.903 59.7106 215.301 61.6306C215.301 61.6306 211.565 61.7515 206.593 59.2626C204.658 58.3153 202.997 56.9655 201.744 55.3232C200.492 53.6809 199.683 51.7926 199.385 49.8122Z" fill="#B16668"/>
<path d="M205.178 61.1541C205.175 61.3273 205.228 61.4973 205.331 61.6431C205.434 61.7888 205.581 61.9039 205.755 61.9739C205.93 62.0438 206.122 62.0656 206.31 62.0365C206.498 62.0075 206.672 61.9288 206.811 61.8103C206.949 61.6918 207.047 61.5388 207.09 61.3703C207.134 61.2018 207.123 61.0253 207.057 60.8628C206.991 60.7004 206.874 60.5591 206.721 60.4566C206.567 60.3541 206.384 60.295 206.194 60.2866C206.065 60.2828 205.936 60.3022 205.815 60.3438C205.694 60.3854 205.583 60.4482 205.488 60.5288C205.394 60.6093 205.318 60.706 205.265 60.8133C205.212 60.9207 205.182 61.0365 205.178 61.1541Z" fill="#263238"/>
<path d="M204.06 67.0705L201.824 67.7247C201.866 67.8594 201.938 67.9852 202.034 68.0944C202.131 68.2036 202.25 68.294 202.386 68.3603C202.521 68.4267 202.67 68.4675 202.824 68.4805C202.977 68.4934 203.132 68.4782 203.278 68.4358C203.574 68.3401 203.819 68.1461 203.964 67.8928C204.109 67.6396 204.143 67.3458 204.06 67.0705Z" fill="#9A4A4D"/>
<path d="M197.259 58.4591L199.213 57.2218C199.13 57.1028 199.022 57.0002 198.894 56.9204C198.766 56.8405 198.622 56.7849 198.47 56.757C198.319 56.7291 198.162 56.7295 198.01 56.758C197.859 56.7866 197.715 56.8427 197.587 56.9231C197.326 57.0913 197.145 57.3449 197.084 57.6311C197.023 57.9173 197.086 58.214 197.259 58.4591Z" fill="#263238"/>
<path d="M197.712 60.5213C197.711 60.6941 197.766 60.8635 197.869 61.0083C197.973 61.1532 198.121 61.2672 198.295 61.336C198.47 61.4049 198.662 61.4257 198.849 61.3958C199.037 61.3659 199.21 61.2866 199.348 61.1679C199.486 61.0491 199.583 60.896 199.626 60.7277C199.669 60.5594 199.657 60.3832 199.591 60.2212C199.525 60.0591 199.408 59.9182 199.255 59.8161C199.101 59.7139 198.919 59.655 198.729 59.6466C198.467 59.6427 198.215 59.7321 198.025 59.8956C197.835 60.059 197.723 60.2836 197.712 60.5213Z" fill="#263238"/>
<path d="M202.434 60.0164L202.278 65.2998L199.221 64.4394L202.434 60.0164Z" fill="#9A4A4D"/>
<path d="M205.67 71.9557C208.133 71.657 213.214 70.3273 214.004 68.5069C213.69 69.43 213.07 70.2423 212.229 70.8322C210.712 72.0197 205.67 73.3494 205.67 73.3494V71.9557Z" fill="#9A4A4D"/>
<path d="M224.541 45.4176C221.367 46.6194 222.079 49.094 223.408 51.981C224.737 54.8681 226.183 57.0654 229.31 55.828C230.149 55.599 230.926 55.212 231.591 54.6922C232.255 54.1724 232.792 53.5313 233.167 52.8105C233.541 52.0898 233.745 51.3055 233.765 50.5085C233.785 49.7115 233.621 48.9195 233.282 48.184C232.944 47.4486 232.44 46.7859 231.802 46.2392C231.164 45.6924 230.407 45.2737 229.58 45.0101C228.753 44.7466 227.874 44.6442 227.001 44.7095C226.127 44.7748 225.279 45.0064 224.51 45.3892L224.541 45.4176Z" fill="#263238"/>
<path d="M221.75 48.006L220.64 43.1919C220.98 43.114 221.334 43.099 221.681 43.1478C222.027 43.1967 222.359 43.3083 222.657 43.476C222.956 43.6438 223.214 43.8644 223.416 44.1246C223.619 44.3848 223.762 44.6794 223.838 44.991C223.984 45.6414 223.849 46.3182 223.46 46.88C223.071 47.4419 222.459 47.8453 221.75 48.006Z" fill="#263238"/>
<path d="M247.797 107.66H82.1118V142.169H247.797V107.66Z" fill="#FFBD12"/>
<path d="M104.649 132.875C104.505 132.754 104.402 132.599 104.352 132.427L100.326 120.538C100.312 120.465 100.312 120.39 100.326 120.317C100.326 120.083 100.482 119.969 100.803 119.969H103.101C103.276 119.952 103.452 119.99 103.601 120.075C103.719 120.174 103.794 120.308 103.812 120.452L106.408 128.751L109.355 121.64C109.411 121.492 109.505 121.358 109.628 121.249C109.765 121.155 109.935 121.112 110.105 121.128H111.387C111.55 121.115 111.712 121.153 111.848 121.235C111.965 121.351 112.05 121.489 112.099 121.64L115.022 128.751L117.641 120.452C117.68 120.314 117.752 120.185 117.852 120.075C118.003 119.988 118.182 119.95 118.36 119.969H120.651C120.971 119.969 121.127 120.083 121.127 120.317C121.137 120.39 121.137 120.464 121.127 120.538L117.039 132.413C116.997 132.589 116.899 132.75 116.758 132.875C116.599 132.958 116.416 132.995 116.234 132.982H114.397C114.227 132.994 114.058 132.951 113.92 132.861C113.79 132.731 113.689 132.578 113.623 132.413L110.645 125.117L107.658 132.413C107.594 132.582 107.487 132.736 107.346 132.861C107.201 132.95 107.028 132.993 106.853 132.982H105.157C104.98 132.99 104.804 132.953 104.649 132.875Z" fill="white"/>
<path d="M125.607 132.683C124.388 132.229 123.345 131.454 122.613 130.457C121.829 129.339 121.439 128.029 121.495 126.703C121.495 124.37 122.18 122.6 123.551 121.391C124.919 120.182 126.865 119.571 129.39 119.571C131.915 119.571 133.791 120.161 135.073 121.334C136.355 122.507 136.996 124.178 136.996 126.433C136.996 127.066 136.676 127.386 136.043 127.386H125.099C125.069 127.911 125.178 128.435 125.418 128.914C125.657 129.393 126.02 129.812 126.474 130.137C127.594 130.833 128.936 131.171 130.289 131.097C131.769 131.117 133.228 130.781 134.518 130.123C134.617 130.063 134.729 130.024 134.847 130.009C134.987 130.009 135.097 130.095 135.175 130.258L135.894 131.425C135.947 131.517 135.976 131.619 135.98 131.723C135.972 131.797 135.943 131.867 135.896 131.928C135.85 131.989 135.787 132.039 135.714 132.072C134.895 132.527 134.004 132.865 133.072 133.074C132.005 133.306 130.91 133.416 129.812 133.401C128.372 133.42 126.942 133.176 125.607 132.683ZM133.533 125.373C133.563 124.896 133.488 124.418 133.312 123.967C133.136 123.517 132.863 123.103 132.509 122.749C132.092 122.409 131.603 122.15 131.072 121.986C130.542 121.822 129.98 121.758 129.422 121.796C128.254 121.727 127.104 122.077 126.216 122.771C125.842 123.11 125.549 123.517 125.356 123.965C125.164 124.413 125.076 124.892 125.099 125.373H133.533Z" fill="white"/>
<path d="M140.194 132.754C140.013 132.555 139.921 132.301 139.936 132.043V115.56C139.911 115.286 140.004 115.013 140.194 114.799C140.308 114.708 140.443 114.639 140.588 114.598C140.733 114.556 140.886 114.542 141.038 114.557H142.601C142.914 114.53 143.226 114.617 143.469 114.799C143.566 114.904 143.64 115.025 143.685 115.155C143.731 115.286 143.748 115.424 143.735 115.56V132.022C143.752 132.279 143.663 132.533 143.485 132.733C143.236 132.916 142.919 133.002 142.601 132.975H141.038C140.888 132.991 140.736 132.98 140.591 132.942C140.446 132.904 140.311 132.84 140.194 132.754Z" fill="white"/>
<path d="M148.871 131.624C148.111 130.978 147.517 130.187 147.133 129.308C146.749 128.429 146.585 127.483 146.651 126.539C146.621 125.267 146.972 124.011 147.667 122.906C148.353 121.85 149.36 120.998 150.567 120.452C151.947 119.844 153.466 119.541 154.999 119.571C156.074 119.554 157.146 119.664 158.189 119.898C159.065 120.116 159.891 120.475 160.628 120.957C160.702 120.99 160.765 121.039 160.813 121.1C160.861 121.161 160.891 121.231 160.901 121.306C160.889 121.443 160.838 121.575 160.753 121.69L159.971 122.963C159.846 123.14 159.737 123.233 159.643 123.233C159.487 123.218 159.34 123.161 159.221 123.069C158.648 122.746 158.033 122.488 157.391 122.301C156.689 122.113 155.958 122.024 155.226 122.038C154.58 122.008 153.934 122.1 153.328 122.308C152.723 122.516 152.171 122.836 151.708 123.247C151.267 123.692 150.926 124.212 150.706 124.777C150.486 125.342 150.391 125.941 150.426 126.539C150.376 127.14 150.465 127.744 150.685 128.312C150.906 128.88 151.254 129.4 151.708 129.839C152.76 130.631 154.107 131.023 155.468 130.934C156.88 130.972 158.267 130.601 159.432 129.874C159.548 129.8 159.682 129.754 159.823 129.739C159.94 129.739 160.057 129.832 160.174 130.009L161.042 131.339C161.117 131.424 161.158 131.529 161.159 131.638C161.159 131.766 161.058 131.894 160.862 132.022C160.073 132.489 159.208 132.84 158.298 133.06C157.246 133.303 156.163 133.418 155.078 133.401C152.42 133.401 150.351 132.809 148.871 131.624Z" fill="white"/>
<path d="M165.592 131.545C164.236 130.15 163.489 128.352 163.489 126.49C163.489 124.627 164.236 122.829 165.592 121.434C166.991 120.196 168.984 119.571 171.572 119.571C174.159 119.571 176.153 120.196 177.56 121.434C178.925 122.825 179.679 124.625 179.679 126.49C179.679 128.354 178.925 130.154 177.56 131.545C176.153 132.783 174.152 133.401 171.572 133.401C168.992 133.401 166.991 132.783 165.592 131.545ZM174.785 129.739C175.592 128.822 175.989 127.661 175.895 126.49C175.988 125.329 175.591 124.179 174.785 123.275C173.898 122.565 172.757 122.173 171.576 122.173C170.394 122.173 169.253 122.565 168.367 123.275C167.555 124.177 167.155 125.327 167.249 126.49C167.159 127.658 167.558 128.814 168.367 129.725C169.246 130.449 170.39 130.849 171.576 130.849C172.762 130.849 173.905 130.449 174.785 129.725V129.739Z" fill="white"/>
<path d="M182.868 132.754C182.678 132.559 182.58 132.304 182.594 132.043V120.737C182.574 120.534 182.629 120.332 182.75 120.161C182.844 120.054 183.055 120.004 183.376 120.004H184.939C185.109 119.989 185.279 120.032 185.416 120.125C185.528 120.242 185.592 120.39 185.596 120.545L185.682 121.683C186.217 121.047 186.894 120.521 187.667 120.139C188.492 119.759 189.408 119.57 190.333 119.592C191.134 119.574 191.924 119.759 192.616 120.125C193.268 120.483 193.767 121.032 194.031 121.683C194.563 121 195.277 120.45 196.105 120.085C196.933 119.719 197.849 119.55 198.768 119.592C199.385 119.565 200.002 119.654 200.579 119.855C201.156 120.056 201.682 120.363 202.121 120.758C203.015 121.724 203.459 122.969 203.357 124.228V132.05C203.371 132.307 203.282 132.56 203.106 132.761C202.858 132.944 202.541 133.031 202.223 133.003H200.91C200.6 133.025 200.292 132.939 200.05 132.761C199.863 132.565 199.768 132.31 199.784 132.05V124.399C199.851 123.755 199.641 123.113 199.198 122.607C198.962 122.415 198.687 122.267 198.387 122.175C198.087 122.082 197.77 122.045 197.455 122.067C197.088 122.052 196.723 122.107 196.382 122.23C196.041 122.353 195.733 122.539 195.477 122.778C194.941 123.318 194.661 124.028 194.695 124.754V132.001C194.711 132.26 194.616 132.515 194.429 132.712C194.185 132.89 193.874 132.977 193.562 132.953H192.342C192.032 132.978 191.723 132.892 191.482 132.712C191.293 132.516 191.195 132.261 191.209 132.001V124.264C191.265 123.671 191.082 123.079 190.693 122.6C190.474 122.409 190.213 122.262 189.927 122.17C189.642 122.078 189.338 122.043 189.035 122.067C188.647 122.054 188.26 122.116 187.9 122.25C187.54 122.384 187.216 122.585 186.948 122.842C186.404 123.394 186.123 124.12 186.167 124.861V132.022C186.181 132.279 186.092 132.531 185.916 132.733C185.668 132.916 185.351 133.002 185.033 132.975H183.72C183.415 133.002 183.111 132.924 182.868 132.754Z" fill="white"/>
<path d="M210.259 132.683C209.045 132.238 208.003 131.476 207.265 130.493C206.481 129.374 206.091 128.064 206.147 126.738C206.147 124.406 206.833 122.635 208.203 121.427C209.571 120.218 211.518 119.606 214.043 119.606C216.568 119.606 218.444 120.196 219.726 121.37C221.008 122.543 221.649 124.214 221.649 126.468C221.649 127.101 221.328 127.421 220.695 127.421H209.767C209.737 127.946 209.846 128.471 210.086 128.95C210.325 129.428 210.688 129.848 211.142 130.173C212.261 130.87 213.604 131.208 214.957 131.133C216.437 131.152 217.895 130.816 219.186 130.159C219.285 130.099 219.397 130.06 219.515 130.045C219.655 130.045 219.765 130.13 219.843 130.294L220.562 131.46C220.615 131.553 220.644 131.655 220.648 131.759C220.64 131.833 220.611 131.903 220.564 131.964C220.518 132.025 220.455 132.074 220.382 132.107C219.563 132.562 218.672 132.901 217.74 133.11C216.673 133.342 215.578 133.452 214.48 133.437C213.032 133.446 211.596 133.19 210.259 132.683ZM218.186 125.373C218.215 124.896 218.14 124.418 217.964 123.967C217.788 123.517 217.515 123.103 217.162 122.749C216.744 122.41 216.255 122.15 215.725 121.987C215.194 121.823 214.633 121.758 214.074 121.796C212.906 121.726 211.755 122.076 210.869 122.771C210.497 123.111 210.207 123.518 210.017 123.966C209.827 124.414 209.742 124.894 209.767 125.373H218.186Z" fill="white"/>
<path d="M223.97 131.915V131.339C223.97 130.585 224.557 130.201 225.729 130.201H226.511C227.684 130.201 228.27 130.585 228.27 131.339V131.915C228.27 132.655 227.684 133.025 226.511 133.025H225.729C224.557 133.006 223.97 132.636 223.97 131.915ZM224.611 127.649C224.442 127.432 224.361 127.167 224.385 126.902L224.213 115.56C224.186 115.287 224.276 115.014 224.463 114.799C224.58 114.709 224.715 114.64 224.862 114.599C225.008 114.557 225.162 114.543 225.315 114.557H226.964C227.117 114.543 227.271 114.557 227.418 114.599C227.564 114.64 227.7 114.709 227.817 114.799C228.004 115.014 228.093 115.287 228.067 115.56L227.863 126.895C227.887 127.16 227.807 127.425 227.637 127.642C227.419 127.807 227.138 127.889 226.855 127.869H225.393C225.254 127.887 225.113 127.877 224.979 127.839C224.845 127.801 224.722 127.736 224.619 127.649H224.611Z" fill="white"/>
<path d="M82.1118 113.889C81.6271 115.119 80.5484 115.702 79.7666 116.925C78.9849 118.148 78.6566 121.803 79.5399 123.325C80.2134 124.393 81.1596 125.297 82.2985 125.962C83.4373 126.626 84.7354 127.032 86.0829 127.144C87.2134 127.186 88.3296 126.902 89.2723 126.333C89.7115 126.065 90.0997 125.734 90.4215 125.352C90.7154 124.942 90.937 124.494 91.0781 124.022C91.0893 123.985 91.1108 123.95 91.1407 123.922C91.183 123.898 91.2313 123.883 91.2814 123.88C91.6238 123.835 91.9459 123.705 92.2116 123.503C92.3441 123.402 92.4505 123.276 92.5235 123.133C92.5964 122.991 92.6341 122.835 92.6337 122.678C92.6077 122.478 92.5295 122.287 92.4058 122.12C92.2821 121.953 92.1163 121.815 91.9224 121.718C91.5274 121.533 91.1103 121.39 90.6794 121.291C89.6398 120.986 88.6782 120.509 87.662 120.161C85.6026 119.494 83.7122 118.457 82.104 117.11L82.1118 113.889Z" fill="#FFA8A7"/>
<path d="M247.805 114.998C248.29 116.243 249.369 116.833 250.15 118.077C250.932 119.322 251.276 123.055 250.385 124.57C249.701 125.654 248.741 126.572 247.584 127.247C246.427 127.922 245.109 128.333 243.74 128.445C242.653 128.514 241.571 128.26 240.656 127.721C239.741 127.183 239.043 126.389 238.667 125.458C237.955 123.219 239.183 122.372 242.138 121.355C244.229 120.682 246.149 119.63 247.782 118.262L247.805 114.998Z" fill="#B16668"/>
<path d="M175.371 104.659C179.749 105.306 181.007 107.66 181.007 107.66H177.427C177.427 107.66 176.973 108.755 178.209 112.858C178.631 114.28 176.293 114.337 176.223 113.797C175.801 114.678 172.721 115.93 170.423 114.508C168.312 113.235 167.374 111.286 167.843 107.638C168.617 103.578 174.589 104.545 175.371 104.659Z" fill="#B16668"/>
</svg>
