<svg width="343" height="312" viewBox="0 0 343 312" fill="none" xmlns="http://www.w3.org/2000/svg">
<path d="M171.5 312C266.217 312 343 273.995 343 227.113C343 180.231 266.217 142.225 171.5 142.225C76.7832 142.225 0 180.231 0 227.113C0 273.995 76.7832 312 171.5 312Z" fill="#F5F5F5"/>
<path d="M61.4878 247.952L19.7003 227.274L61.4878 206.589L103.275 227.274L61.4878 247.952Z" fill="#E0E0E0"/>
<path d="M98.046 253.008L67.0077 237.654L98.046 222.293L129.077 237.654L98.046 253.008Z" fill="#E0E0E0"/>
<path d="M167.229 293.583C192.397 293.583 212.801 283.485 212.801 271.027C212.801 258.57 192.397 248.471 167.229 248.471C142.06 248.471 121.656 258.57 121.656 271.027C121.656 283.485 142.06 293.583 167.229 293.583Z" fill="#E0E0E0"/>
<path d="M294.46 257.686L117.417 170.321L141.184 158.562L318.22 245.926L294.46 257.686Z" fill="#E0E0E0"/>
<path d="M293.306 233.682L303.953 238.986C303.953 238.986 298.582 224.286 301.597 209.497C302.72 203.917 305.083 201.144 305.924 199.656C306.764 198.168 313.179 188.947 307.494 184.692C301.809 180.438 288.587 188.9 289.183 211.671C289.471 219.128 290.856 226.523 293.306 233.682Z" fill="#FFBD12"/>
<path opacity="0.3" d="M293.306 233.682L303.953 238.986C303.953 238.986 298.582 224.286 301.597 209.497C302.72 203.917 305.083 201.144 305.924 199.656C306.764 198.168 313.179 188.947 307.494 184.692C301.809 180.438 288.587 188.9 289.183 211.671C289.471 219.128 290.856 226.523 293.306 233.682Z" fill="black"/>
<path d="M298.252 236.482C298.173 236.481 298.096 236.459 298.031 236.419C297.967 236.38 297.918 236.324 297.891 236.26C297.852 236.166 293.832 226.601 294.044 211.247C294.256 195.893 303.709 187.6 303.804 187.54C303.876 187.478 303.975 187.444 304.077 187.445C304.18 187.445 304.277 187.481 304.349 187.543C304.421 187.606 304.461 187.69 304.46 187.778C304.46 187.866 304.418 187.949 304.345 188.011C304.251 188.085 295.025 196.136 294.821 211.274C294.617 226.413 298.582 235.964 298.621 236.052C298.639 236.093 298.646 236.136 298.644 236.18C298.641 236.224 298.629 236.267 298.607 236.306C298.585 236.345 298.554 236.381 298.516 236.41C298.478 236.439 298.434 236.461 298.386 236.476C298.343 236.488 298.297 236.49 298.252 236.482Z" fill="white"/>
<path d="M296.344 235.055L313.932 243.927C313.932 243.927 321.98 242.904 321.368 236.408C320.756 229.913 317.489 228.378 321.564 225.524C325.639 222.67 326.692 222.482 326.495 219.681C326.299 216.881 324.1 215.643 323.072 214.552C322.043 213.462 319.146 211.119 321.18 207.747C323.213 204.375 325.954 201.11 321.878 199.562C319.444 198.64 315.354 199.797 312.637 202.254C309.92 204.711 307.69 206.495 305.115 207.067C302.539 207.639 297.184 207.686 297.365 211.483C297.546 215.279 298.7 216.592 297.624 218.281C295.559 221.465 286.922 223.175 296.344 235.055Z" fill="#FFBD12"/>
<path d="M303.466 239C303.37 238.999 303.277 238.967 303.206 238.911C303.135 238.855 303.091 238.779 303.081 238.697C303.081 238.468 301.15 216.033 319.334 201.298C319.41 201.247 319.505 201.222 319.601 201.228C319.697 201.234 319.787 201.271 319.853 201.331C319.919 201.391 319.956 201.47 319.958 201.552C319.959 201.635 319.924 201.715 319.861 201.776C301.951 216.289 303.827 238.421 303.851 238.643C303.857 238.73 303.824 238.816 303.758 238.883C303.692 238.949 303.599 238.991 303.497 239H303.466Z" fill="white"/>
<path d="M306.614 219.735C306.518 219.735 306.426 219.704 306.356 219.648C306.286 219.592 306.244 219.514 306.238 219.432C306.094 217.697 305.542 216.005 304.617 214.458C303.691 212.91 302.41 211.539 300.851 210.426C300.81 210.401 300.775 210.37 300.748 210.333C300.721 210.296 300.703 210.255 300.695 210.213C300.687 210.17 300.689 210.126 300.701 210.084C300.713 210.042 300.735 210.003 300.765 209.968C300.823 209.897 300.912 209.849 301.012 209.834C301.112 209.818 301.215 209.838 301.299 209.887C302.965 211.049 304.331 212.493 305.312 214.131C306.294 215.768 306.868 217.562 306.999 219.399C307.004 219.442 306.998 219.486 306.982 219.527C306.967 219.568 306.942 219.607 306.909 219.64C306.876 219.673 306.836 219.7 306.791 219.72C306.746 219.74 306.696 219.752 306.646 219.755L306.614 219.735Z" fill="white"/>
<path d="M305.319 223.572C305.223 223.572 305.13 223.541 305.06 223.484C304.988 223.423 304.948 223.339 304.948 223.252C304.948 223.165 304.988 223.082 305.06 223.02C305.248 222.838 309.771 218.625 320.347 219.863C320.448 219.875 320.54 219.92 320.602 219.99C320.663 220.059 320.691 220.147 320.677 220.233C320.671 220.277 320.656 220.318 320.63 220.356C320.605 220.394 320.572 220.427 320.531 220.453C320.491 220.48 320.445 220.499 320.396 220.51C320.347 220.521 320.295 220.523 320.245 220.516C310.132 219.325 305.672 223.424 305.633 223.464C305.593 223.5 305.544 223.529 305.49 223.547C305.435 223.566 305.377 223.574 305.319 223.572Z" fill="white"/>
<path d="M298.7 119.73L215.078 3.24582C214.011 1.75327 212.313 0.671124 210.338 0.224743C208.364 -0.221638 206.265 0.00215186 204.478 0.849511L129.767 36.0874L298.7 119.73Z" fill="#FFBD12"/>
<path d="M298.7 119.73L129.767 36.0874V162.183C129.769 164.306 130.422 166.39 131.663 168.227C132.904 170.063 134.687 171.587 136.834 172.644L286.922 246.923C288.121 247.502 289.477 247.803 290.853 247.795C292.23 247.787 293.581 247.471 294.771 246.878C295.961 246.285 296.95 245.435 297.639 244.413C298.328 243.392 298.694 242.233 298.7 241.053V119.73Z" fill="#FFBD12"/>
<g opacity="0.3">
<path d="M298.7 119.73L215.078 3.24582C214.011 1.75327 212.313 0.671124 210.338 0.224743C208.364 -0.221638 206.265 0.00215186 204.478 0.849511L129.767 36.0874L298.7 119.73Z" fill="white"/>
<path d="M298.7 119.73L129.767 36.0874V162.183C129.769 164.306 130.422 166.39 131.663 168.227C132.904 170.063 134.687 171.587 136.834 172.644L286.922 246.923C288.121 247.502 289.477 247.803 290.853 247.795C292.23 247.787 293.581 247.471 294.771 246.878C295.961 246.285 296.95 245.435 297.639 244.413C298.328 243.392 298.694 242.233 298.7 241.053V119.73Z" fill="white"/>
</g>
<path d="M294.774 121.089L211.105 4.5988C210.038 3.1168 208.349 2.04208 206.386 1.59622C204.422 1.15036 202.334 1.36737 200.552 2.20248L125.794 37.4337L294.774 121.089Z" fill="#FFBD12"/>
<path opacity="0.5" d="M294.774 121.089L211.105 4.5988C210.038 3.1168 208.349 2.04208 206.386 1.59622C204.422 1.15036 202.334 1.36737 200.552 2.20248L125.794 37.4337L294.774 121.089Z" fill="white"/>
<path d="M294.774 121.089L125.794 37.4337V163.536C125.8 165.659 126.455 167.743 127.695 169.58C128.936 171.417 130.717 172.942 132.861 174.003L282.91 248.276C284.111 248.869 285.473 249.182 286.86 249.182C288.247 249.182 289.609 248.869 290.81 248.275C292.011 247.681 293.009 246.827 293.703 245.798C294.398 244.769 294.764 243.601 294.766 242.413L294.774 121.089Z" fill="#FFBD12"/>
<path opacity="0.5" d="M294.774 121.089L125.794 37.4337V163.536C125.8 165.659 126.455 167.743 127.695 169.58C128.936 171.417 130.717 172.942 132.861 174.003L282.91 248.276C284.111 248.869 285.473 249.182 286.86 249.182C288.247 249.182 289.609 248.869 290.81 248.275C292.011 247.681 293.009 246.827 293.703 245.798C294.398 244.769 294.764 243.601 294.766 242.413L294.774 121.089Z" fill="white"/>
<path d="M132.845 174.003L282.91 248.276C284.065 248.856 285.375 249.171 286.713 249.19C288.052 249.209 289.373 248.931 290.55 248.383L200.984 132.775L125.794 163.536C125.798 165.657 126.451 167.741 127.689 169.577C128.926 171.414 130.704 172.94 132.845 174.003Z" fill="#FFBD12"/>
<path opacity="0.7" d="M132.845 174.003L282.91 248.276C284.065 248.856 285.375 249.171 286.713 249.19C288.052 249.209 289.373 248.931 290.55 248.383L200.984 132.775L125.794 163.536C125.798 165.657 126.451 167.741 127.689 169.577C128.926 171.414 130.704 172.94 132.845 174.003Z" fill="white"/>
<path d="M125.794 37.4539L198.958 144.372L294.766 121.089L125.794 37.4539Z" fill="#FFBD12"/>
<path opacity="0.3" d="M125.794 37.4539L198.958 144.372L294.766 121.089L125.794 37.4539Z" fill="white"/>
<path d="M276.228 74.9804V125.592L198.958 144.366L144.772 65.1798V9.90973L276.228 74.9804Z" fill="#F0F0F0"/>
<path d="M61.4878 244.156L28.5964 227.873V189.216L61.4878 205.499V244.156Z" fill="#FFBD12"/>
<path d="M61.4878 244.156V205.499L94.3792 189.216V227.873L61.4878 244.156Z" fill="#FFBD12"/>
<path opacity="0.5" d="M61.4878 244.156L28.5964 227.873V189.216L61.4878 205.499V244.156Z" fill="black"/>
<path opacity="0.7" d="M61.4878 244.156V205.499L94.3792 189.216V227.873L61.4878 244.156Z" fill="black"/>
<path d="M61.4878 203.924L26.0446 186.375L61.4878 168.834L96.931 186.375L61.4878 203.924Z" fill="#FFBD12"/>
<path opacity="0.1" d="M61.4878 203.924L26.0446 186.375L61.4878 168.834L96.931 186.375L61.4878 203.924Z" fill="black"/>
<path d="M41.4577 178.749L76.901 196.29L81.5178 194.009L46.0746 176.46L41.4577 178.749Z" fill="#FFBD12"/>
<path opacity="0.3" d="M41.4577 178.749L76.901 196.29L81.5178 194.009L46.0746 176.46L41.4577 178.749Z" fill="white"/>
<path d="M61.4878 209.988L26.0446 192.447V186.375L61.4878 203.924V209.988Z" fill="#FFBD12"/>
<path d="M61.4878 209.988V203.924L96.931 186.375V192.447L61.4878 209.988Z" fill="#FFBD12"/>
<path opacity="0.3" d="M61.4878 209.988L26.0446 192.447V186.375L61.4878 203.924V209.988Z" fill="black"/>
<path opacity="0.5" d="M61.4878 209.988V203.924L96.931 186.375V192.447L61.4878 209.988Z" fill="black"/>
<path d="M46.0746 236.55L41.4577 234.281V194.008L46.0746 196.29V236.55Z" fill="#FFBD12"/>
<path d="M76.901 236.55L81.5178 234.281V194.008L76.901 196.29V236.55Z" fill="#FFBD12"/>
<path opacity="0.2" d="M46.0746 236.55L41.4577 234.281V194.008L46.0746 196.29V236.55Z" fill="black"/>
<path opacity="0.4" d="M76.901 236.55L81.5178 234.281V194.008L76.901 196.29V236.55Z" fill="black"/>
<path d="M81.5178 178.749L46.0746 196.29L41.4577 194.009L76.901 176.46L81.5178 178.749Z" fill="#FFBD12"/>
<path opacity="0.3" d="M81.5178 178.749L46.0746 196.29L41.4577 194.009L76.901 176.46L81.5178 178.749Z" fill="white"/>
<path d="M98.046 249.864L74.0115 237.97V209.726L98.046 221.62V249.864Z" fill="#FFBD12"/>
<path d="M98.046 249.864V221.62L122.073 209.726V237.97L98.046 249.864Z" fill="#FFBD12"/>
<path opacity="0.5" d="M98.046 249.864L74.0115 237.97V209.726L98.046 221.62V249.864Z" fill="black"/>
<path opacity="0.7" d="M98.046 249.864V221.62L122.073 209.726V237.97L98.046 249.864Z" fill="black"/>
<path d="M98.046 220.469L72.1427 207.653L98.046 194.836L123.941 207.653L98.046 220.469Z" fill="#FFBD12"/>
<path opacity="0.1" d="M98.046 220.469L72.1427 207.653L98.046 194.836L123.941 207.653L98.046 220.469Z" fill="black"/>
<path d="M83.4102 202.079L109.306 214.895L112.682 213.226L86.7786 200.41L83.4102 202.079Z" fill="#FFBD12"/>
<path opacity="0.3" d="M83.4102 202.079L109.306 214.895L112.682 213.226L86.7786 200.41L83.4102 202.079Z" fill="white"/>
<path d="M98.046 224.905L72.1427 212.082V207.653L98.046 220.469V224.905Z" fill="#FFBD12"/>
<path d="M98.046 224.905V220.469L123.941 207.653V212.082L98.046 224.905Z" fill="#FFBD12"/>
<path opacity="0.3" d="M98.046 224.905L72.1427 212.082V207.653L98.046 220.469V224.905Z" fill="black"/>
<path opacity="0.5" d="M98.046 224.905V220.469L123.941 207.653V212.082L98.046 224.905Z" fill="black"/>
<path d="M86.7786 244.304L83.4102 242.648V213.226L86.7786 214.895V244.304Z" fill="#FFBD12"/>
<path d="M109.306 244.304L112.682 242.648V213.226L109.306 214.895V244.304Z" fill="#FFBD12"/>
<path d="M112.682 202.079L86.7786 214.895L83.4102 213.226L109.306 200.41L112.682 202.079Z" fill="#FFBD12"/>
<path opacity="0.3" d="M112.682 202.079L86.7786 214.895L83.4102 213.226L109.306 200.41L112.682 202.079Z" fill="white"/>
<path d="M124.64 107.99L138.774 128.514L154.838 121.143C157.986 119.695 161.436 118.794 164.991 118.491L155.09 135.501L139.26 142.118C137.765 142.754 136.064 142.94 134.431 142.647C132.797 142.354 131.326 141.599 130.254 140.502C128.464 138.638 126.485 135.588 124.64 130.648C119.387 116.566 116.938 109.215 116.938 109.215L119.921 105.264L124.64 107.99Z" fill="#FFA8A7"/>
<path d="M160.861 245.469C160.908 245.139 160.947 244.796 160.994 244.52C161.779 238.993 166.349 220.96 165.705 212.883L179.658 167.387L156.707 164.082C156.707 164.082 147.285 193.255 146.123 209.181C145.487 217.931 146.303 233.366 147.159 245.462C151.578 246.87 156.44 246.873 160.861 245.469Z" fill="#455A64"/>
<path d="M153.017 267.729L159.298 259.806C159.298 259.806 160.083 251.089 160.829 245.469C156.414 246.886 151.552 246.897 147.128 245.502C147.835 255.39 148.565 263.064 148.565 263.064L153.017 267.729Z" fill="#FFA8A7"/>
<path d="M164.284 165.185L160.484 165.562C157.343 177.679 167.189 183.313 167.189 183.313C167.189 183.313 160.398 201.965 157.359 215.683C155.883 222.354 159.487 226.211 164.127 228.351C165.179 222.556 166.012 216.659 165.697 212.869L179.65 167.373L164.284 165.185Z" fill="#37474F"/>
<path d="M159.51 261.119C157.759 262.065 156.429 263.487 155.733 265.157C155.205 266.258 154.244 267.165 153.017 267.722C153.017 267.722 153.653 265.353 152.538 264.619C151.423 263.885 147.497 261.253 147.081 264.976C146.947 266.14 146.822 267.305 146.822 267.305C146.822 267.305 141.608 272.151 139.072 273.208C136.536 274.265 129.328 274.13 131.094 279.771C132.861 285.412 145.267 282.672 149.342 279.616C153.417 276.56 163.428 277.233 163.287 273.154C163.146 269.075 159.824 264.39 159.51 261.119Z" fill="#263238"/>
<path d="M159.33 259.806C157.567 260.759 156.231 262.194 155.537 263.879C155 264.988 154.028 265.903 152.789 266.463C152.789 266.463 153.433 264.08 152.31 263.333C151.187 262.586 147.238 259.968 146.814 263.697L146.555 266.046C146.555 266.046 141.31 270.919 138.758 271.983C136.206 273.046 128.943 272.912 130.725 278.593C132.508 284.274 144.992 281.514 149.099 278.438C153.205 275.362 163.279 276.035 163.13 271.929C162.981 267.823 159.652 263.098 159.33 259.806Z" fill="#37474F"/>
<path d="M150.638 270.334C150.558 270.332 150.481 270.31 150.418 270.269C150.354 270.227 150.308 270.17 150.284 270.105C150.027 269.269 149.546 268.496 148.88 267.848C148.213 267.199 147.379 266.693 146.445 266.369C146.397 266.358 146.352 266.338 146.313 266.311C146.274 266.284 146.242 266.251 146.218 266.213C146.195 266.175 146.181 266.134 146.176 266.091C146.172 266.049 146.178 266.006 146.194 265.965C146.224 265.884 146.291 265.817 146.379 265.778C146.467 265.739 146.57 265.731 146.665 265.757C147.716 266.109 148.657 266.668 149.41 267.39C150.162 268.111 150.707 268.975 150.999 269.91C151.015 269.95 151.021 269.992 151.017 270.035C151.013 270.077 151 270.118 150.977 270.156C150.954 270.194 150.923 270.227 150.885 270.254C150.847 270.281 150.803 270.301 150.755 270.314L150.638 270.334Z" fill="#F0F0F0"/>
<path d="M148.368 272.144C148.287 272.146 148.208 272.124 148.143 272.083C148.077 272.041 148.03 271.983 148.007 271.916C147.751 271.081 147.27 270.308 146.603 269.661C145.936 269.013 145.102 268.509 144.168 268.187C144.073 268.16 143.994 268.103 143.947 268.028C143.9 267.953 143.889 267.865 143.916 267.783C143.931 267.742 143.954 267.704 143.986 267.671C144.017 267.638 144.056 267.611 144.1 267.591C144.144 267.571 144.192 267.559 144.241 267.555C144.29 267.551 144.34 267.555 144.388 267.567C145.441 267.919 146.382 268.48 147.135 269.203C147.889 269.925 148.432 270.79 148.722 271.727C148.751 271.808 148.743 271.896 148.697 271.972C148.651 272.048 148.573 272.105 148.478 272.131L148.368 272.144Z" fill="#F0F0F0"/>
<path d="M146.123 274.083C146.042 274.082 145.964 274.06 145.899 274.019C145.834 273.977 145.786 273.92 145.762 273.854C145.508 273.018 145.028 272.245 144.361 271.597C143.694 270.949 142.859 270.445 141.922 270.125C141.828 270.099 141.749 270.042 141.704 269.966C141.658 269.89 141.649 269.802 141.679 269.721C141.693 269.681 141.717 269.643 141.748 269.61C141.78 269.577 141.818 269.55 141.862 269.53C141.906 269.51 141.954 269.497 142.003 269.493C142.053 269.489 142.102 269.493 142.15 269.506C143.202 269.859 144.143 270.42 144.896 271.143C145.648 271.865 146.193 272.73 146.484 273.666C146.499 273.706 146.504 273.749 146.499 273.791C146.494 273.834 146.48 273.875 146.456 273.912C146.433 273.95 146.401 273.983 146.363 274.01C146.324 274.037 146.28 274.057 146.233 274.07L146.123 274.083Z" fill="#F0F0F0"/>
<path d="M138.758 271.983C136.206 273.046 128.943 272.912 130.725 278.593C131.88 282.255 137.478 282.41 142.409 281.232C142.724 279.556 142.636 277.842 142.15 276.197C141.153 273.026 138.758 271.983 138.758 271.983Z" fill="#FAFAFA"/>
<path d="M209.424 220.105C210.034 221.801 211.292 223.272 212.997 224.279C214.098 225.006 214.869 226.039 215.18 227.2C215.18 227.2 212.675 226.056 211.552 226.79C210.429 227.523 206.488 230.095 210.547 231.4L213.099 232.222C213.099 232.222 217.198 237.788 217.732 240.164C218.266 242.541 216.24 248.471 223.055 248.471C229.871 248.471 230.004 237.492 227.625 233.326C225.246 229.159 228.599 221.048 223.966 220.105C219.333 219.163 213.185 220.691 209.424 220.105Z" fill="#263238"/>
<path d="M198.879 218.275C197.521 217.965 196.116 217.601 194.702 217.218C190.234 215.987 185.668 215.036 181.04 214.37C181.04 214.37 191.766 191.848 194.121 179.9C196.477 167.952 190.91 159.861 190.91 159.861L159.934 164.573C157.579 176.797 169.568 183.05 169.568 183.05C169.097 182.949 162.714 200.955 160.24 214.761C157.767 228.567 171.908 229.011 178.684 228.896C181.919 228.856 190.219 228.849 198 228.863C200.552 224.003 199.712 220.254 198.879 218.275Z" fill="#455A64"/>
<path d="M208.404 219.978C205.201 219.555 202.027 218.986 198.895 218.275C199.727 220.254 200.528 224.003 198.016 228.856L214.402 228.89C214.387 221.997 208.404 219.978 208.404 219.978Z" fill="#FFA8A7"/>
<path d="M207.893 219.91C208.512 221.617 209.781 223.096 211.497 224.111C212.605 224.844 213.381 225.883 213.696 227.052C213.696 227.052 211.175 225.901 210.045 226.641C208.914 227.382 204.941 229.967 209.024 231.279L211.599 232.107C211.599 232.107 215.729 237.714 216.263 240.104C216.797 242.493 214.764 248.471 221.626 248.471C228.489 248.471 228.622 237.418 226.219 233.225C223.817 229.031 227.201 220.859 222.537 219.91C217.873 218.961 211.686 220.523 207.893 219.91Z" fill="#37474F"/>
<path d="M211.599 232.43C211.53 232.431 211.462 232.415 211.403 232.383C211.361 232.361 211.324 232.332 211.295 232.298C211.266 232.263 211.245 232.224 211.234 232.182C211.223 232.141 211.222 232.098 211.231 232.056C211.24 232.014 211.258 231.974 211.285 231.939C211.953 231.158 212.827 230.524 213.836 230.087C214.844 229.651 215.958 229.425 217.088 229.428C217.138 229.425 217.187 229.431 217.234 229.446C217.281 229.46 217.325 229.482 217.361 229.511C217.398 229.54 217.427 229.575 217.448 229.614C217.468 229.653 217.479 229.695 217.48 229.738C217.482 229.78 217.475 229.823 217.458 229.863C217.441 229.902 217.415 229.939 217.381 229.97C217.348 230.002 217.307 230.027 217.262 230.045C217.217 230.063 217.169 230.073 217.119 230.074C216.112 230.068 215.116 230.264 214.213 230.647C213.31 231.031 212.525 231.591 211.921 232.282C211.886 232.328 211.838 232.365 211.782 232.391C211.726 232.417 211.663 232.43 211.599 232.43Z" fill="#F0F0F0"/>
<path d="M213.115 234.793C213.042 234.792 212.972 234.773 212.911 234.739C212.827 234.693 212.767 234.621 212.745 234.538C212.723 234.455 212.74 234.367 212.793 234.295C213.464 233.515 214.34 232.882 215.349 232.446C216.358 232.01 217.473 231.783 218.603 231.784C218.702 231.784 218.797 231.817 218.867 231.876C218.937 231.935 218.978 232.016 218.98 232.1C218.982 232.185 218.946 232.267 218.878 232.329C218.811 232.39 218.718 232.427 218.619 232.43C217.612 232.43 216.618 232.629 215.715 233.012C214.812 233.395 214.024 233.952 213.413 234.638C213.383 234.683 213.339 234.721 213.287 234.748C213.235 234.776 213.176 234.791 213.115 234.793Z" fill="#F0F0F0"/>
<path d="M214.685 237.149C214.617 237.151 214.55 237.137 214.49 237.109C214.431 237.08 214.382 237.039 214.349 236.988C214.315 236.937 214.299 236.879 214.302 236.821C214.304 236.763 214.326 236.706 214.363 236.657C215.033 235.877 215.909 235.243 216.918 234.807C217.928 234.37 219.043 234.144 220.174 234.147C220.223 234.144 220.273 234.15 220.32 234.164C220.367 234.178 220.41 234.201 220.447 234.23C220.484 234.259 220.513 234.294 220.534 234.333C220.554 234.372 220.565 234.414 220.566 234.456C220.568 234.542 220.532 234.624 220.465 234.687C220.397 234.75 220.304 234.788 220.205 234.793C219.197 234.788 218.201 234.985 217.297 235.369C216.394 235.752 215.607 236.311 214.999 237.001C214.966 237.046 214.92 237.084 214.865 237.11C214.81 237.136 214.748 237.149 214.685 237.149Z" fill="#F0F0F0"/>
<path d="M216.255 240.104C216.797 242.493 214.756 248.471 221.618 248.471C226.047 248.471 227.664 243.873 227.617 239.485C225.815 238.784 223.864 238.411 221.885 238.387C218.038 238.387 216.255 240.104 216.255 240.104Z" fill="#FAFAFA"/>
<path d="M192.7 89.6006C192.7 89.6006 192.841 83.4685 194.844 83.3473C196.846 83.2262 195.393 87.5745 195.393 87.5745C195.393 87.5745 197.482 86.3831 198.275 87.4534C199.068 88.5236 194.412 90.2737 194.412 90.2737L192.7 89.6006Z" fill="#263238"/>
<path d="M150.787 101.616C150.787 101.616 152.208 111.773 170.189 104.914C170.189 104.914 153.127 131.886 183.725 131.886C197.16 131.886 206.237 126.252 204.415 116.754C204.415 116.754 211.937 116.613 212.267 111.443C212.267 111.443 203.057 114.897 199.052 107.088C195.048 99.2801 200.544 91.5594 193.721 88.4361C193.721 88.4361 189.913 78.0633 166.742 83.5964C165.733 83.0029 164.567 82.6359 163.351 82.5288C162.134 82.4218 160.905 82.5783 159.777 82.9838C155.686 84.3301 154.642 90.5161 155.686 95.201C156.731 99.8859 155.6 103.588 150.787 101.616Z" fill="#263238"/>
<path d="M188.162 120.557L191.797 121.406V141.996L188.162 151.925C189.848 155.757 191.208 159.69 192.229 163.691C186.643 166.655 180.213 168.244 173.644 168.282C162.855 168.282 156.707 164.095 156.707 164.095L155.341 150.39C155.341 150.39 147.34 146.008 151.266 137.258C155.192 128.507 165.014 118.491 165.014 118.491H168.548C168.548 118.491 176.737 122.718 188.162 120.557Z" fill="#FFBD12"/>
<path opacity="0.6" d="M188.162 120.557L191.797 121.406V141.996L188.162 151.925C189.848 155.757 191.208 159.69 192.229 163.691C186.643 166.655 180.213 168.244 173.644 168.282C162.855 168.282 156.707 164.095 156.707 164.095L155.341 150.39C155.341 150.39 147.34 146.008 151.266 137.258C155.192 128.507 165.014 118.491 165.014 118.491H168.548C168.548 118.491 176.737 122.718 188.162 120.557Z" fill="black"/>
<path d="M182.767 119.366L188.162 120.557C188.162 120.557 182.563 123.499 180.467 133.017C180.401 133.316 180.263 133.6 180.062 133.85C179.86 134.101 179.6 134.312 179.298 134.471C178.995 134.631 178.657 134.734 178.305 134.774C177.954 134.815 177.596 134.792 177.255 134.706L162.761 131.051C162.398 130.957 162.064 130.793 161.784 130.572C161.504 130.352 161.286 130.081 161.145 129.778C161.004 129.476 160.944 129.15 160.97 128.825C160.995 128.5 161.106 128.185 161.293 127.901C163.083 125.168 166.121 120.773 168.579 118.478H173.408L182.767 119.366Z" fill="#FFA8A7"/>
<path d="M182.767 119.366L170.189 118.558V104.914H182.767V119.366Z" fill="#FFA8A7"/>
<path d="M170.189 117.966C172.759 117.148 175.11 115.892 177.097 114.272C179.083 112.652 180.665 110.702 181.747 108.542V104.914H170.189V117.966Z" fill="#F28F8F"/>
<path d="M167.252 87.2447C167.252 87.2447 155.749 87.8236 157.17 104.692C157.83 112.487 159.958 116.525 166.962 116.229C174.9 115.899 186.167 111.221 185.429 97.8733C184.691 84.5253 167.252 87.2447 167.252 87.2447Z" fill="#FFA8A7"/>
<path d="M182.767 104.914C182.767 104.914 179.627 105.628 179.627 101.75C179.627 101.75 165.611 100.936 162.517 89.015C162.517 89.015 163.899 85.4407 172.646 85.4407C181.393 85.4407 188.758 92.0777 186.473 101.199L182.767 104.914Z" fill="#263238"/>
<path d="M165.603 101.293V107.088L161.646 106.052L165.603 101.293Z" fill="#F28F8F"/>
<path d="M170.189 103.09C170.952 103.09 171.571 102.56 171.571 101.905C171.571 101.251 170.952 100.721 170.189 100.721C169.425 100.721 168.807 101.251 168.807 101.905C168.807 102.56 169.425 103.09 170.189 103.09Z" fill="#263238"/>
<path d="M162.502 101.084C162.503 101.319 162.424 101.548 162.273 101.744C162.122 101.94 161.906 102.093 161.654 102.183C161.402 102.274 161.124 102.298 160.855 102.254C160.586 102.209 160.34 102.096 160.145 101.931C159.951 101.765 159.819 101.554 159.765 101.324C159.711 101.094 159.738 100.856 159.842 100.639C159.947 100.422 160.124 100.237 160.351 100.106C160.579 99.9758 160.846 99.9061 161.12 99.9061C161.485 99.9061 161.835 100.03 162.094 100.251C162.353 100.471 162.5 100.771 162.502 101.084Z" fill="#263238"/>
<path d="M159.44 98.6272L162.141 97.2809C162.141 97.2809 161.104 96.3588 160.076 96.9107C159.784 97.1109 159.567 97.3808 159.454 97.6863C159.341 97.9918 159.336 98.3192 159.44 98.6272Z" fill="#263238"/>
<path d="M165.949 109.013C167.519 109.105 169.08 108.745 170.385 107.99C170.385 107.99 170.683 110.01 168.728 110.38C166.773 110.75 165.949 109.013 165.949 109.013Z" fill="#F28F8F"/>
<path d="M181.652 105.352C181.604 104.37 181.817 103.392 182.273 102.491C182.799 101.488 183.725 100.472 185.335 100.438C188.868 100.35 189.347 103.272 189.3 104.308C189.174 107.034 186.599 109.983 181.802 110.097L181.652 105.352Z" fill="#FFA8A7"/>
<path d="M190.596 121.123C190.596 121.123 183.882 126.259 186.992 133.616C190.101 140.973 196.414 150.114 198.196 153.379C198.196 153.379 183.136 154.846 179.352 155.169L181.495 163.631C181.495 163.631 202.939 164.001 207.548 162.547C212.157 161.093 214.3 157.606 211.89 152.181C210.084 148.142 202.224 133.502 198.424 126.467C197.773 125.261 196.831 124.186 195.66 123.313C194.489 122.441 193.117 121.791 191.632 121.406L190.596 121.123Z" fill="#FFA8A7"/>
<path d="M76.3435 90.5699V152.618C76.3435 153.821 76.7129 155.002 77.4145 156.043C78.1161 157.084 79.1251 157.948 80.3401 158.548L170.047 202.867C170.596 203.137 171.218 203.278 171.85 203.276C172.482 203.274 173.103 203.129 173.649 202.856C174.195 202.583 174.648 202.192 174.961 201.721C175.275 201.25 175.438 200.716 175.434 200.174V138.227C175.434 136.715 174.969 135.23 174.087 133.92C173.205 132.611 171.936 131.524 170.409 130.769L82.6799 87.4332C82.0377 87.1153 81.3092 86.948 80.5676 86.948C79.826 86.948 79.0976 87.1154 78.4554 87.4333C77.8132 87.7512 77.2799 88.2084 76.9092 88.759C76.5385 89.3096 76.3434 89.9342 76.3435 90.5699Z" fill="#FFBD12"/>
<path opacity="0.3" d="M76.3435 90.5699V152.618C76.3435 153.821 76.7129 155.002 77.4145 156.043C78.1161 157.084 79.1251 157.948 80.3401 158.548L170.047 202.867C170.596 203.137 171.218 203.278 171.85 203.276C172.482 203.274 173.103 203.129 173.649 202.856C174.195 202.583 174.648 202.192 174.961 201.721C175.275 201.25 175.438 200.716 175.434 200.174V138.227C175.434 136.715 174.969 135.23 174.087 133.92C173.205 132.611 171.936 131.524 170.409 130.769L82.6799 87.4332C82.0377 87.1153 81.3092 86.948 80.5676 86.948C79.826 86.948 79.0976 87.1154 78.4554 87.4333C77.8132 87.7512 77.2799 88.2084 76.9092 88.759C76.5385 89.3096 76.3434 89.9342 76.3435 90.5699Z" fill="black"/>
<path d="M74.3884 91.1959V153.244C74.3898 154.445 74.759 155.624 75.459 156.663C76.159 157.703 77.1653 158.566 78.3771 159.168L168.092 203.486C168.64 203.758 169.263 203.901 169.896 203.9C170.529 203.899 171.151 203.755 171.698 203.481C172.245 203.208 172.698 202.815 173.011 202.343C173.323 201.871 173.485 201.336 173.479 200.794V138.846C173.478 137.334 173.013 135.849 172.131 134.54C171.249 133.231 169.981 132.144 168.453 131.388L80.7248 88.0524C80.082 87.7343 79.3528 87.5669 78.6105 87.5673C77.8683 87.5676 77.1393 87.7355 76.4969 88.0543C75.8544 88.373 75.3213 88.8311 74.9511 89.3827C74.581 89.9342 74.3869 90.5596 74.3884 91.1959Z" fill="#FFBD12"/>
<path d="M108.897 101.973L110.601 101.225L114.048 102.928L112.525 103.763L108.897 101.973Z" fill="#FFBD12"/>
<path d="M108.897 174.246L112.525 176.036V103.763L108.897 101.973V174.246Z" fill="#FFBD12"/>
<path opacity="0.4" d="M108.897 174.246L112.525 176.036V103.763L108.897 101.973V174.246Z" fill="white"/>
<path d="M126.171 108.912L122.552 107.122C122.552 107.122 121.853 108.01 121.342 112.359C120.918 115.987 105.545 108.32 112.014 101.353C116.09 96.9848 128.315 105.419 126.171 108.912Z" fill="#FFA8A7"/>
<path d="M179.352 155.169C177.393 155.262 175.43 155.262 173.471 155.169C172.324 154.988 168.642 151.925 167.66 151.804C166.679 151.683 164.174 153.036 166.09 158.178C168.006 163.321 170.801 165.657 175.167 165.105C179.532 164.553 181.448 163.637 181.448 163.637L179.352 155.169Z" fill="#FFA8A7"/>
<path d="M179.352 155.169C178.105 154.319 176.794 153.541 175.426 152.84V156.576L179.352 155.169Z" fill="#FFA8A7"/>
<path d="M74.3884 123.667L173.479 172.711V168.787L74.3884 119.743V123.667Z" fill="#FFBD12"/>
<path opacity="0.4" d="M74.3884 123.667L173.479 172.711V168.787L74.3884 119.743V123.667Z" fill="white"/>
<path d="M110.067 137.534C110.067 137.534 105.953 125.626 109.156 124.684C111.74 123.923 114.362 125.949 113.42 130.372C112.86 133.213 112.477 136.078 112.274 138.954C112.497 139.066 112.746 139.134 113.003 139.154C113.261 139.174 113.52 139.145 113.763 139.069C114.006 138.993 114.226 138.872 114.409 138.715C114.591 138.558 114.731 138.368 114.818 138.16C116.388 134.437 119.851 128.621 117.786 124.179C116.317 121.015 110.122 116.734 105.482 118.471C100.841 120.207 102.569 128.85 107.539 137.264C107.539 137.264 108.458 139.163 110.067 137.534Z" fill="#FFBD12"/>
<path opacity="0.6" d="M110.067 137.534C110.067 137.534 105.953 125.626 109.156 124.684C111.74 123.923 114.362 125.949 113.42 130.372C112.86 133.213 112.477 136.078 112.274 138.954C112.497 139.066 112.746 139.134 113.003 139.154C113.261 139.174 113.52 139.145 113.763 139.069C114.006 138.993 114.226 138.872 114.409 138.715C114.591 138.558 114.731 138.368 114.818 138.16C116.388 134.437 119.851 128.621 117.786 124.179C116.317 121.015 110.122 116.734 105.482 118.471C100.841 120.207 102.569 128.85 107.539 137.264C107.539 137.264 108.458 139.163 110.067 137.534Z" fill="white"/>
<path d="M111.127 143.181C111.127 143.181 115.242 155.089 112.038 156.031C109.455 156.792 106.832 154.766 107.774 150.343C108.334 147.504 108.717 144.642 108.921 141.768C108.697 141.656 108.447 141.588 108.19 141.568C107.932 141.549 107.672 141.578 107.429 141.655C107.186 141.732 106.966 141.853 106.784 142.011C106.602 142.169 106.463 142.359 106.377 142.569C104.806 146.291 101.344 152.1 103.409 156.543C104.877 159.706 111.072 163.987 115.713 162.251C120.353 160.514 118.626 151.871 113.655 143.457C113.655 143.45 112.737 141.552 111.127 143.181Z" fill="#FFBD12"/>
<path opacity="0.6" d="M111.127 143.181C111.127 143.181 115.242 155.089 112.038 156.031C109.455 156.792 106.832 154.766 107.774 150.343C108.334 147.504 108.717 144.642 108.921 141.768C108.697 141.656 108.447 141.588 108.19 141.568C107.932 141.549 107.672 141.578 107.429 141.655C107.186 141.732 106.966 141.853 106.784 142.011C106.602 142.169 106.463 142.359 106.377 142.569C104.806 146.291 101.344 152.1 103.409 156.543C104.877 159.706 111.072 163.987 115.713 162.251C120.353 160.514 118.626 151.871 113.655 143.457C113.655 143.45 112.737 141.552 111.127 143.181Z" fill="white"/>
<path d="M112.69 145.853L108.026 143.545C107.394 143.233 106.869 142.783 106.503 142.242C106.138 141.701 105.945 141.087 105.945 140.462V136.315C105.944 135.987 106.045 135.665 106.236 135.381C106.427 135.097 106.702 134.861 107.033 134.698C107.364 134.534 107.74 134.448 108.122 134.448C108.505 134.448 108.88 134.535 109.211 134.7L113.2 136.672C113.889 137.014 114.462 137.504 114.861 138.095C115.261 138.685 115.473 139.355 115.477 140.038V144.46C115.479 144.741 115.395 145.017 115.233 145.26C115.071 145.504 114.836 145.707 114.554 145.848C114.271 145.989 113.95 146.064 113.622 146.065C113.295 146.066 112.973 145.993 112.69 145.853Z" fill="#FFBD12"/>
<path opacity="0.6" d="M112.69 145.853L108.026 143.545C107.394 143.233 106.869 142.783 106.503 142.242C106.138 141.701 105.945 141.087 105.945 140.462V136.315C105.944 135.987 106.045 135.665 106.236 135.381C106.427 135.097 106.702 134.861 107.033 134.698C107.364 134.534 107.74 134.448 108.122 134.448C108.505 134.448 108.88 134.535 109.211 134.7L113.2 136.672C113.889 137.014 114.462 137.504 114.861 138.095C115.261 138.685 115.473 139.355 115.477 140.038V144.46C115.479 144.741 115.395 145.017 115.233 145.26C115.071 145.504 114.836 145.707 114.554 145.848C114.271 145.989 113.95 146.064 113.622 146.065C113.295 146.066 112.973 145.993 112.69 145.853Z" fill="white"/>
<path d="M173.479 172.711L175.434 171.715V167.669L173.479 168.787V172.711Z" fill="#FFBD12"/>
</svg>
