<svg width="184" height="184" viewBox="0 0 184 184" fill="none" xmlns="http://www.w3.org/2000/svg">
<path fill-rule="evenodd" clip-rule="evenodd" d="M120.704 11.6698L124.693 16.4131L118.584 17.4911L112.511 18.5691L114.631 12.7478L116.716 6.92651L120.704 11.6698Z" fill="#F0C82F"/>
<path d="M158.059 54.4085L148.136 56.4656L150.193 66.3882L160.116 64.3311L158.059 54.4085Z" fill="#DE5D1D"/>
<path d="M142.048 138.768C143.656 138.768 144.959 137.465 144.959 135.858C144.959 134.25 143.656 132.947 142.048 132.947C140.441 132.947 139.138 134.25 139.138 135.858C139.138 137.465 140.441 138.768 142.048 138.768Z" fill="white"/>
<path d="M39.7085 20.8692C41.316 20.8692 42.6192 19.566 42.6192 17.9585C42.6192 16.351 41.316 15.0479 39.7085 15.0479C38.101 15.0479 36.7979 16.351 36.7979 17.9585C36.7979 19.566 38.101 20.8692 39.7085 20.8692Z" fill="#F0C82F"/>
<path d="M149.942 34.738C152.22 32.7597 152.462 29.31 150.484 27.0328C148.505 24.7556 145.056 24.5133 142.779 26.4915C140.501 28.4698 140.259 31.9195 142.237 34.1967C144.215 36.4739 147.665 36.7163 149.942 34.738Z" fill="#BCCAFC"/>
<path d="M61.8609 2.37337L57.8682 3.11279L63.7378 34.8073L67.7305 34.0679L61.8609 2.37337Z" fill="#BCCAFC"/>
<path d="M84.0137 0.00010105L74.3398 20.4282L78.0098 22.1661L87.6836 1.73801L84.0137 0.00010105Z" fill="#BCCAFC"/>
<path fill-rule="evenodd" clip-rule="evenodd" d="M129.436 169.959C128.142 169.528 126.849 169.312 125.555 168.593C126.454 166.437 126.597 165.18 128.358 163.635C129.616 162.521 131.197 161.91 132.742 161.371C134.682 160.688 136.659 160.616 138.168 158.712C139.569 156.915 139.282 154.435 140.935 152.567C143.019 150.159 145.894 149.584 148.265 148.974C149.415 148.686 150.457 148.686 151.607 147.249C152.398 146.278 152.613 144.841 153.152 143.547C154.518 140.277 156.818 138.014 160.411 137.834C160.663 139.056 160.555 140.277 160.699 141.463C155.883 142.721 157.429 148.003 153.476 151.237C150.565 153.609 146.289 152.675 144.097 155.262C143.271 156.232 143.091 157.849 142.732 158.819C142.264 160.005 141.69 161.299 140.647 162.269C137.952 164.892 133.245 164.353 130.873 167.012C130.011 167.911 130.011 168.809 129.436 169.959Z" fill="#8FBA44"/>
<path d="M36.1516 154.507C33.8518 153.214 30.9411 154.04 29.6475 156.376L18.7595 175.96C17.4659 178.26 18.2924 181.17 20.6281 182.464C21.3468 182.859 22.1733 183.075 22.9638 183.075C24.6527 183.075 26.2697 182.177 27.1321 180.631L38.0201 161.047C39.2778 158.712 38.4514 155.801 36.1516 154.507Z" fill="#222221"/>
<path d="M119.662 175.96L108.774 156.376C107.481 154.076 104.57 153.25 102.27 154.507C99.9705 155.801 99.144 158.712 100.402 161.011L111.29 180.595C112.152 182.177 113.805 183.039 115.458 183.039C116.249 183.039 117.039 182.859 117.794 182.428C120.093 181.17 120.92 178.26 119.662 175.96Z" fill="#222221"/>
<path d="M133.568 117.028C133.568 153.214 104.246 182.536 68.0601 182.536C31.8746 182.536 2.58838 153.214 2.58838 117.028C2.58838 80.8426 31.9105 51.5205 68.096 51.5205C104.282 51.5205 133.568 80.8426 133.568 117.028Z" fill="#DE5D1D"/>
<path d="M121.495 117.028C121.495 146.53 97.5625 170.426 68.0966 170.426C38.5948 170.426 14.6987 146.494 14.6987 117.028C14.6987 87.5265 38.5948 63.6304 68.0966 63.6304C97.5984 63.5945 121.495 87.5265 121.495 117.028Z" fill="white"/>
<path d="M92.7481 114.872H69.93V87.0595C69.93 86.0174 69.1035 85.1909 68.0614 85.1909C67.0194 85.1909 66.1929 86.0174 66.1929 87.0595V116.741C66.1929 117.783 67.0194 118.61 68.0614 118.61H92.7121C93.7542 118.61 94.5807 117.783 94.5807 116.741C94.6166 115.699 93.7902 114.872 92.7481 114.872Z" fill="#222221"/>
<path d="M68.0972 80.4474C67.0192 80.4474 66.1567 79.585 66.1567 78.507V68.5173C66.1567 67.4393 67.0192 66.5769 68.0972 66.5769C69.1752 66.5769 70.0376 67.4393 70.0376 68.5173V78.507C70.0376 79.585 69.1393 80.4474 68.0972 80.4474Z" fill="#8D8DFB"/>
<path d="M68.0972 166.869C67.0192 166.869 66.1567 166.006 66.1567 164.928V154.938C66.1567 153.86 67.0192 152.998 68.0972 152.998C69.1752 152.998 70.0376 153.86 70.0376 154.938V164.928C70.0376 165.97 69.1393 166.869 68.0972 166.869Z" fill="#8D8DFB"/>
<path d="M29.8627 118.646H19.8731C18.795 118.646 17.9326 117.783 17.9326 116.705C17.9326 115.627 18.795 114.765 19.8731 114.765H29.8627C30.9407 114.765 31.8031 115.627 31.8031 116.705C31.8031 117.783 30.9407 118.646 29.8627 118.646Z" fill="#8D8DFB"/>
<path d="M36.4743 95.2162L27.9939 89.9698C27.6346 89.7542 27.2034 89.6824 26.7721 89.7542C26.3409 89.862 25.9816 90.1136 25.766 90.4729C25.5504 90.8323 25.4785 91.2635 25.5504 91.6947C25.6582 92.1259 25.9097 92.4852 26.2691 92.7008L34.7495 97.9472C35.001 98.1269 35.2885 98.1987 35.6119 98.1987C36.1868 98.1987 36.6899 97.9113 37.0133 97.4082C37.4805 96.6895 37.2289 95.6834 36.4743 95.2162Z" fill="#BCCAFC"/>
<path d="M48.8005 147.824C48.4412 147.608 47.974 147.536 47.5788 147.608C47.1476 147.716 46.7882 147.967 46.5726 148.327L41.3262 156.807C40.8591 157.562 41.0747 158.568 41.8653 159.071C42.1168 159.215 42.4043 159.322 42.7277 159.322C43.3026 159.322 43.8057 159.035 44.1291 158.568L49.3755 150.087C49.8067 149.297 49.5911 148.291 48.8005 147.824Z" fill="#BCCAFC"/>
<path d="M46.968 73.3685C46.5368 72.578 45.5665 72.2546 44.776 72.6858C43.9855 73.117 43.698 74.0872 44.0933 74.8777L48.7647 83.7175C49.0521 84.2565 49.5912 84.5799 50.202 84.5799C50.4536 84.5799 50.7051 84.5081 50.9566 84.4003C51.3519 84.1846 51.6394 83.8612 51.7472 83.43C51.8909 82.9988 51.8191 82.5676 51.6394 82.2083L46.968 73.3685Z" fill="#BCCAFC"/>
<path d="M33.5647 133.163L24.7249 137.834C24.3296 138.05 24.0422 138.373 23.9344 138.804C23.7906 139.235 23.8625 139.667 24.0422 140.026C24.3296 140.565 24.8687 140.888 25.4795 140.888C25.7311 140.888 26.0185 140.817 26.2342 140.709L35.0739 136.037C35.4692 135.822 35.7567 135.498 35.8645 135.067C36.0082 134.636 35.9363 134.205 35.7567 133.809C35.3254 133.055 34.3552 132.731 33.5647 133.163Z" fill="#BCCAFC"/>
<path d="M106.618 118.646H116.608C117.686 118.646 118.548 117.783 118.548 116.705C118.548 115.627 117.686 114.765 116.608 114.765H106.618C105.54 114.765 104.678 115.627 104.678 116.705C104.714 117.783 105.576 118.646 106.618 118.646Z" fill="#8D8DFB"/>
<path d="M100.042 95.2162L108.522 89.9698C108.882 89.7542 109.313 89.6824 109.744 89.7542C110.175 89.862 110.535 90.1136 110.75 90.4729C110.966 90.8323 111.038 91.2635 110.966 91.6947C110.858 92.1259 110.606 92.4852 110.247 92.7008L101.767 97.9831C101.515 98.1628 101.228 98.2347 100.904 98.2347C100.329 98.2347 99.8262 97.9472 99.5028 97.4441C99.0357 96.6895 99.2872 95.6834 100.042 95.2162Z" fill="#BCCAFC"/>
<path d="M87.6809 147.824C88.0402 147.608 88.5074 147.536 88.9026 147.608C89.3339 147.716 89.6932 147.967 89.9088 148.327L95.1552 156.807C95.6223 157.562 95.4067 158.568 94.6162 159.071C94.3646 159.215 94.0771 159.322 93.7537 159.322C93.1788 159.322 92.6757 159.035 92.3523 158.568L87.106 150.087C86.7107 149.297 86.9263 148.291 87.6809 147.824Z" fill="#BCCAFC"/>
<path d="M89.5486 73.3685C89.9798 72.578 90.95 72.2546 91.7405 72.6858C92.5311 73.117 92.8185 74.0872 92.4233 74.8777L87.7519 83.7175C87.4644 84.2565 86.9254 84.5799 86.3145 84.5799C86.063 84.5799 85.8114 84.5081 85.5599 84.4003C85.1646 84.1846 84.8771 83.8612 84.7693 83.43C84.6256 82.9988 84.6975 82.5676 84.8771 82.2083L89.5486 73.3685Z" fill="#BCCAFC"/>
<path d="M102.952 133.163L111.792 137.834C112.187 138.05 112.474 138.373 112.582 138.804C112.726 139.235 112.654 139.667 112.474 140.026C112.187 140.565 111.648 140.888 111.037 140.888C110.786 140.888 110.498 140.817 110.282 140.709L101.443 136.037C101.047 135.822 100.76 135.498 100.652 135.067C100.508 134.636 100.58 134.205 100.76 133.809C101.191 133.055 102.161 132.731 102.952 133.163Z" fill="#BCCAFC"/>
<path d="M68.1996 124.572C72.5255 124.515 75.9862 120.962 75.9293 116.636C75.8724 112.31 72.3194 108.85 67.9935 108.906C63.6675 108.963 60.2068 112.516 60.2637 116.842C60.3206 121.168 63.8736 124.629 68.1996 124.572Z" fill="#F0C82F"/>
<path d="M68.0963 126.479C62.7062 126.479 58.3223 122.095 58.3223 116.705C58.3223 111.315 62.7062 106.931 68.0963 106.931C73.4864 106.931 77.8704 111.315 77.8704 116.705C77.8344 122.095 73.4505 126.479 68.0963 126.479ZM68.0963 110.812C64.8623 110.812 62.2031 113.471 62.2031 116.705C62.2031 119.939 64.8623 122.598 68.0963 122.598C71.3304 122.598 73.9895 119.939 73.9895 116.705C73.9895 113.471 71.3304 110.812 68.0963 110.812Z" fill="#8D8DFB"/>
<path d="M22.2807 40.0577L19.8372 36.069C18.867 34.4879 16.7828 33.9849 15.2017 34.991L11.2131 37.4705C9.63198 38.4407 9.1289 40.5248 10.1351 42.1059L12.6145 46.0946C13.5847 47.6757 15.6689 48.1788 17.25 47.1726L21.2387 44.6932C22.7838 43.723 23.2869 41.6388 22.2807 40.0577Z" fill="#8FBA44"/>
<path d="M56.67 53.4251C58.9698 51.9878 59.4729 48.7897 57.6402 46.7773C47.1116 35.0988 29.4321 32.26 15.5975 40.8482C1.79883 49.4724 -3.48347 66.577 2.33784 81.2021C3.34399 83.7175 6.43431 84.6877 8.73409 83.2503L56.67 53.4251Z" fill="#F0C82F"/>
<path d="M44.4521 42.0339C41.3258 40.0935 38.3074 39.303 35.0015 39.7342C31.9111 40.0935 30.0785 41.7465 30.0426 44.0103C30.0066 46.3101 31.6596 47.7474 34.8937 48.0349C37.5887 48.2505 40.3197 48.0709 42.871 49.2207C44.4162 49.9035 46.1051 49.6879 47.1831 48.1787C48.4048 46.4179 47.6143 44.9087 46.3207 43.5791C45.6738 42.8604 44.8833 42.3574 44.4521 42.0339Z" fill="white"/>
<path d="M24.6169 41.9981C22.9639 41.2075 20.0173 42.3933 19.119 44.1541C18.4362 45.4837 18.7596 46.5976 20.0892 47.2444C21.7421 48.035 24.5809 46.8851 25.4433 45.0525C26.0901 43.7948 25.8386 42.6808 24.6169 41.9981Z" fill="white"/>
<path d="M125.411 37.65L121.458 35.2065C119.877 34.2363 117.793 34.7034 116.823 36.2845L114.343 40.2732C113.373 41.8543 113.84 43.9385 115.421 44.9087L119.41 47.3881C120.991 48.3584 123.075 47.8912 124.045 46.3101L126.525 42.3215C127.495 40.7404 126.992 38.6562 125.411 37.65Z" fill="#8FBA44"/>
<path d="M79.9542 53.6405C77.6545 52.2031 77.1514 49.005 78.984 46.9927C89.5127 35.3141 107.192 32.4754 121.027 41.0636C134.861 49.6518 140.108 66.7923 134.286 81.3815C133.28 83.8969 130.19 84.8671 127.89 83.4297L79.9542 53.6405Z" fill="#F0C82F"/>
<path d="M128.681 52.8138C127.172 49.472 125.124 47.1003 122.141 45.5911C119.374 44.1537 116.967 44.5131 115.637 46.3457C114.307 48.2143 114.882 50.3703 117.398 52.3826C119.482 54.0715 121.854 55.437 123.327 57.8446C124.225 59.282 125.734 60.0366 127.459 59.3898C129.472 58.6351 129.651 56.9103 129.328 55.1136C129.22 54.1793 128.861 53.3169 128.681 52.8138Z" fill="white"/>
<path d="M112.296 41.6388C111.362 40.0577 108.271 39.3749 106.51 40.3451C105.181 41.0638 104.822 42.1778 105.576 43.4714C106.475 45.0525 109.529 45.6993 111.218 44.6931C112.511 43.9385 112.907 42.8605 112.296 41.6388Z" fill="white"/>
<path d="M181.935 109.878C177.515 122.059 164.076 128.348 151.894 123.964C147.834 122.49 144.42 120.011 141.833 116.885L128.825 118.861L137.844 109.914C136.047 104.919 135.904 99.313 137.844 93.9229C142.264 81.7413 155.703 75.4529 167.885 79.8368C180.031 84.2567 186.355 97.696 181.935 109.878Z" fill="#BCCAFC"/>
<path d="M150.206 106.93C148.733 107.29 147.296 106.355 146.936 104.918L143.882 92.1975C143.522 90.7242 144.457 89.2868 145.894 88.9275C147.367 88.5681 148.805 89.5024 149.164 90.9398L152.218 103.66C152.578 105.134 151.679 106.571 150.206 106.93Z" fill="white"/>
<path d="M153.799 110.236C154.158 111.71 153.224 113.147 151.787 113.506C150.313 113.866 148.876 112.931 148.517 111.494C148.157 110.021 149.092 108.583 150.529 108.224C151.966 107.901 153.44 108.799 153.799 110.236Z" fill="white"/>
<path d="M159.98 101.433C158.471 101.433 157.249 100.211 157.249 98.7018L157.285 85.6219C157.285 84.1126 158.507 82.8909 160.016 82.8909C161.525 82.8909 162.747 84.1126 162.747 85.6219L162.711 98.7018C162.711 100.211 161.489 101.433 159.98 101.433Z" fill="white"/>
<path d="M162.415 106.735C163.107 105.395 162.582 103.748 161.242 103.055C159.902 102.363 158.255 102.888 157.562 104.228C156.87 105.568 157.395 107.215 158.735 107.908C160.075 108.6 161.722 108.075 162.415 106.735Z" fill="white"/>
<path d="M168.352 110.165C166.915 109.698 166.16 108.152 166.627 106.751L170.688 94.3897C171.155 92.9523 172.7 92.1977 174.102 92.6648C175.539 93.132 176.293 94.6771 175.826 96.0786L171.766 108.44C171.335 109.877 169.789 110.632 168.352 110.165Z" fill="white"/>
<path d="M169.682 114.872C169.215 116.309 167.67 117.064 166.269 116.597C164.831 116.13 164.077 114.585 164.544 113.183C165.011 111.746 166.556 110.991 167.957 111.458C169.395 111.925 170.149 113.435 169.682 114.872Z" fill="white"/>
</svg>
