<svg width="26" height="24" viewBox="0 0 26 24" fill="none" xmlns="http://www.w3.org/2000/svg">
<path d="M13 13C13.5983 13 14.0834 12.5523 14.0834 12C14.0834 11.4477 13.5983 11 13 11C12.4017 11 11.9167 11.4477 11.9167 12C11.9167 12.5523 12.4017 13 13 13Z" stroke="black" stroke-width="2" stroke-linecap="round" stroke-linejoin="round"/>
<path d="M13 6C13.5983 6 14.0834 5.55228 14.0834 5C14.0834 4.44772 13.5983 4 13 4C12.4017 4 11.9167 4.44772 11.9167 5C11.9167 5.55228 12.4017 6 13 6Z" stroke="black" stroke-width="2" stroke-linecap="round" stroke-linejoin="round"/>
<path d="M13 20C13.5983 20 14.0834 19.5523 14.0834 19C14.0834 18.4477 13.5983 18 13 18C12.4017 18 11.9167 18.4477 11.9167 19C11.9167 19.5523 12.4017 20 13 20Z" stroke="black" stroke-width="2" stroke-linecap="round" stroke-linejoin="round"/>
</svg>
